<svg width="133" height="133" viewBox="0 0 133 133" fill="none" xmlns="http://www.w3.org/2000/svg">
<g id="Group 29">
<g id="Group 12" filter="url(#filter0_d_88_930)">
<g id="Group 11">
<rect id="Rectangle 10" x="4.98047" y="0.590088" width="123.458" height="123.458" rx="20" fill="#152A5B"/>
</g>
<g id="Group 1">
<circle id="Ellipse 1" cx="49.6562" cy="28.2673" r="17.2165" fill="#D9D9D9"/>
<path id="Rectangle 4" d="M32.4397 28.2673C32.4397 18.7589 40.1478 11.0508 49.6562 11.0508H66.8727V45.4838H49.6562C40.1478 45.4838 32.4397 37.7757 32.4397 28.2673Z" fill="#FF5656"/>
<path id="Rectangle 6" d="M32.4397 62.7006C32.4397 53.1922 40.1478 45.4841 49.6562 45.4841H66.8727V79.9172H49.6562C40.1478 79.9172 32.4397 72.2091 32.4397 62.7006Z" fill="#8E73EF"/>
<g id="Rectangle 7">
<path d="M66.8726 62.7006C66.8726 53.1922 74.5807 45.4841 84.0891 45.4841C93.5975 45.4841 101.306 53.1922 101.306 62.7006C101.306 72.2091 93.5975 79.9172 84.0891 79.9172C74.5807 79.9172 66.8726 72.2091 66.8726 62.7006Z" fill="#7DC9FF"/>
<path d="M66.8726 62.7006C66.8726 53.1922 74.5807 45.4841 84.0891 45.4841C93.5975 45.4841 101.306 53.1922 101.306 62.7006C101.306 72.2091 93.5975 79.9172 84.0891 79.9172C74.5807 79.9172 66.8726 72.2091 66.8726 62.7006Z" fill="#7DC9FF"/>
<path d="M66.8726 62.7006C66.8726 53.1922 74.5807 45.4841 84.0891 45.4841C93.5975 45.4841 101.306 53.1922 101.306 62.7006C101.306 72.2091 93.5975 79.9172 84.0891 79.9172C74.5807 79.9172 66.8726 72.2091 66.8726 62.7006Z" fill="#64C9FF"/>
</g>
<g id="Rectangle 8">
<path d="M32.4397 97.1333C32.4397 87.6248 40.1478 79.9167 49.6562 79.9167H66.8727V97.1333C66.8727 106.642 59.1646 114.35 49.6562 114.35C40.1478 114.35 32.4397 106.642 32.4397 97.1333Z" fill="#7DC9FF"/>
<path d="M32.4397 97.1333C32.4397 87.6248 40.1478 79.9167 49.6562 79.9167H66.8727V97.1333C66.8727 106.642 59.1646 114.35 49.6562 114.35C40.1478 114.35 32.4397 106.642 32.4397 97.1333Z" fill="#7DC9FF"/>
<path d="M32.4397 97.1333C32.4397 87.6248 40.1478 79.9167 49.6562 79.9167H66.8727V97.1333C66.8727 106.642 59.1646 114.35 49.6562 114.35C40.1478 114.35 32.4397 106.642 32.4397 97.1333Z" fill="#6BDD80"/>
</g>
<path id="Rectangle 5" d="M66.8726 11.0508H84.0891C93.5975 11.0508 101.306 18.7589 101.306 28.2673C101.306 37.7757 93.5975 45.4838 84.0891 45.4838H66.8726V11.0508Z" fill="#FF9292"/>
</g>
</g>
</g>
<defs>
<filter id="filter0_d_88_930" x="0.980469" y="0.590088" width="131.458" height="131.458" filterUnits="userSpaceOnUse" color-interpolation-filters="sRGB">
<feFlood flood-opacity="0" result="BackgroundImageFix"/>
<feColorMatrix in="SourceAlpha" type="matrix" values="0 0 0 0 0 0 0 0 0 0 0 0 0 0 0 0 0 0 127 0" result="hardAlpha"/>
<feOffset dy="4"/>
<feGaussianBlur stdDeviation="2"/>
<feComposite in2="hardAlpha" operator="out"/>
<feColorMatrix type="matrix" values="0 0 0 0 0.374314 0 0 0 0 0.176881 0 0 0 0 0.0283433 0 0 0 0.25 0"/>
<feBlend mode="normal" in2="BackgroundImageFix" result="effect1_dropShadow_88_930"/>
<feBlend mode="normal" in="SourceGraphic" in2="effect1_dropShadow_88_930" result="shape"/>
</filter>
</defs>
</svg>
