<svg width="125" height="124" viewBox="0 0 125 124" fill="none" xmlns="http://www.w3.org/2000/svg">
<g id="Group 28">
<rect id="Rectangle 10" x="0.980469" y="0.213379" width="123.458" height="123.458" rx="20" fill="#5C3700"/>
<g id="Ai">
<path id="Vector" d="M94.6497 37.5428C92.1391 37.5428 90.0749 36.8175 88.457 35.367C86.8948 33.8607 86.1138 32.0196 86.1138 29.8438C86.1138 27.6122 86.8948 25.7711 88.457 24.3205C90.0749 22.8142 92.1391 22.061 94.6497 22.061C97.1044 22.061 99.1129 22.8142 100.675 24.3205C102.293 25.7711 103.102 27.6122 103.102 29.8438C103.102 32.0196 102.293 33.8607 100.675 35.367C99.1129 36.8175 97.1044 37.5428 94.6497 37.5428ZM101.763 42.3966V89.093H87.4527V42.3966H101.763Z" fill="#FD8B00"/>
<path id="Vector_2" d="M62.3216 78.7163H40.3961L36.8813 89.0933H21.9016L43.1577 30.3462H59.7274L80.9835 89.0933H65.8364L62.3216 78.7163ZM58.6395 67.6698L51.3588 46.1627L44.1619 67.6698H58.6395Z" fill="#FD8B00"/>
</g>
</g>
</svg>
