<svg width="129" height="129" viewBox="0 0 129 129" fill="none" xmlns="http://www.w3.org/2000/svg">
<g id="Group 32" opacity="0.9">
<rect id="Rectangle 10" width="128.228" height="128.228" rx="20" fill="#152A5B"/>
<g id="Ps">
<path id="Vector" d="M91.6253 94.3071C87.3952 94.3071 83.6288 93.5827 80.3258 92.1341C77.0229 90.6854 74.4153 88.7153 72.5031 86.2236C70.5909 83.674 69.5189 80.8346 69.2871 77.7055H83.9764C84.1503 79.386 84.9325 80.7477 86.3232 81.7907C87.7139 82.8337 89.4234 83.3553 91.4515 83.3553C93.3057 83.3553 94.7254 83.0076 95.7105 82.3122C96.7535 81.5589 97.275 80.6028 97.275 79.4439C97.275 78.0532 96.5507 77.0391 95.1021 76.4017C93.6534 75.7064 91.3066 74.9531 88.0616 74.1418C84.5849 73.3306 81.6876 72.4904 79.3697 71.6212C77.0519 70.6941 75.0527 69.2744 73.3723 67.3622C71.6919 65.392 70.8517 62.7554 70.8517 59.4525C70.8517 56.6711 71.6049 54.1505 73.1115 51.8906C74.6761 49.5727 76.936 47.7474 79.8912 46.4147C82.9044 45.0819 86.4681 44.4155 90.5823 44.4155C96.6666 44.4155 101.447 45.9221 104.924 48.9353C108.459 51.9485 110.487 55.9468 111.008 60.9301H97.275C97.0433 59.2497 96.29 57.917 95.0151 56.9319C93.7983 55.9468 92.1758 55.4542 90.1477 55.4542C88.4093 55.4542 87.0765 55.8019 86.1494 56.4973C85.2223 57.1347 84.7587 58.0328 84.7587 59.1918C84.7587 60.5825 85.483 61.6255 86.9317 62.3209C88.4383 63.0162 90.7561 63.7116 93.8852 64.4069C97.4779 65.334 100.404 66.2612 102.664 67.1883C104.924 68.0575 106.894 69.5062 108.575 71.5343C110.313 73.5044 111.211 76.17 111.269 79.5308C111.269 82.3702 110.458 84.9198 108.835 87.1797C107.271 89.3816 104.982 91.12 101.969 92.3948C99.0134 93.6696 95.5656 94.3071 91.6253 94.3071Z" fill="#22AAFF"/>
<path id="Vector_2" d="M64.157 52.2384C64.157 55.7731 63.3457 59.0181 61.7232 61.9734C60.1007 64.8707 57.6091 67.2175 54.2482 69.0138C50.8873 70.8101 46.7152 71.7083 41.7318 71.7083H32.5184V93.6119H17.6553V32.5947H41.7318C46.5993 32.5947 50.7135 33.4349 54.0744 35.1154C57.4352 36.7958 59.9559 39.1137 61.6363 42.0689C63.3167 45.0241 64.157 48.414 64.157 52.2384ZM40.6019 59.8873C43.4413 59.8873 45.5563 59.2209 46.947 57.8882C48.3377 56.5554 49.033 54.6722 49.033 52.2384C49.033 49.8047 48.3377 47.9214 46.947 46.5887C45.5563 45.2559 43.4413 44.5896 40.6019 44.5896H32.5184V59.8873H40.6019Z" fill="#22AAFF"/>
</g>
</g>
</svg>
