<?xml version="1.0" encoding="UTF-8"?>
<svg id="Layer_1" data-name="Layer 1" xmlns="http://www.w3.org/2000/svg" viewBox="0 0 807 1082">
  <g id="eO5aoz">
    <g>
      <path d="M372.24,488.39c3.98,2.86,20.42-12.01,24.95-12.9,5.39-1.06,7.5,8.64,1.57,11.2-3.01,1.3-6.26.08-9.63,1.28-1.93.68-13.33,8.62-14.02,10.29,1.46,7.84.66,24.13-4.91,30.23-1.11,1.21-2.88.97-3.72,1.69-1.42,1.22-1.48,2.56-3.96,3.91-10.15,5.53-23.81-.2-35.1,1.88-3.21,9.14-6.79,18.05-12.1,26.16-.4,2.61,16.15,12.02,18.91,18.22,3.34,7.48,6.96,32.63,6.21,40.78-3.97,42.77-32.88,58.08-73.22,60.14-26.69,1.36-57.06-19.54-52.43-48.79,2.39-15.1,31.53-72.32,42.15-83.94,6.18-6.76,14.93-13.51,24.59-11.27,3.31.77,5.77,5.59,8.17,4.03s13.69-32.2,16.94-37.62c12.55-20.92,50.43-48.22,65.59-15.3ZM322.81,493.8c-13.28,12.15-23.72,42.42-32.25,59.29-5.65,11.18-7.01,11.33-10.86,24.31-1.16,3.93-7.77,5.29-2.85,11.85,4.34,5.77,9.34,6.08,14.03.55,6.19-7.32,28.9-46.28,29.98-54.9.92-7.38-4.07-11.11-.27-16.05,5.89,1.71,7.9,6.98,13.93,9.09,12.43,4.35,27.57,2.74,33.34-10.28,2.37-5.34,1.28-19.21-1.27-24.22-1.89-3.72-4.5-.96-6.58-1.84-2.37-1-6.03-7.34-8.56-8.47-1.22-.54-8.98-1.9-10.03-1.65-5.41,4.36-13.59,7.73-18.63,12.34ZM285.98,545.57c-12.16-3.49-17.47-1.11-24.71,8.54-10.92,14.56-38.82,64.85-39.26,81.74-.74,28.39,25.74,39.02,50.06,38.18,23.9-.82,50.77-8.76,58.23-33.91,1.96-6.6,4.61-24.42,4.18-30.89-.12-1.84-5.15-22.61-5.95-24.38-3.58-7.99-12.32-9.43-19.9-11.54-1.99,3.37-14.24,20.29-11.69,23.13,4.16-1.35,6.11-3.93,10.72-1.02,1,10.76-3.41,20.93-9.52,29.53-7.68,10.81-37.25,40.86-47.55,19.65-4.64-9.56-.27-24.1,3.31-33.58,2.24-5.93,11.19-20.11,11-24.89s-8.83-12.63-6.77-18.78c6.64-1.44,5.17,4.04,9.09,7.25,6.77-9.07,17.41-17.3,18.75-29.03ZM259.6,643.45c4.35,2.47,15.47-4.65,19.16-7.59,4.72-3.76,24.29-23.98,20.08-29.8-3.56-2.13-7.54-.63-11.65-1.7-4.31-1.11-15.46-12.11-18.08-10.29-.85,5.92-5.35,9.88-7.57,14.87-2.81,6.32-9.01,30.49-1.94,34.51Z"/>
      <path d="M370.29,817.1c21.73,2.42,78.24,21.26,99.07,30.66,7.4,3.34,18.88,12.86,26.71,11.54,3.21-.54,12.4-5.44,15.86-7.25,21.05-11.02,41.65-26.18,62.8-37.83,19.85-10.93,41.04-20.36,60.76-30.17,2.12-1.05,14.88-7.56,15.32-8.32,2.5-4.29-8.23-9.66-11.65-10.48-5.06-1.21-19.45-1.61-25.15-1.59-6.76.02-19.99,5.53-20.03-4.74,9.6-1.04,19.52-2.25,29.09-.02l-1.07-5.35c.76-1.95,2.37-1.79,4.05-1.98,17.21-1.92,55.09,6.09,53.83,29l-7.09,2.6,3.62,2.4c-6.25-.63-11.15.52-16.61,3.4-33.48,17.62-69.32,46.89-101.8,67.94-1.95,1.26-4.15,2.28-6.46,2.65-.85,3.03.96,1.94,1.63,2.42,2.9,2.1-7.5,2.83-8.69,3.23-2.75.93-16.06,6.37-17.69,7.55-1.36.98-.04,3.46-1.4,3.83-10.12,2.01-18-3-26.93-4.6-19.46-3.49-23.84-3.23-42.42-10.93-11.56-4.79-30.02-4.27-42.97-6.74-8.81-1.68-17.32-5.47-25.94-6.79-22.43-3.45-40.61-.86-63.31-9.44-4.6-1.74-7.48-3.45-8.42-8.56-1.08-5.86-1.65-17.04-1.21-23.02.13-1.8.82-2.89,2.73-2.76,7.54,8.21-2.52,23.99,10.33,28.48,23.39,8.18,44.92,5.9,68.13,10.68,6.11,1.26,12.81,4.17,18.88,5.37,12.04,2.37,25.25,1.81,36.95,4.27,10.58,2.23,20.41,9.76,31.22,10.6-4.01-4.54-10.69-7.34-16.15-9.9-22.42-10.51-65.93-24.06-90.24-28.58-7.24-1.35-19.9-.28-24.9-1.77-4-1.19-4.33-5.81-.25-5.81,6.04,0,13.64-.64,19.4,0ZM526.39,863.5c1.43-.81,6.9-1.12,10.21-2.54,28.98-12.36,64.2-41.03,91.46-58.88,11.2-7.33,28.71-15.66,38.58-23.25,11.87-9.12-9.15-16.45-16.89-17.49,3.65,5.84,13.2,9.66,9.43,17.88-23.01,11.19-46.69,21.12-69.25,33.22s-45.42,28.03-68.28,42.05c-1.69,1.04-20.52,8.78-17.38,12.31,7.26,1.21,12.8,3.32,19.81-.23,1.5-.76,1.72-2.74,2.31-3.07Z"/>
      <path d="M606.84,639.64c-.38.95-2.98,5.81-3.89,7.6-2.89,5.65-21.13,32.77-20.73,35.93,18.76,19.66,21.19,40.07,2.69,61.21-11.47,13.1-21.2,14.82-38.23,16.33-6.21,7.88-9.91,23.51-21.8,22.46,1.98,4.51,3.17,7.57,2.49,12.77-.98,7.5-34.9,13.37-41.96,12.73-9.6-.86-13.39-7.71-17-15.64-4.8,1.45-10.3,1.11-14.97,2.96-5.76,2.28-15.58,16.38-20.83,9.72l-1.26-8.43c-5.92-7.69-24.29,8.07-28.4,1.68-1.65-2.57,2.63-7.25,3.91-9.78l27.07-1.17c-2.27-5.77-2.19-14.07,6.05-10.28,4.15,1.91,11.35,16.68,14.53,4.83,2.68-.89,5.73-9.89,7.91-9.08,7.87,2.9-2.34,11.65-.58,13.32,3.29-.85,7.33,1.04,10.15.83,4.52-.33,13.79-7.9,19.84-9.03,6.6-1.23,22.59,1.9,26.32-2.78,2.13-2.68,5.84-19.18,8.56-19.3,5.16,2.54-3.29,16.89-1.81,18.15,8.73,1.07,9.51-10.61,14.54-15.74-4.91-1.15-10.43-2.4-14.6-5.42-14.66-10.61-13.27-45.86-3.39-59.26,7.04-9.56,23.6-11.84,34.34-15.37l32.17-57.67,1.53-.32c3.84,3.6,8.55,1.68,13.3,2.52,9.94,1.76,6.78,9.41,4.05,16.23ZM602.47,630.39c-4.69,1.35-11.4-2.89-14.6.54-4.51,4.84-14.92,25.61-18.33,32.6-1.07,2.2-6.84,13.94-5.85,15.32,4.08.38,10.54,4.05,13.9,1.22,2.66-2.25,15.07-24.31,17.26-28.82,1.33-2.74,8.76-19.79,7.62-20.86ZM551.54,687.38c-9.67,1.68-17.8,3.49-24.21,11.55-9.49,11.93-10.88,44.19,5.19,51.72,24.67,11.56,60.82-7.41,59.01-35.98-.36-5.71-6.44-23.18-12.73-23.67-1.59-.12-3.55,1.27-4.73,1.02-1.51-.32-8.16-13.33-15.95-4.75-2.1,1.28-3.1,10.76-5.95,9.78s.33-7.5-.63-9.68ZM511.54,788l-1.2-2.41-.65,3.64c-9.44-1.53-16.36-2.22-25.61,1.02-15.93,5.57-.76,12.41,9.71,11.89,3.53-.18,25.28-5.2,26.11-7.63,1.55-4.5-4.55-13.49-5.97-6.55l-2.39.04Z"/>
      <path d="M421.31,588.48c10.95,11.72,21.49,19.18,32.67,29.75,17.12,16.19,32.13,35.71,53.07,47.56,2.61,1.48,6.99.81,8.7,4.63,3.31,7.44-6.23,24.02-9.62,31.55-2.84,6.3-7.21,13.21-9.37,18.52-2.42,5.97-2.33,11.9-7.67,16.59-8.53,1.78,3.14-22.4,4.27-24.59.78-1.5,4.27-4.12,5.9-7.69,2.95-6.48,5.08-14.22,8.4-20.78.95-12.65-11.69-17.58-19.74-24.56-4.6-3.99-21.46-20.84-24.9-22.38-2.73-1.22-7.56-.09-8.35-.76-.47-.4-2.54-10-4.98-11.39-14.7-13.9-29.88-27.59-43.68-42.4-2.37-2.54-11.51-16.51-14.51-13.98-.18,5.73-4.02,9.85-6.14,15.1-2.89,7.17.71,13.52-10.93,11.04-4.19-.89-24.81-9.52-26.64-12.45s-1.39-7.4,2.87-6.23c1.13.31,4.64,3.7,7.26,4.89,2.33,1.06,16.52,6.52,17.64,5.74,2.18-5.41,6.55-9.32,9.32-14.39,1.99-3.63,1.53-7.72,5.31-10.53l-5.85-7.35c.87-9.9,14.31-3.67,22.29-4.02,17.84-.76,31.8-8.98,46.74-17.58l-.04-9.07,6.02,1.21,3.05-5.98,3.12,1.95-1.14,11.15c19.72,9.47,51,.37,60.69-19.63,3.91-8.06,4.52-21.58,3.31-30.42-2.68-19.67-32.76-31.04-49.87-25.83-3.52,1.07-14.03,8.31-14.86,8.15-6.62-1.29,5.06-10.08,7-11.17,18.32-10.23,55.24.38,61.75,21.19,11.32,36.2-15.06,67.33-51.86,67.61-7.05.05-17.64-4.5-22.88-3.63-8.13,1.36-23.22,13.4-33.47,16.28-6.27,1.76-11.37,1.19-17.23,2.17-2.51.42-9.59,1.83-7.63,5.72,3.88,7.69,15.78,19.4,21.96,26.02Z"/>
      <path d="M610.96,444.87c14.17-.92,20.43,2.85,13.56,16.6-1.95,3.9-16.52,23.69-20.83,19.78,1.77-7.67,9.95-11.39,14.11-18,13.51-21.47-13.93-5.31-21.37-14.12.01-1.32,14.12-11.74,16.38-13.91,1.02-.98,6.77-6.13,5.42-7.3-19.11,3.21-40.45,8.55-57.38-3.85-19.11-14-34.3-64.09-48.3-85.07-6.68-10.01-30.59-27.13-42.86-26.38-4.08.25-5.21,4.46-8.26,3.65-2.47-.66-2.72-4.5-4.09-4.82-2.75-.63-20.58,5.49-15.57-2.41,1.32-2.08,13.07-4.74,15.88-4.83,12.58-.42,37.93,10.76,47.84,18.81,28.94,23.52,36.3,99.08,77.13,103.53,16.05,1.75,34.56-4.81,50.04-8.97,2.69-.19,5.65,1.61,4.83,4.65-1.36,5.07-23.59,15.97-26.53,22.64Z"/>
      <path d="M111.44,646.15c-.14-.09-.19-2.01-1.17-3.01-3-3.07-6.11-6.04-9.13-9.09-4.9,2.92.92,19.07-.61,20.59l-6.69-1.19c-2.57-5.03-2.76-24.82,2.7-26.46,11.34-3.4,14.03,9.74,22.14,11.41,6.78,1.4,13.73-5.38,18.8,1.71,5.57,7.78-5.32,13.14-5.5,19.93-.2,7.44,8.7,15.91,5.96,24.12-2.02,6.06-19.27-2.94-23.26-1.5s-6.74,12.77-14.81,11.52c-5.31-.82-4.57-13.96-3.5-17.78-20.09-3.14-19.9-15.7.52-16.94-3.33,8.17,7.08,10.72,8.02,14.49.97,3.88-3.95,8.23-.13,9.76.71.28,2.7-7.95,11.19-9.42,6.95-1.2,7.8,1.55,13.65,3.35-.35-7.32-6.54-14.74-4.56-22.13.82-3.06,5.41-5.47,4.56-9.39h-18.19Z"/>
      <path d="M191.47,747.99c1.81-.24,2-5.23,2.24-6.83,2.75-17.77,3.61-37.75,8.01-55.04.53-2.07,4.12-15.73,7.92-12.08-3.25,12.27-6.29,24.56-8.32,37.13-4.85,29.97-11.86,88.55-8.18,117.24.54,4.23,5.68,17.16,5.44,18.14-.88,3.51-6.82,7.14-10.11,3.23-3.52-4.19.33-10.43.57-15.12.45-8.78-1.33-17.49-1.17-25.41.27-12.57,2.93-25.15,3.59-37.63.13-2.46.44-14-.18-14.96-.52-.81-5.54-.77-6.48-4.88-.5-2.18,1.64-6.37,1.81-9.26,2.35-39.77,13.4-97.54,29.81-133.86,1.65-3.66,4.85-9.41,7.77-12.22-8.97,25.4-18.07,50.85-23.88,77.35-5.28,24.05-8.96,49.53-8.83,74.2Z"/>
      <path d="M495.78,289.69c-5.03-3.02-21.27-3.64-23.67-8.48-3.92-7.9,15.19-15.01,21.26-10.23,11.14-18.86,19.01-39.95,27.96-4.35,4.98-.61,26.23-5.78,27.51.77.72,8.42-8.49,12.75-9.19,20.79-.37,4.22,7.12,12.45.98,15.53-2.64,1.33-8.97-5.27-13.9-5.34-9.98-.14-20.13,13.19-30.94,8.29v-16.97ZM540.63,270.3c-6.01-1.72-21.63,6.27-24.83-.03-1.14-2.24-2.59-15.64-7.28-14.52-2.5.59-8.01,14.89-8.35,18.26-4.29,1.68-8.56,1.22-13.13,2.75-1.24.41-4.42.48-3.38,2.62,1.28,2.62,19.88,2.08,20.59,9.69l-2.41,10.33c1.18,1.19,10.63-2.82,12.56-3.8s3.24-3.82,5.27-4.44c4.27-1.31,8.3,1.18,12.48.98-1.78-3.92,9.88-20.58,8.48-21.82Z"/>
      <path d="M515.18,757.69c-7.58,2.26-14.28.06-21.18-.04-10.27-.16-20.46.89-30.52,1.09-7.08.14-19.1-3.35-25.39,1.33-2.85,2.12-6.05,6.57-8.59,9.56-14.33-.61-27.4,7.57-40.13,12-7.14,2.48-19.71,3.96-26.19,7.53-1.49.82-.03,3.22-1.53,3.74-2.2.77-7.25.54-10.41,1.52-5.55,1.71-23.83,11.69-22.19.89,1.79,1.05,3.89.21,5.69-.36,12.12-3.81,24.57-9.92,36.73-14.25,14.01-4.99,38.72-10.38,50.64-17.26,4.23-2.44,16.52-14.83,19.88-15.17,23.44,7.15,49.02.62,72.65,4.48l.54,4.92Z"/>
      <path d="M181.76,552.79c-5.48,1.23-5.83-6.21-6.1-10.26-.67-9.84,1.95-18.16,4.88-27.32-25.24,11.11-49.87,1.06-54.39-27.02,3.48-7.05,10.73-1.45,15.14-1.26,15.69.68,32.19-3.98,47.17-8.06l15.11-7.31c-2.96,12.65-20.52,15-31.28,17.82-4.73,1.24-9.62,4-15.4,4h-21.22c1.59,16.09,17.87,23.14,32.81,20.08,8.48-1.74,13.82-9.71,21.75-10.37.31,2.45-.21,4.7-.82,7.05-.86,3.3-7.66,17.93-7.66,19.02v23.64Z"/>
      <path d="M309.84,420.22c-9.16,14.6-33.55,22.62-49.85,17.46-4.75-1.5-15.61-7.11-8.4-11.99,6.46,2.2,12.25.97,17.58-3.15,3.21-2.48,1.5-6.16,9.6-4.32,3.34,3.37-8.85,11.58-12.13,12.13-2.84,4.25,17.68,1.38,19.67.87,29.44-7.5,26.76-46.73,32.82-70.24,2.83-10.97,5.16-17.33,14.18-24.62,4.09-3.3,15.09-11.17,18.44-3.85,2.35,4.28-4.33,2.76-6.62,3.55-29.44,10.11-21.3,61.87-35.28,84.16Z"/>
      <path d="M499.06,431.17c1.19-.7,2.12-6.13,7.13-2.15,9.35,7.45-10.58,9.62-14.66,9.79-32,1.32-46.01-24.54-49.08-52.74-1.13-10.37.57-34.65-3.35-42.72-5.22-10.76-18.66,6.71-22.69,5.83-7.35-1.61,1.58-8.76,5.13-10.65,20.2-10.73,24.24-4.4,25.72,16.06,1.86,25.76-2.82,43.13,13.5,66.52,6.69,9.59,27.78,16.27,38.29,10.07Z"/>
      <path d="M236.79,271.97c-5.5,5.87-15.14,20.04-3.6,25.09,7.28,3.19,21.02.42,19.59-9.24-.41-2.81-6.24-6.09-8.66-3.01-1.65,2.3,2.7,6.38-1.15,8.52-3.74,1.07-8.27-7.48-6.98-10.56,5.67-9.3,20.12-7.8,23.34,2.82,6.58,21.72-42.36,29.6-37.48-2.47.96-6.29,15.78-23.56,21.42-24.72,3.48-.72,9.84.73,8.8,5.23-.36,1.56-6.93,1.32-9.37,2.77-1.44.85-4.54,4.13-5.91,5.59Z"/>
      <path d="M389.08,298.2c.08,4.33-3.22,3.69-6.33,3.34-13.9-1.55-29.43-20.09-31.85-33.66-2.13,3.23-3.68,9.08-4.12,12.85-.92,7.86-1.61,21.37,3.48,27.79,2.44,3.07,11.53,5.73,10.93,8.44-.93,4.24-8.73.19-10.82-1.28-14.04-9.89-7.81-40.73-4.56-55.31.41-1.83,5.44-26.69,9.13-14.73,1.1,3.56-.25,9.9.32,14.22,2.49,18.82,15.1,33.71,33.82,38.33Z"/>
      <path d="M224.19,418.22c-2.17.08-2.57.62-2.42-1.8.74-12.15,7.26-27.6,12.13-38.82,10.97-25.28,36.29-71.4,67.31-73.33,4.3-.27,14.52.98,17,4.79,4.04,6.22-11.47,1.2-13.38,1.16-11.81-.26-26.03,8.91-33.96,17.05-22.81,23.44-40.63,59.06-46.67,90.95Z"/>
      <path d="M578.83,509.17c5.84,16.32,34.04,3.89,37.91,22.68,4.03,19.58-18.09,29.23-31.65,36.9-4.46,2.53-14.47,13.31-13.62-.29,8.48-2.57,17.61-7.52,24.83-12.75s18.79-13.61,13.76-24.46c-3.37-7.28-14.96-5.65-21.01-6.88-7.18-1.46-18.78-7.67-10.23-15.21Z"/>
      <path d="M403.63,334.54c-8.29.6-9.35,5.52-13.33,10.33-1.6,1.93-4.05,3.47-5.41,5.5-6.53,9.67-17.55,54.31-12.73,64.46,1.14,2.4,7.98,3.61,6.02,9.44-5.36,1.08-10.63-1.36-11.87-6.92-3.31-14.79,6.62-56.68,14.07-70.29,4.1-7.5,13.13-20.7,22.72-16.2l.54,3.68Z"/>
      <path d="M258.13,512.78c-5.97,1.15-8.37-4.37-9.58-9.21-7.48-30.05,24.49-64.98,48.37-33.85-1.89,2.7-1.82,1.1-3.18.81-10.15-2.1-14.16-9.4-26.25-3.56-8.15,3.94-13.92,19.88-14.09,28.35-.13,6.48,4.96,11.14,4.72,17.45Z"/>
      <path d="M418.44,751.34l-10.68-55.45c-.87-4.22,2.88-5.01,5.42-1.7,4.99,6.5,4.86,21.57,6.54,29.83,1.27,6.25,8.03,22.42,4.6,27.11-1.69,2.22-3.83,1.56-5.89.21Z"/>
      <path d="M330.51,444.05c3.95,3.68,7.79,14.64.68,17.51-27.07,10.9-16.94-32.66-.68-17.51Z"/>
      <path d="M430.01,442.76c8.61-2.24,27.35,7.09,16.69,15.48-5.46,4.29-19.29,2.38-21.78-4.92-1.74-5.1-.34-9.14,5.09-10.56Z"/>
      <path d="M487.28,481.24c-1.68.47-13.25,6.52-10.9,8.5,10.49-.76,23.34,10.67,16.22,20.47l-4.09.15c1.21-5.72-.82-10.22-6.1-12.74-4.76-2.27-17.85,5.49-15.47-7.64,5.13-2.33,6.19-7.02,11.46-9.73,2.96-1.52,9.26-4.25,8.89.99Z"/>
      <path d="M490.92,398.82c.21,4.32-.27,12.15,1.27,16.02.79,2,8.61,6.14,7.22,10.64-1.58,1.57-10.91-5.05-12.15-6.63-3.73-4.76-4.3-19.04,3.66-20.03Z"/>
      <path d="M426.67,418.17c-6.39,1.07-10.03,7.48-16.97,6.09-1.28-1.13,6.84-15,9.31-15.64,5.55-.15,6.31,5.58,7.66,9.55Z"/>
      <path d="M673.72,634.31c2.99,2.97,2.88,12.26-4.95,10.71-2.24-2.81-6.46-7.38-3.93-11.07,1.33-1.95,7.83-.69,8.88.36Z"/>
      <path d="M322.41,410.94c6.29-3.24,16.04,11.71,10.28,13.33-3.68,1.03-12.3-11.29-10.28-13.33Z"/>
      <path d="M674.31,670.1c-2.72-2.28-.71-12.06,5.76-8.81s-.61,13.14-5.76,8.81Z"/>
      <path d="M649.92,646.32c7.71-5.02,14.48,6.68,5.3,7.21-5.48.32-6.19-2.06-5.3-7.21Z"/>
      <path d="M586.83,351.66c5.52-3.49,10.17,8.52,3.96,9.5-3.65.57-7.04-7.56-3.96-9.5Z"/>
      <path d="M684.46,645.03c5.11-1.64,8.82,5.42,5.37,7.86-5.18,3.66-10.63-6.17-5.37-7.86Z"/>
      <path d="M615.33,351.64c1.53-.5,3.73-.42,4.73,1.1l.66,6.71c-7.28,4.26-9.93-6.32-5.4-7.81Z"/>
      <path d="M372.11,465.5l-6.75-1.13-.52-7.36c6.14-.77,8.01,2.89,7.27,8.49Z"/>
      <path d="M656.66,350.45c5.49-1.36,6.38,6.98,2.03,8.28-4.83,1.44-7.59-6.9-2.03-8.28Z"/>
      <path d="M660.19,660.81c6.27-1.96,6.77,6.22,3.47,7.16-4.05,1.15-7.85-5.79-3.47-7.16Z"/>
    </g>
  </g>
</svg>