<?xml version="1.0" encoding="UTF-8"?>
<svg id="Layer_1" data-name="Layer 1" xmlns="http://www.w3.org/2000/svg" viewBox="0 0 807 1082">
  <defs>
    <style>
      .cls-1 {
        stroke: #42210b;
        stroke-miterlimit: 10;
      }
    </style>
  </defs>
  <path class="cls-1" d="M217.68,533.53c-1.52,1.65,4.8,3.79,5.78,4.5,9.49,6.84,4.41,8.46,4.06,18.75l21.73,1.99c17.01,9.07,29.91,14.87,39.86,32.63,9.06,16.17,13.98,54.15,15.36,73.24.17,2.42.85,14.76-2.22,14.73-1.82-1.63-2.51-4.57-2.9-6.92-5.2-31.56-1.26-70.81-27.06-94.66-16.14-14.92-61.04-20.28-82.77-21.05-12.32-.44-28.05.28-40.3,1.84-16.33,2.07-12.43,15.72-11.19,28.17,2.22,22.18,6.27,44.71,11.43,66.41.26,1.11,1.6,2.22,1.74,3.53.29,2.65-2.85,8.26-2.06,11.11,1.8,6.53,26.91,14.89,33.42,16.72,22.02,6.17,45.6,10.96,68,14.34,10.44,1.57,25.33,4.7,35.47,3.69,13.24-1.32,34.72-13.77,47.38-19.74,7.07-3.34,14.84-5.25,21.19-10.14-.7-4.07-4.34-1.23-6.63-1.4-8.81-.67-21.69-8.22-25.98-16.1-8.26-15.18,4.92-29.25,18.94-33.75,7.59-2.43,16.26-1.84,23.8-.91,6.91,7.51,16.83,16.79,15.83,27.99-.43,4.86-4.94,10.13-4.49,15.66.33.32,7.03.58,8.34,1.07,1.63.61,1.99,3.41,4.43,4.52,4.7,2.16,15.77,5.37,21.06,6.68,1.66.41,11.11,2.65,11.82,2.04l-.52-5.42,5.89-.84c-2.56-7.54-3.43-16.65-7.13-23.74-2.2-4.22-18.28-18.45-22.91-19.15-2.79-.42-5.73.54-8.47-.48l-.87-2.7,1.48-1.21c5.74-.83,12.06.11,16.87,3.43,1.6,1.11,3.56,4.33,4.94,4.96,3.42,1.53,6.14-2.83,11.2,3.97.78,1.05,8.13,15.29,8.52,16.54,2.36,7.63-2.66,19.68,10.02,16.39,1.58-.41,3.47-2.37,5.98-2.97,9.99-2.39,27.62-4.42,31.79-16.54.75-2.19.75-12.56,5.01-9.41l.7,1.09c3.31,10.44-9.58,22.03-18.01,25.56-9.09,3.79-23.99,4.35-32.2,8.08-2.34,1.06-2.56,3.6-4.81,5.04-7.51,4.82-22.86-.18-30.95-2.82-4.41-1.44-20.29-9.33-23.27-8.53-.91.24-1.77,1.7-2.81,1.54l-4.43-3.35c-5.58.92-6.07,6.15-9.1,8.82-5.24,4.63-50.54,24.76-59.55,28.16-19.43,7.34-63.12-2.25-84.3-6.97-14.15-3.15-56.48-12.94-65.99-21.72-7.17-6.62-2.62-9.89-3.03-15.94-.64-9.47-5.82-24.95-7.51-35.28-2.15-13.22-4.8-30.41-5.62-43.6-.65-10.51-2.12-18.67,6.73-25.47,6.04-4.64,13.3-2.31,20.6-2.67,18.02-.9,35.55-1.57,53.65-.03,2.92.25,5.56,1.72,8.51,1.79l1.4-10.74c-5.54-3.2-13.61-6.72-14.71-13.69.85-3.44,12.3-2.24,16.86-3.79,2.85-.97,6.59-4.42,7.79-4.76,6.07-1.67-.14,6.04-2.97,7.79-3.02,1.87-12.39,3.23-12.85,3.72ZM349.95,625.08c-16.95,1.43-35.1,18.54-17.73,33.3,6.37,5.41,11.99,6.2,20.15,6.2,5.92,0,14.76.3,18.37-5.29.38-.6,4.1-8.69,4.23-9.23,1.8-7.45-7.39-19.03-13.27-22.95-4.35-2.91-6.78-2.45-11.76-2.03Z"/>
  <path class="cls-1" d="M695.34,500.13c-2.88,2.28-9.48,1.01-12.25-1.09-1.83-1.39-2.32-4.13-4.71-5.13-1.94-.81-10.86-3.66-12.99-4.01-4.33-.73-14.6-2.03-18.08.25-2.84,1.86-7.09,13.19-10.77,16.97-1.83,1.88-5.11,2.67-5.82,4.03-.97,1.85-.76,7.05-3.13,8.54-3.69,2.31-11.68-5.04-15.24-2.75-2.96,1.91,2.6,2.79,1.81,5.83-1.78.99-4.45-.26-5.85.8-2.82,2.14-7.38,15.24-8.09,18.92,4.51,2.84,10.18,4.9,14.57,7.86,1.83,1.23,6.16,3.53,5.55,5.83-1.83,6.86-11.33-3.76-13.43-5.11-10.55-6.8-30.85-12.86-43.35-13.11-10.58-.21-13.51,8.67-19.2,15.75l-2.68-.5c-1.64-1.93,10.87-18.6,14.05-19.51,2.19-.63,4.97.29,7.22-.77l17.2-26.73c.77-2.68-5.54.14-5.35-3.54.68-1.85,3.59-1.82,4.23-2.48s2.39-6.92,3.44-8.64c1.53-2.49,4.3-4.27,5.9-7.52,1.49-3.02,1.87-7.12,3.55-9.87,1.77-2.9,5.33-3.71,6.91-6.51,4.63-8.17,4.34-22.81,16.19-25.87,2.75-.71,5.26.01,7.57-.49,4.79-1.04,9.2-3.19,14.4-3.49,16.78-.97,37.58,8.06,50.48,18.41,9.75,7.82,13.7,15.85,13.53,28.51-.05,4.03-2.43,12.87-5.66,15.44ZM685.41,492.7c1.56,1.18,2.36,3.48,5.75,2.79,5.59-3.19,3.54-20.14,1.02-25.23-8.14-16.42-38.43-28.7-56.09-27.12-4.46.4-8.13,2.94-11.69,3.52-5.33.86-7.35-1.6-12.06,3.15-6.38,6.43-4.15,13.3-6.69,19.26-.77,1.82-6.35,5.73-7.98,8.13-2.28,3.34-2.89,7.6-5.13,10.98-.82,1.24-10.02,11.2-8.8,12.23,14.8.64,26.33,10.13,40.26,13.43-1.6-8.29,3.96-7.33,7.55-10.8,3.35-3.23,6.84-10.33,9.08-14.19,6.18-10.63,24.07-1.86,33.79-2.88,4.36-2.3,5.98-15.41,10-16.02,1.29-.2,2.83,2.63,2.84,3.18.02,2.57-8.82,11.88-6.04,16.13.84,1.28,2.92,2.48,4.21,3.45ZM592.56,538.77c.31-5.03,5.03-7.61,6.76-10.69,1.13-2,.97-4.34,1.92-6.14,1.25-2.37,5.61-4.72,5.68-8.47-.61-2.56-14.79-7.76-18.08-6.83l-11.36,13.92,1.77,2.21c-3.24-.77-11.01,9.61-8.95,11.64l22.26,4.37Z"/>
  <path class="cls-1" d="M564.41,421.12c-9.27,8.76-14.73,6.73-24.8,10.55-3.61,1.37-7.47,4.75-11.2,6.25-1.54,2.6,2.53,10.78,2.5,12.83s-2.48,2.67-3.1,4.03c-3.12,6.77,1.52,12.78,1.93,18.44.19,2.66-1.73,6.12.41,9.16,4.53.55,9.21-.29,13.74.13,6.61.61,14.99,2.22,18.15,8.7,1.11,2.28,1.85,11.1,2.03,14.16.14,2.47-.93,4.54-.86,6.97.15,5.3,5.52,12.12-1.42,14.96-2.2-.01-2.8-3.41-3.04-5.06-1.13-7.97,1.91-22.82-2.75-29.47-5.22-7.45-27.81-4.34-35.86-2.71-2.86.58-10.56,4.67-12.08,1.4-1.87-4.02,13.13-6.54,15.58-7.29,1.12-1.74-.65-19.53-2.51-20.97s-6.07,3.13-8.19,4.45c-6.13,3.84-11.63,6.08-19.12,5.93-4.31-.09-6.17-1.11-4.78-5.67,1.54-5.07,6.86-.85,9.16-.74,4.98.23,12.34-3.92,16.14-7.06,3.51-2.9,5.23-6.91,9.5-8.4l.82-1.86c-1.58-2.5-4.3-12.44-2.48-14.56,6.27-3.97,12.45-7.72,19.29-10.7,4.33-1.89,7.53-.12,9.94-6.17,1.55-3.88,1.43-7.54-.11-11.34-.6-1.47-4.31-3.75-1.62-5.6,3.16-2.18,6.37,2.81,7.23,5.36,1.57,4.62.48,7.56-.04,12.12,19.68-8.9.46-27.06-13.88-26.92-2.8.03-25.43,3.97-25.49,5.89,1.83,1.62,6.94,1.97,9.23,1.9,3.09-.1,12.82-3.39,13.49-3.21,3.67.97-.6,6.58-3.51,7.11-16.72,3.08-37.89-7.32-52.28-2.16-12.9,4.62-10.15,27.31-9.94,38.46.11,5.88,3.41,13.39-6.22,13.83-1.04-1,2.66-9.06,2.58-11.22-.06-1.63-1.52-2.87-1.64-4.49-.89-11.65-2.09-27.39,6.21-36.66,3.59-4.01,9.58-5.44,14.74-5.84,3.98-.31,13.87,1.17,16.04.72.98-.2,1.71-1.86,3.02-2.26,16.78-5.02,40.47-12.14,54.85,1.08,9.67,8.89,9.74,17.04.34,25.92Z"/>
  <path class="cls-1" d="M308.07,602.44c5.99,1.15,9.8,5.88,16.09,7.62,12.94,3.58,38.1.83,50.19-5.34,6.44-3.28,5.18-6.01,14.73-4.98,2.39.26,4.4,1.61,6.35,1.76,6.88.54,13.32-7.19,15.32-13.2,3.69-11.08,2.1-35.41-14.32-34.01-3.38.29-13.96,7.73-14.95,3.77.1-2.65,4.1-5.15,6.33-6.13,8.93-3.92,18.44-3.26,24.55,4.82.74.98,5.52,9.08,5.67,9.62.23.85-.6,15.76-.84,17.62-1.62,12.36-12.55,23.97-25.45,23.8-2.31-.03-4.33-1.72-6.11-1.57-6.33.55-15.53,6.54-22.05,8.29-13.38,3.59-35,4.25-47.67-1.59-3.74-1.72-8.94-5.88-7.83-10.51Z"/>
  <path class="cls-1" d="M479.82,457.53c2.1,3.12-4.07,5.99-5.75,7.95-1.47,1.72-9.78,12.67-10.26,13.91-1,2.57,4.81.75,5.36,1.33-.11.81.24,2-.12,2.57-.5.79-14.92,6.3-17.25,7.23l-1.47-2.21c.02-1.33,4.74-4.49,6.27-6.28,5.17-6.06,8.52-14.25,14.35-20.1-17.11,2.42-34.25,4.02-48.78-7.17-10.83-8.34-14.17-22.71-31.25-20.51-10.55,1.36-19.59,7.56-28.26,12.9-1.36.84-2.39.55-1.78-.88.32-.76,11.14-9.85,12.63-10.64,4.82-2.55,18.24-6.16,23.56-5.96,14.96.58,23.61,23.41,38.97,28.23,3.26,1.03,13.95,2.3,17.42,2.26,4.4-.05,24.47-5.44,26.36-2.64Z"/>
  <path class="cls-1" d="M299.11,453.87c2.85,2.67-10.83,11.68-12.81,12.69-7.53,3.85-21.28,7.01-29.63,6.03-4.82-.57-10.07-3.53-14.83-4.4-.94,8.17,4.93,14.59,11.71,18.26,2.83,1.54,8.04,1.05,5.73,5.89-.74,1.56-6.94,7.4-8.55,8.46-5.05,3.34-18.56,7.33-24.59,7.67-1.82.1-3.62.44-4.87-1.34,4.12-6.61,12.43-5.35,18.97-6.96,5.14-1.26,9.7-4.32,13.21-8.26-8.78-4.56-16.72-13.13-17.78-23.36-1.48-14.27,8.52-3.29,16.66-1.46,8.55,1.92,21.37.3,29.36-3.34,2.91-1.33,15.76-11.42,17.41-9.87Z"/>
  <path class="cls-1" d="M531.59,581.17c6.03,6.67-13.25,24.31-13.25,26.19,0,2.61,5.08,2.55,6.29,4.73,3.49,6.28-3.93,11.43-8.64,14.35-9.19,5.7-21.7,9.34-32.54,7.79-4.87-3.1,9.51-4.18,10.8-4.47,6.71-1.49,13.96-3.15,19.58-7.27,1.53-1.12,7.83-6.33,5.44-7.97-16.26-4.4-8.94-5.47-2.71-12.53,4.1-4.64,7.43-10.02,10.75-15.23-.13-2.73-10.07.31-12.07.43-6.11.37-18.78-1.44-24.01-4.6-4.46-2.69-5.64-7.73.24-5.62,8.52,3.06,11.29,5.94,21.98,5.84,3.97-.04,15.77-4.05,18.13-1.64Z"/>
  <path class="cls-1" d="M354.6,475.34c-8.09-.9-11.19-9.3-11.66-16.52-.99-15.07,6.81-27.3,8.97-41.65-5,4.41-10.01,9.94-14.26,15.03-9.46,11.36-21.19,24.73-19.75,40.45-2.78-1.66-3.71-6.41-3.64-9.4.27-11.28,23.5-35.73,31.83-44.31,1.83-1.88,11.41-13.39,12.91-8.35.63,2.12-8.08,23.4-9.31,28.06-2.44,9.29-4.92,20.54.26,29.26,1.89,3.19,5.57,3.08,4.65,7.42Z"/>
  <path class="cls-1" d="M592.54,635.4c-1.22,2.14-14.28,2.4-17.97,3.08-27.1,4.96-53.8,12.41-80.81,17.73-6.39-1.86-2.89-3.79,1.34-5.01,28.28-8.19,58.26-12.51,87.05-18.55,2.61-.55,6.69-4.13,9.18-1.59.76.77,1.76,3.37,1.2,4.35Z"/>
  <path class="cls-1" d="M333.13,512.94c-.11,4.19-3.43,5.62-4.87,8.1-4.99,8.59-10.44,24.6-6.52,34.16,1.95,4.75,8.57,7.03,6.91,13.23-1.01-.04-2.12.18-3.11-.02-1.9-.39-8.99-9.41-10.67-11.71-6.79-9.27-14.33-25.25-12.15-37.03.35-1.89,2.62-4.5,4.03-2.29.13,10.94,1.66,23.16,9.36,31.35.17-9.35,3.01-19.77,7.3-28.06,2.12-4.1,4.11-8.75,9.72-7.73Z"/>
  <path class="cls-1" d="M330.44,375.11c-4.62-.27-8.15,3.33-12.36,4.65l-2.88,18.02c.15,1.51,8.67,2.97,1.51,10.14-6.31,6.32-14.12.68-5.07-3.3-3.25-4.9-.45-7.43.34-12.39.71-4.41,1.11-8.84,1.12-13.32.44-1.11,17.18-10.19,20.02-8.78,3.54,2.17.71,15.36,2.18,19.35l6.77.83c1.8,6.92-9.03,15.22-14.84,10.82-3.08-2.34-.05-6.37,3.2-4.55v-21.48Z"/>
  <path class="cls-1" d="M163.09,665.06l1.3-3.34c13.34,1.11,25.86,5.79,38.79,8.47,21.54,4.45,45.46,7.05,66.43,13.23,3.1.91,13.64,3.61,12.52,8.05-1.03,1.15-1.07,1.63-2.68.92-3.88-1.72-6.27-3.67-10.96-5.17-6.05-1.93-13.19-3.28-19.47-4.7-28.5-6.43-57.62-10.08-85.92-17.46Z"/>
  <path class="cls-1" d="M520.17,503.99c2.05,2.4-7.44,14.65-9.46,16.94-1.92,2.17-11.32,9.6-12.01,11.26-.78,1.88,1.15,1.24,2.03,1.14,5.52-.63,12.24-5.57,18.12-.72,3.61,3.7-10.28,16.17-11.66,16.1-3.17-.16.46-7.59,1.58-8.69s4.18-1.33,5.13-3.38l-1.3-2.09c-9.46,1.34-18.66,5.92-28,7.69-3.84.72-10.58,2.3-10.07-3.34,8.81-2.59,17.53-5.54,24.59-11.67,6.51-5.65,11.3-14.4,17.02-20.57,1.07-1.16,2.24-2.9,4.03-2.67Z"/>
  <path class="cls-1" d="M624.22,570.05c.43.49,2.26-.49,1.57,1.95-1.17-.08-2.18.13-3.1.91-3.05,2.61-7.34,20.09-9.02,25.02-1.64,4.79-6.81,14.66-7.44,18.6-.28,1.72.98,4.16.69,4.58s-2.77.79-3.89,2.87c-1.54,2.85-.58,11.57-6.22,9.71-5.25-1.72,3.75-14.45,4.98-17.23,6.56-14.82,10.62-30.37,16.22-45.54,1.89-5.13,5.46-9.82,5.54-15.94.99-1.39,1.5-.56,2.15.55,3.09,5.25-3.15,12.61-1.47,14.51Z"/>
  <path class="cls-1" d="M463.8,618.55c1.17,2.3-2.04,1.55-1.79,2.23,2.42,3.49,17.22,10.98,16.11,15.2-.29,1.08-1.73,1.5-2.94,1.19-3.2-.81-18.05-14.52-22.59-17.71-5.06-3.54-12.86-8.56-18.33-11.2-4.39-2.12-11.09-3.47-14.94-5.64-2.88-1.62-2.23-3.95.3-4.45,2.01-.4,14.7,5.13,17.38,6.46,9,4.48,16.88,12.55,26.82,13.91Z"/>
  <path class="cls-1" d="M498,432.58c-.74.74-.5,4.48-2.88,5.62-7.6,3.64-10.4-5.32-8.55-11.23,2.67-3.06,6.5,2,7.97,1.75,4.57-6.92,12.93-4.85,15.98-12.69,1.01-2.59,1.33-5.93,1.6-8.7,7.41-.72,3.42,10.6,1.27,14.26-1.18,2-8.18,8.11-10.29,9.4-1.51.92-4.58,1.08-5.11,1.61Z"/>
  <path class="cls-1" d="M361.76,579.16c-4,.14-5.38-2.58-9.23-.17-1.91-2.92-17.58-5.6-14.92-9.66,7.71-2.4,23.65-.02,24.16,9.83Z"/>
  <path class="cls-1" d="M453.95,514.71c-.34-2.03.19-1.75,1.76-2.22,4.15-1.24,8.76-.83,12.76-1.6,3.61-.69,15.22-4.57,17.22-4.27,1.04.15,1.79.46,2.22,1.48.53,1.8-2.5,6.11-4.17,6.53-1.72.42-2.95-1.68-5.13-1.76-5.32-.18-13.99,2.71-19.74,2.74-1.67.01-3.24-.97-4.92-.91Z"/>
  <path class="cls-1" d="M268.69,549.63c-4.53,1.25-4.05-1.37-5.99-2.53-5.59-3.35-6.06,5.18-8.31,6.58-1.97,1.23-4.08.57-4.51-1.83-2.16-11.85,19.78-15.07,18.81-2.22Z"/>
  <path class="cls-1" d="M277.79,559.61c3.38-3.37,14.51-.34,13.13,4.59-1.83,6.55-15.66,3.3-13.13-4.59Z"/>
  <path class="cls-1" d="M487.07,450.28c3.36-3.53,8.65,13.45,2.24,13.47-3.87,0-2.52-11.07-2.24-13.47Z"/>
  <path class="cls-1" d="M485.27,431.5c-2.16,3.74,1.27,11-3.12,12.52-3.42-.71-4.17-15.88,3.12-12.52Z"/>
  <path class="cls-1" d="M503.94,447.73l1.02,7.93c-5.35.91-5.62-3.99-4.38-7.96l3.36.03Z"/>
  <path class="cls-1" d="M172.93,658.81h-15.66c-.18,0-3.49-.83-3.13-1.78,4.94.87,10.98-.32,15.65-.07,1.37.07,2.8.26,3.14,1.85Z"/>
  <path class="cls-1" d="M312.24,573.02c3.95-1.02,3.76,5.5,1.61,6.13-3.5,1.03-5.82-5.04-1.61-6.13Z"/>
  <path class="cls-1" d="M185.45,660.6l-11.61-2.24c.09-2.8,14.26-.23,11.61,2.24Z"/>
  <path class="cls-1" d="M637.43,445.81c13.7-.71,6.93,20.38,2.49,27.1-2,3.02-7.46,6.63-8.68,1.22,5.11-6.58,12.17-14.22,8.63-23.17-.7-1.78-3.07-2.6-2.44-5.15Z"/>
  <path class="cls-1" d="M631.15,485.18c-6.83.9-6.74-7.53-7.15-12.52,6.35-1.17,6.65,7.94,7.15,12.52Z"/>
  <path class="cls-1" d="M613.17,473.69c-.92,1.85-.03,9.44-3.03,8.81-1.92-.4-6.44-10.84-.92-10.74l3.96,1.93Z"/>
  <path class="cls-1" d="M600.49,491.26c-.1.25-3.69,3.57-3.94,3.65-1.63.51-2.9.19-3.88-1.24-.13-6.24,10.7-9.26,7.82-2.4Z"/>
  <path class="cls-1" d="M611.39,492.43c.67,3.35-.49,6.62-4.39,6.18-1.18-2.87-.55-4.71,1.76-6.75l2.64.57Z"/>
</svg>