<?xml version="1.0" encoding="UTF-8"?>
<svg id="Layer_2" data-name="Layer 2" xmlns="http://www.w3.org/2000/svg" viewBox="0 0 609.85 634.78">
  <defs>
    <style>
      .cls-1 {
        fill: #0049d1;
      }
    </style>
  </defs>
  <g id="Layer_1-2" data-name="Layer 1">
    <g id="eO5aoz">
      <g>
        <path class="cls-1" d="M290.86,246.04c3.98,2.86,20.42-12.01,24.96-12.9,5.39-1.06,7.5,8.64,1.57,11.2-3.02,1.3-6.26.08-9.63,1.28-1.93.68-13.34,8.62-14.02,10.3,1.46,7.84.66,24.14-4.91,30.24-1.11,1.21-2.88.97-3.72,1.69-1.42,1.22-1.48,2.56-3.96,3.91-10.15,5.53-23.82-.2-35.11,1.88-3.22,9.14-6.79,18.06-12.1,26.17-.4,2.61,16.15,12.03,18.92,18.22,3.34,7.48,6.96,32.64,6.21,40.79-3.97,42.77-32.89,58.09-73.24,60.15-26.69,1.36-57.07-19.54-52.44-48.8,2.39-15.1,31.53-72.33,42.16-83.95,6.18-6.76,14.93-13.51,24.6-11.27,3.31.77,5.77,5.59,8.17,4.03s13.69-32.2,16.95-37.63c12.56-20.92,50.44-48.23,65.61-15.3ZM241.42,251.45c-13.29,12.15-23.72,42.43-32.25,59.3-5.65,11.18-7.01,11.33-10.86,24.31-1.16,3.93-7.77,5.29-2.85,11.85,4.34,5.78,9.34,6.08,14.03.55,6.2-7.32,28.91-46.29,29.99-54.91.92-7.38-4.07-11.12-.27-16.05,5.89,1.71,7.9,6.98,13.93,9.09,12.43,4.35,27.58,2.74,33.35-10.28,2.37-5.34,1.28-19.21-1.27-24.22-1.89-3.72-4.5-.96-6.59-1.84-2.38-1-6.03-7.34-8.56-8.47-1.22-.54-8.98-1.9-10.03-1.65-5.41,4.36-13.59,7.73-18.63,12.34ZM204.59,303.23c-12.16-3.49-17.48-1.11-24.72,8.54-10.92,14.56-38.83,64.86-39.26,81.75-.74,28.39,25.75,39.02,50.07,38.19,23.9-.82,50.78-8.76,58.24-33.91,1.96-6.6,4.61-24.43,4.18-30.89-.12-1.84-5.15-22.61-5.95-24.39-3.58-7.99-12.32-9.43-19.91-11.54-1.99,3.37-14.24,20.29-11.69,23.13,4.17-1.35,6.11-3.93,10.73-1.02,1,10.76-3.41,20.94-9.52,29.53-7.68,10.81-37.25,40.86-47.55,19.66-4.64-9.56-.27-24.1,3.31-33.59,2.24-5.93,11.19-20.11,11.01-24.89s-8.83-12.63-6.77-18.78c6.64-1.44,5.17,4.04,9.09,7.25,6.78-9.08,17.41-17.31,18.75-29.03ZM178.2,401.13c4.35,2.47,15.47-4.65,19.16-7.59,4.72-3.76,24.29-23.98,20.09-29.81-3.56-2.13-7.54-.63-11.65-1.7-4.32-1.11-15.46-12.11-18.08-10.29-.85,5.92-5.35,9.88-7.57,14.87-2.81,6.32-9.02,30.5-1.94,34.52Z"/>
        <path class="cls-1" d="M288.91,574.81c21.73,2.42,78.25,21.27,99.08,30.67,7.4,3.34,18.88,12.87,26.72,11.54,3.21-.54,12.4-5.44,15.87-7.26,21.05-11.02,41.66-26.19,62.81-37.84,19.86-10.93,41.04-20.36,60.78-30.17,2.12-1.05,14.88-7.56,15.32-8.32,2.5-4.29-8.23-9.67-11.66-10.48-5.06-1.21-19.46-1.61-25.16-1.59-6.77.02-19.99,5.53-20.03-4.74,9.61-1.04,19.53-2.25,29.1-.02l-1.07-5.35c.76-1.96,2.37-1.79,4.05-1.98,17.22-1.92,55.1,6.09,53.84,29l-7.09,2.6,3.62,2.4c-6.25-.63-11.15.52-16.62,3.4-33.48,17.63-69.33,46.9-101.82,67.95-1.95,1.26-4.15,2.28-6.46,2.66-.85,3.03.96,1.94,1.63,2.42,2.9,2.1-7.5,2.83-8.69,3.23-2.75.93-16.06,6.37-17.69,7.55-1.36.98-.04,3.46-1.4,3.84-10.12,2.01-18-3-26.94-4.6-19.47-3.49-23.84-3.23-42.43-10.93-11.56-4.79-30.03-4.28-42.98-6.74-8.81-1.68-17.33-5.47-25.95-6.8-22.43-3.45-40.62-.86-63.32-9.44-4.6-1.74-7.48-3.45-8.42-8.56-1.08-5.87-1.65-17.04-1.21-23.02.13-1.8.82-2.89,2.73-2.76,7.54,8.21-2.52,23.99,10.33,28.48,23.4,8.18,44.93,5.9,68.14,10.68,6.11,1.26,12.82,4.17,18.89,5.37,12.04,2.37,25.25,1.81,36.95,4.28,10.58,2.23,20.42,9.76,31.22,10.6-4.01-4.54-10.69-7.34-16.16-9.9-22.43-10.51-65.95-24.06-90.26-28.58-7.24-1.35-19.91-.28-24.91-1.77-4-1.2-4.33-5.81-.25-5.81,6.04,0,13.64-.64,19.4,0ZM445.04,621.22c1.44-.81,6.9-1.12,10.22-2.54,28.99-12.36,64.21-41.04,91.48-58.89,11.2-7.33,28.71-15.67,38.59-23.26,11.87-9.12-9.15-16.45-16.9-17.49,3.65,5.84,13.2,9.66,9.43,17.89-23.01,11.19-46.7,21.12-69.26,33.23s-45.43,28.04-68.29,42.06c-1.69,1.04-20.52,8.79-17.39,12.31,7.27,1.21,12.81,3.32,19.82-.23,1.5-.76,1.72-2.74,2.31-3.07Z"/>
        <path class="cls-1" d="M525.5,397.31c-.38.95-2.98,5.81-3.89,7.6-2.89,5.65-21.13,32.78-20.73,35.94,18.77,19.66,21.19,40.07,2.69,61.22-11.47,13.11-21.21,14.82-38.24,16.33-6.21,7.89-9.91,23.52-21.8,22.46,1.98,4.51,3.17,7.57,2.49,12.78-.98,7.5-34.91,13.37-41.97,12.74-9.6-.86-13.39-7.71-17-15.64-4.8,1.45-10.3,1.11-14.98,2.96-5.76,2.28-15.58,16.39-20.83,9.72l-1.26-8.43c-5.93-7.7-24.29,8.07-28.4,1.68-1.65-2.57,2.63-7.25,3.91-9.78l27.08-1.17c-2.27-5.77-2.19-14.08,6.05-10.28,4.15,1.91,11.35,16.68,14.53,4.83,2.69-.89,5.73-9.89,7.91-9.09,7.87,2.9-2.34,11.65-.59,13.32,3.29-.85,7.33,1.04,10.15.83,4.52-.33,13.8-7.9,19.84-9.03,6.6-1.23,22.59,1.9,26.32-2.78,2.13-2.68,5.84-19.18,8.56-19.31,5.16,2.54-3.29,16.89-1.81,18.16,8.73,1.07,9.51-10.61,14.55-15.74-4.91-1.15-10.44-2.4-14.6-5.42-14.66-10.61-13.27-45.87-3.39-59.27,7.05-9.56,23.6-11.84,34.35-15.37l32.18-57.68,1.53-.32c3.84,3.6,8.55,1.68,13.3,2.52,9.94,1.76,6.78,9.41,4.05,16.24ZM521.13,388.07c-4.69,1.35-11.41-2.89-14.6.54-4.51,4.84-14.92,25.61-18.33,32.61-1.07,2.2-6.84,13.94-5.85,15.33,4.08.38,10.55,4.05,13.9,1.22,2.66-2.25,15.07-24.31,17.26-28.83,1.33-2.74,8.76-19.79,7.62-20.87ZM470.2,445.06c-9.67,1.68-17.8,3.49-24.21,11.55-9.5,11.93-10.89,44.2,5.19,51.73,24.68,11.57,60.83-7.42,59.02-35.98-.36-5.71-6.44-23.18-12.74-23.67-1.59-.12-3.55,1.27-4.73,1.02-1.51-.32-8.17-13.34-15.95-4.75-2.1,1.28-3.1,10.76-5.95,9.78s.33-7.5-.63-9.68ZM430.19,545.7l-1.2-2.41-.65,3.64c-9.45-1.53-16.37-2.22-25.61,1.02-15.93,5.57-.76,12.42,9.71,11.89,3.53-.18,25.28-5.2,26.12-7.63,1.55-4.5-4.55-13.49-5.97-6.55l-2.39.04Z"/>
        <path class="cls-1" d="M339.94,346.15c10.95,11.72,21.5,19.18,32.68,29.76,17.13,16.19,32.13,35.72,53.08,47.57,2.62,1.48,6.99.81,8.7,4.63,3.31,7.44-6.24,24.03-9.63,31.55-2.84,6.3-7.21,13.22-9.37,18.53-2.42,5.98-2.33,11.9-7.67,16.59-8.53,1.79,3.14-22.41,4.27-24.59.78-1.5,4.27-4.12,5.9-7.7,2.95-6.48,5.08-14.23,8.4-20.78.95-12.65-11.7-17.58-19.74-24.57-4.6-3.99-21.46-20.85-24.91-22.38-2.73-1.22-7.57-.09-8.35-.76-.47-.4-2.54-10-4.98-11.39-14.71-13.91-29.89-27.59-43.69-42.41-2.37-2.54-11.52-16.52-14.51-13.98-.18,5.73-4.02,9.86-6.14,15.1-2.89,7.17.71,13.53-10.93,11.05-4.19-.89-24.82-9.53-26.65-12.45s-1.39-7.4,2.87-6.23c1.13.31,4.64,3.7,7.26,4.89,2.34,1.06,16.53,6.53,17.64,5.74,2.18-5.41,6.55-9.32,9.32-14.39,1.99-3.63,1.53-7.72,5.31-10.54l-5.85-7.36c.87-9.9,14.31-3.67,22.29-4.02,17.84-.76,31.81-8.98,46.75-17.59l-.04-9.07,6.02,1.21,3.05-5.99,3.12,1.95-1.14,11.16c19.73,9.47,51.01.37,60.7-19.63,3.91-8.06,4.52-21.58,3.32-30.43-2.68-19.67-32.77-31.04-49.88-25.84-3.52,1.07-14.03,8.32-14.86,8.15-6.62-1.29,5.06-10.08,7-11.17,18.32-10.23,55.25.38,61.76,21.2,11.32,36.21-15.06,67.34-51.87,67.62-7.05.05-17.64-4.5-22.89-3.63-8.13,1.36-23.22,13.4-33.47,16.28-6.27,1.76-11.38,1.19-17.24,2.17-2.51.42-9.6,1.83-7.63,5.72,3.89,7.69,15.78,19.41,21.96,26.02Z"/>
        <path class="cls-1" d="M529.62,202.52c14.17-.92,20.44,2.85,13.56,16.61-1.95,3.9-16.52,23.69-20.83,19.78,1.77-7.67,9.95-11.39,14.12-18.01,13.52-21.47-13.94-5.31-21.38-14.12.01-1.32,14.13-11.74,16.38-13.91,1.02-.98,6.77-6.13,5.42-7.3-19.11,3.21-40.46,8.55-57.39-3.85-19.11-14-34.31-64.1-48.31-85.09-6.68-10.01-30.6-27.14-42.87-26.38-4.08.25-5.21,4.46-8.26,3.65-2.47-.66-2.72-4.5-4.09-4.82-2.75-.63-20.58,5.49-15.57-2.41,1.32-2.08,13.08-4.74,15.89-4.83,12.58-.42,37.94,10.77,47.85,18.82,28.94,23.53,36.3,99.1,77.14,103.54,16.06,1.75,34.57-4.81,50.05-8.97,2.69-.19,5.65,1.61,4.83,4.65-1.36,5.07-23.59,15.97-26.53,22.65Z"/>
        <path class="cls-1" d="M30.01,403.83c-.14-.09-.19-2.01-1.17-3.01-3-3.07-6.11-6.04-9.13-9.09-4.91,2.92.92,19.07-.61,20.59l-6.69-1.19c-2.57-5.03-2.76-24.82,2.7-26.46,11.34-3.4,14.04,9.74,22.14,11.42,6.78,1.4,13.73-5.38,18.8,1.71,5.57,7.78-5.32,13.14-5.5,19.94-.2,7.44,8.71,15.91,5.97,24.13-2.02,6.06-19.27-2.94-23.26-1.5s-6.75,12.77-14.81,11.53c-5.31-.82-4.57-13.96-3.5-17.78-20.09-3.14-19.9-15.7.52-16.94-3.33,8.18,7.08,10.72,8.02,14.49s-3.95,8.23-.13,9.76c.71.28,2.7-7.95,11.19-9.42,6.95-1.2,7.8,1.55,13.66,3.35-.35-7.32-6.54-14.74-4.56-22.13.82-3.06,5.41-5.47,4.56-9.39h-18.19Z"/>
        <path class="cls-1" d="M110.06,505.69c1.81-.24,2-5.23,2.24-6.83,2.75-17.77,3.62-37.75,8.01-55.05.53-2.07,4.12-15.74,7.92-12.08-3.25,12.27-6.29,24.56-8.33,37.14-4.85,29.97-11.86,88.57-8.18,117.27.54,4.23,5.68,17.16,5.44,18.14-.88,3.51-6.83,7.14-10.11,3.23-3.52-4.19.33-10.43.57-15.12.45-8.78-1.33-17.49-1.17-25.42.27-12.57,2.93-25.15,3.59-37.64.13-2.46.44-14.01-.18-14.96-.52-.81-5.54-.77-6.48-4.89-.5-2.18,1.64-6.38,1.81-9.26,2.35-39.78,13.41-97.55,29.82-133.88,1.65-3.66,4.86-9.41,7.77-12.23-8.97,25.4-18.07,50.85-23.88,77.36-5.28,24.06-8.96,49.53-8.83,74.22Z"/>
        <path class="cls-1" d="M414.42,47.31c-5.03-3.02-21.27-3.64-23.68-8.48-3.92-7.9,15.19-15.01,21.27-10.23,11.14-18.87,19.02-39.96,27.96-4.36,4.98-.61,26.24-5.78,27.52.77.72,8.42-8.49,12.75-9.19,20.79-.37,4.22,7.12,12.45.98,15.53-2.64,1.33-8.97-5.27-13.91-5.34-9.98-.14-20.14,13.19-30.95,8.29v-16.98ZM459.28,27.91c-6.02-1.72-21.63,6.27-24.83-.03-1.14-2.24-2.59-15.64-7.28-14.53-2.5.59-8.02,14.9-8.35,18.26-4.29,1.69-8.56,1.22-13.14,2.75-1.24.41-4.42.48-3.38,2.62,1.28,2.62,19.88,2.08,20.59,9.69l-2.41,10.33c1.18,1.19,10.63-2.82,12.56-3.8s3.24-3.82,5.27-4.44c4.27-1.31,8.31,1.18,12.48.98-1.78-3.92,9.88-20.58,8.49-21.83Z"/>
        <path class="cls-1" d="M433.83,515.39c-7.58,2.26-14.29.06-21.18-.04-10.28-.16-20.47.89-30.53,1.09-7.08.14-19.11-3.35-25.4,1.33-2.85,2.12-6.05,6.57-8.59,9.57-14.33-.61-27.4,7.57-40.14,12-7.14,2.49-19.72,3.97-26.2,7.53-1.49.82-.03,3.22-1.53,3.74-2.2.77-7.25.54-10.41,1.52-5.55,1.71-23.84,11.69-22.2.89,1.79,1.05,3.89.21,5.69-.36,12.12-3.81,24.57-9.92,36.74-14.25,14.01-4.99,38.73-10.38,50.65-17.26,4.23-2.44,16.52-14.83,19.88-15.17,23.45,7.16,49.03.62,72.66,4.48l.54,4.92Z"/>
        <path class="cls-1" d="M100.34,310.45c-5.48,1.23-5.83-6.21-6.1-10.26-.67-9.84,1.95-18.16,4.88-27.33-25.25,11.11-49.88,1.06-54.4-27.03,3.48-7.05,10.73-1.45,15.14-1.26,15.69.68,32.19-3.98,47.18-8.06l15.11-7.31c-2.96,12.65-20.53,15-31.28,17.82-4.73,1.24-9.62,4-15.4,4h-21.22c1.59,16.1,17.87,23.14,32.81,20.08,8.48-1.74,13.82-9.71,21.75-10.37.31,2.45-.21,4.7-.82,7.05-.86,3.3-7.66,17.94-7.66,19.02v23.65Z"/>
        <path class="cls-1" d="M228.45,177.86c-9.16,14.6-33.56,22.63-49.86,17.46-4.75-1.5-15.62-7.11-8.4-12,6.46,2.2,12.25.97,17.58-3.15,3.21-2.48,1.51-6.16,9.6-4.32,3.34,3.37-8.85,11.59-12.13,12.14-2.84,4.25,17.68,1.38,19.68.87,29.44-7.5,26.76-46.74,32.82-70.25,2.83-10.98,5.16-17.33,14.18-24.62,4.09-3.3,15.09-11.17,18.44-3.85,2.35,4.28-4.33,2.76-6.62,3.55-29.44,10.11-21.3,61.88-35.29,84.18Z"/>
        <path class="cls-1" d="M417.7,188.81c1.19-.7,2.12-6.13,7.13-2.15,9.35,7.45-10.58,9.62-14.66,9.79-32.01,1.32-46.02-24.54-49.09-52.75-1.13-10.37.57-34.65-3.35-42.73-5.22-10.77-18.67,6.71-22.69,5.83-7.35-1.61,1.58-8.77,5.13-10.65,20.2-10.73,24.25-4.4,25.73,16.06,1.86,25.76-2.82,43.14,13.51,66.53,6.7,9.59,27.79,16.28,38.3,10.07Z"/>
        <path class="cls-1" d="M155.39,29.58c-5.51,5.87-15.14,20.05-3.6,25.1,7.29,3.19,21.02.42,19.59-9.24-.41-2.81-6.24-6.09-8.66-3.01-1.65,2.3,2.7,6.38-1.15,8.52-3.74,1.07-8.27-7.48-6.99-10.57,5.67-9.31,20.13-7.81,23.35,2.82,6.58,21.72-42.37,29.6-37.48-2.48.96-6.29,15.79-23.56,21.42-24.73,3.49-.72,9.84.73,8.8,5.23-.36,1.56-6.93,1.32-9.37,2.77-1.44.85-4.54,4.13-5.91,5.59Z"/>
        <path class="cls-1" d="M307.7,55.81c.08,4.33-3.22,3.69-6.33,3.34-13.9-1.56-29.43-20.09-31.86-33.67-2.13,3.24-3.68,9.08-4.12,12.85-.92,7.86-1.61,21.37,3.48,27.79,2.44,3.07,11.53,5.73,10.94,8.44-.93,4.24-8.73.19-10.82-1.28-14.04-9.89-7.81-40.73-4.56-55.32.41-1.83,5.44-26.7,9.13-14.73,1.1,3.56-.25,9.91.32,14.23,2.49,18.82,15.1,33.72,33.82,38.34Z"/>
        <path class="cls-1" d="M142.78,175.85c-2.17.08-2.57.62-2.42-1.8.74-12.15,7.26-27.6,12.13-38.82,10.98-25.28,36.29-71.41,67.32-73.34,4.3-.27,14.52.98,17,4.79,4.04,6.22-11.48,1.2-13.39,1.16-11.81-.26-26.04,8.91-33.96,17.05-22.82,23.45-40.64,59.07-46.68,90.97Z"/>
        <path class="cls-1" d="M497.49,266.82c5.84,16.32,34.05,3.9,37.91,22.68s-18.1,29.23-31.65,36.91c-4.46,2.53-14.47,13.31-13.62-.29,8.48-2.57,17.61-7.52,24.84-12.75,7.53-5.45,18.79-13.62,13.77-24.47-3.37-7.29-14.96-5.65-21.01-6.88-7.19-1.46-18.78-7.67-10.23-15.21Z"/>
        <path class="cls-1" d="M322.26,92.16c-8.29.6-9.35,5.52-13.33,10.33-1.6,1.93-4.05,3.47-5.41,5.5-6.53,9.68-17.55,54.32-12.74,64.47,1.14,2.4,7.98,3.62,6.02,9.44-5.36,1.08-10.63-1.36-11.87-6.92-3.32-14.8,6.62-56.69,14.07-70.3,4.1-7.5,13.13-20.7,22.72-16.21l.54,3.68Z"/>
        <path class="cls-1" d="M176.73,270.43c-5.97,1.15-8.37-4.37-9.58-9.21-7.48-30.06,24.49-64.99,48.38-33.85-1.89,2.7-1.82,1.1-3.18.81-10.15-2.1-14.16-9.4-26.26-3.56-8.16,3.94-13.92,19.88-14.09,28.36-.13,6.48,4.96,11.14,4.72,17.45Z"/>
        <path class="cls-1" d="M337.07,509.04l-10.68-55.46c-.87-4.22,2.88-5.01,5.42-1.7,4.99,6.5,4.86,21.57,6.54,29.84,1.27,6.25,8.03,22.43,4.61,27.11-1.69,2.22-3.83,1.56-5.89.21Z"/>
        <path class="cls-1" d="M249.13,201.69c3.95,3.68,7.79,14.65.68,17.51-27.08,10.9-16.95-32.67-.68-17.51Z"/>
        <path class="cls-1" d="M348.64,200.4c8.61-2.25,27.36,7.09,16.69,15.49-5.46,4.29-19.29,2.38-21.78-4.92-1.74-5.1-.34-9.15,5.09-10.56Z"/>
        <path class="cls-1" d="M405.92,238.88c-1.68.47-13.25,6.52-10.9,8.51,10.5-.76,23.35,10.68,16.22,20.47l-4.09.15c1.21-5.72-.82-10.23-6.1-12.74-4.76-2.27-17.85,5.49-15.47-7.64,5.13-2.33,6.19-7.02,11.46-9.74,2.96-1.52,9.26-4.26,8.89.99Z"/>
        <path class="cls-1" d="M409.56,156.45c.21,4.32-.27,12.15,1.27,16.02.79,2,8.61,6.14,7.22,10.64-1.58,1.57-10.91-5.05-12.15-6.63-3.73-4.76-4.3-19.04,3.66-20.04Z"/>
        <path class="cls-1" d="M345.3,175.81c-6.39,1.07-10.03,7.48-16.98,6.1-1.28-1.13,6.84-15.01,9.31-15.65,5.56-.15,6.31,5.58,7.67,9.55Z"/>
        <path class="cls-1" d="M592.4,391.99c2.99,2.97,2.88,12.26-4.95,10.71-2.24-2.82-6.46-7.38-3.93-11.07,1.33-1.95,7.83-.69,8.88.36Z"/>
        <path class="cls-1" d="M241.02,168.58c6.29-3.24,16.05,11.71,10.28,13.33-3.68,1.03-12.3-11.29-10.28-13.33Z"/>
        <path class="cls-1" d="M592.98,427.78c-2.72-2.28-.71-12.06,5.77-8.81s-.61,13.15-5.77,8.81Z"/>
        <path class="cls-1" d="M568.6,404c7.71-5.02,14.48,6.68,5.3,7.21-5.48.32-6.2-2.06-5.3-7.21Z"/>
        <path class="cls-1" d="M505.49,109.28c5.52-3.49,10.18,8.52,3.97,9.5-3.65.57-7.04-7.56-3.97-9.5Z"/>
        <path class="cls-1" d="M603.14,402.71c5.11-1.64,8.82,5.42,5.38,7.86-5.18,3.66-10.63-6.17-5.38-7.86Z"/>
        <path class="cls-1" d="M533.99,109.26c1.53-.5,3.73-.42,4.73,1.1l.66,6.72c-7.28,4.26-9.93-6.32-5.4-7.81Z"/>
        <path class="cls-1" d="M290.73,223.14l-6.75-1.13-.52-7.36c6.14-.77,8.01,2.89,7.27,8.49Z"/>
        <path class="cls-1" d="M575.34,108.07c5.49-1.36,6.38,6.98,2.03,8.28-4.83,1.44-7.59-6.9-2.03-8.28Z"/>
        <path class="cls-1" d="M578.86,418.49c6.27-1.96,6.77,6.22,3.47,7.16-4.05,1.15-7.85-5.79-3.47-7.16Z"/>
      </g>
    </g>
  </g>
</svg>