<?xml version="1.0" encoding="UTF-8"?>
<svg id="Layer_2" data-name="Layer 2" xmlns="http://www.w3.org/2000/svg" viewBox="0 0 691 403">
  <defs>
    <style>
      .cls-1 {
        fill: blue;
        stroke: #0049d1;
        stroke-miterlimit: 10;
      }
    </style>
  </defs>
  <g id="Layer_1-2" data-name="Layer 1">
    <g>
      <path class="cls-1" d="M104.25,195.25c-1.84,1.96,5.82,4.51,7.01,5.35,11.51,8.14,5.35,10.08,4.93,22.33l26.36,2.37c20.63,10.8,36.28,17.7,48.35,38.86,10.99,19.25,16.96,64.48,18.63,87.22.21,2.88,1.03,17.58-2.7,17.55-2.21-1.94-3.05-5.44-3.52-8.25-6.31-37.58-1.53-84.33-32.82-112.72-19.58-17.77-74.04-24.14-100.4-25.07-14.95-.52-34.03.34-48.89,2.19-19.8,2.46-15.08,18.72-13.57,33.55,2.69,26.41,7.61,53.24,13.87,79.08.32,1.32,1.94,2.64,2.11,4.2.35,3.16-3.46,9.84-2.5,13.23,2.19,7.77,32.63,17.73,40.54,19.91,26.71,7.34,55.31,13.06,82.48,17.07,12.67,1.87,30.73,5.6,43.02,4.4,16.06-1.57,42.12-16.4,57.47-23.51,8.58-3.98,18.01-6.25,25.7-12.08-.85-4.85-5.26-1.46-8.04-1.67-10.68-.8-26.3-9.79-31.51-19.17-10.03-18.07,5.96-34.84,22.97-40.19,9.2-2.9,19.73-2.19,28.87-1.08,8.39,8.95,20.42,20,19.2,33.33-.53,5.78-5.99,12.06-5.44,18.65.39.38,8.53.69,10.11,1.27,1.98.73,2.42,4.06,5.37,5.39,5.7,2.57,19.13,6.4,25.55,7.95,2.02.49,13.47,3.16,14.34,2.43l-.63-6.46,7.14-1.01c-3.11-8.98-4.16-19.82-8.64-28.27-2.66-5.02-22.17-21.97-27.79-22.81-3.38-.5-6.95.64-10.27-.57l-1.05-3.21,1.8-1.44c6.96-.99,14.63.13,20.46,4.08,1.95,1.32,4.32,5.16,5.99,5.9,4.15,1.83,7.45-3.37,13.58,4.72.95,1.25,9.86,18.21,10.33,19.7,2.86,9.08-3.22,23.44,12.16,19.52,1.92-.49,4.21-2.82,7.25-3.53,12.12-2.85,33.5-5.27,38.56-19.69.91-2.61.9-14.96,6.08-11.21l.85,1.29c4.01,12.43-11.62,26.24-21.85,30.43-11.02,4.52-29.09,5.18-39.05,9.62-2.83,1.26-3.11,4.28-5.83,6-9.11,5.74-27.73-.21-37.55-3.36-5.35-1.72-24.61-11.11-28.23-10.15-1.1.29-2.14,2.02-3.41,1.83l-5.37-3.99c-6.77,1.09-7.37,7.33-11.04,10.51-6.36,5.51-61.3,29.48-72.23,33.53-23.56,8.74-76.56-2.68-102.25-8.3-17.17-3.75-68.51-15.41-80.05-25.86-8.7-7.88-3.18-11.78-3.67-18.98-.77-11.28-7.06-29.71-9.1-42.01-2.61-15.75-5.82-36.21-6.82-51.92-.79-12.51-2.58-22.24,8.16-30.33,7.33-5.52,16.13-2.75,24.98-3.18,21.86-1.08,43.12-1.87,65.08-.03,3.54.3,6.74,2.05,10.32,2.13l1.7-12.79c-6.71-3.81-16.5-8-17.84-16.3,1.03-4.1,14.92-2.67,20.45-4.51,3.46-1.15,7.99-5.27,9.45-5.66,7.36-1.99-.17,7.19-3.6,9.27-3.67,2.23-15.03,3.84-15.58,4.43ZM264.69,304.27c-20.56,1.7-42.57,22.08-21.5,39.65,7.73,6.44,14.55,7.39,24.44,7.38,7.18,0,17.9.36,22.28-6.3.47-.71,4.98-10.35,5.13-10.99,2.18-8.87-8.96-22.66-16.09-27.33-5.28-3.46-8.23-2.91-14.26-2.41Z"/>
      <path class="cls-1" d="M683.63,155.48c-3.49,2.72-11.5,1.21-14.86-1.3-2.22-1.65-2.81-4.92-5.71-6.11-2.35-.97-13.18-4.35-15.76-4.78-5.26-.87-17.71-2.42-21.93.3-3.45,2.22-8.6,15.7-13.07,20.21-2.22,2.24-6.19,3.18-7.06,4.8-1.18,2.21-.92,8.4-3.8,10.17-4.47,2.75-14.16-6-18.49-3.27-3.59,2.27,3.15,3.33,2.2,6.94-2.16,1.18-5.4-.32-7.1.95-3.42,2.55-8.95,18.15-9.82,22.53,5.48,3.39,12.35,5.84,17.67,9.37,2.22,1.47,7.47,4.21,6.73,6.94-2.22,8.17-13.74-4.47-16.29-6.08-12.8-8.1-37.42-15.32-52.58-15.61-12.84-.25-16.38,10.33-23.28,18.75l-3.26-.59c-1.99-2.29,13.19-22.15,17.04-23.23,2.65-.75,6.02.35,8.75-.92l20.86-31.83c.94-3.19-6.72.16-6.49-4.22.83-2.2,4.35-2.17,5.13-2.96s2.9-8.25,4.18-10.29c1.85-2.96,5.21-5.08,7.16-8.96,1.81-3.59,2.27-8.48,4.31-11.76,2.14-3.45,6.46-4.42,8.39-7.75,5.62-9.73,5.27-27.16,19.64-30.81,3.34-.85,6.38.02,9.18-.58,5.81-1.24,11.16-3.8,17.47-4.16,20.36-1.15,45.58,9.59,61.23,21.92,11.83,9.32,16.61,18.88,16.41,33.96-.06,4.8-2.95,15.33-6.86,18.38ZM671.59,146.63c1.89,1.4,2.86,4.14,6.97,3.32,6.78-3.8,4.29-23.98,1.23-30.04-9.87-19.55-46.62-34.18-68.04-32.3-5.41.47-9.86,3.5-14.18,4.19-6.46,1.02-8.91-1.91-14.63,3.75-7.73,7.66-5.04,15.84-8.12,22.94-.94,2.16-7.7,6.82-9.68,9.68-2.76,3.98-3.5,9.05-6.22,13.07-1,1.48-12.15,13.34-10.67,14.56,17.95.76,31.93,12.07,48.84,15.99-1.94-9.87,4.8-8.73,9.16-12.86,4.06-3.85,8.29-12.3,11.01-16.9,7.49-12.66,29.2-2.21,40.98-3.43,5.29-2.73,7.26-18.35,12.13-19.08,1.57-.23,3.43,3.13,3.44,3.79.03,3.06-10.7,14.15-7.33,19.21,1.01,1.52,3.54,2.96,5.11,4.11ZM558.96,201.5c.37-5.99,6.1-9.07,8.2-12.73,1.37-2.38,1.17-5.16,2.32-7.31,1.51-2.82,6.81-5.62,6.89-10.09-.74-3.05-17.94-9.24-21.93-8.14l-13.78,16.57,2.15,2.63c-3.94-.91-13.35,11.44-10.85,13.86l27,5.2Z"/>
      <path class="cls-1" d="M524.82,61.4c-11.25,10.43-17.86,8.01-30.09,12.56-4.38,1.63-9.06,5.66-13.58,7.45-1.86,3.1,3.06,12.84,3.03,15.27-.03,2.36-3,3.18-3.76,4.79-3.79,8.06,1.85,15.21,2.34,21.96.23,3.17-2.1,7.29.5,10.9,5.49.65,11.17-.34,16.66.16,8.02.73,18.19,2.64,22.02,10.36,1.35,2.72,2.25,13.21,2.46,16.86.17,2.95-1.13,5.41-1.05,8.3.18,6.32,6.7,14.43-1.72,17.82-2.66-.02-3.4-4.06-3.69-6.02-1.37-9.49,2.32-27.18-3.34-35.09-6.34-8.87-33.73-5.16-43.5-3.23-3.46.69-12.81,5.56-14.65,1.67-2.26-4.79,15.93-7.79,18.9-8.68,1.36-2.08-.79-23.26-3.05-24.97s-7.37,3.73-9.93,5.3c-7.43,4.57-14.11,7.24-23.19,7.06-5.23-.1-7.48-1.33-5.8-6.75,1.87-6.04,8.32-1.01,11.11-.89,6.04.27,14.97-4.67,19.58-8.41,4.25-3.45,6.34-8.23,11.52-10l.99-2.21c-1.91-2.97-5.22-14.81-3.01-17.33,7.61-4.72,15.1-9.19,23.4-12.75,5.25-2.25,9.13-.14,12.06-7.35,1.87-4.62,1.74-8.97-.14-13.51-.72-1.75-5.23-4.46-1.97-6.67,3.83-2.6,7.73,3.35,8.77,6.38,1.9,5.5.59,9-.05,14.44,23.87-10.6.56-32.23-16.83-32.06-3.39.03-30.84,4.72-30.92,7.02,2.22,1.92,8.42,2.35,11.19,2.26,3.75-.12,15.55-4.03,16.37-3.82,4.46,1.15-.72,7.83-4.26,8.47-20.28,3.66-45.96-8.71-63.42-2.57-15.64,5.5-12.31,32.52-12.06,45.8.13,7,4.14,15.94-7.55,16.47-1.26-1.19,3.23-10.79,3.12-13.36-.08-1.95-1.84-3.41-1.99-5.34-1.08-13.87-2.54-32.61,7.53-43.65,4.35-4.77,11.62-6.48,17.88-6.95,4.83-.37,16.82,1.4,19.46.86,1.19-.24,2.07-2.22,3.66-2.69,20.35-5.97,49.09-14.45,66.53,1.29,11.73,10.59,11.82,20.29.41,30.86Z"/>
      <path class="cls-1" d="M213.89,277.31c7.27,1.37,11.89,7,19.51,9.07,15.7,4.27,46.21.99,60.88-6.35,7.81-3.91,6.29-7.15,17.86-5.93,2.9.31,5.34,1.92,7.71,2.1,8.35.64,16.15-8.56,18.58-15.72,4.47-13.19,2.55-42.17-17.36-40.5-4.1.34-16.93,9.2-18.14,4.49.12-3.15,4.97-6.13,7.68-7.29,10.83-4.67,22.36-3.88,29.77,5.74.89,1.16,6.7,10.82,6.87,11.46.28,1.01-.73,18.77-1.02,20.98-1.96,14.72-15.23,28.55-30.86,28.34-2.8-.04-5.26-2.05-7.41-1.86-7.68.65-18.84,7.79-26.74,9.87-16.23,4.28-42.45,5.06-57.82-1.89-4.54-2.05-10.85-7-9.5-12.51Z"/>
      <path class="cls-1" d="M422.22,104.75c2.55,3.72-4.94,7.13-6.98,9.47-1.79,2.05-11.86,15.08-12.45,16.56-1.21,3.06,5.83.89,6.51,1.59-.13.96.3,2.38-.14,3.06-.61.94-18.1,7.5-20.92,8.61l-1.78-2.64c.02-1.58,5.75-5.34,7.61-7.47,6.27-7.22,10.33-16.97,17.4-23.93-20.75,2.88-41.55,4.78-59.16-8.54-13.13-9.93-17.19-27.04-37.91-24.42-12.79,1.62-23.76,9-34.28,15.37-1.65,1-2.89.65-2.16-1.05.39-.91,13.51-11.73,15.32-12.67,5.84-3.04,22.13-7.34,28.58-7.09,18.15.7,28.64,27.88,47.27,33.62,3.96,1.22,16.92,2.74,21.13,2.69,5.33-.06,29.69-6.47,31.97-3.14Z"/>
      <path class="cls-1" d="M203.03,100.39c3.46,3.18-13.14,13.91-15.54,15.11-9.14,4.59-25.81,8.35-35.94,7.18-5.85-.68-12.22-4.21-17.99-5.24-1.14,9.73,5.99,17.37,14.21,21.74,3.44,1.83,9.75,1.25,6.95,7.01-.9,1.86-8.42,8.81-10.37,10.08-6.12,3.98-22.51,8.73-29.83,9.13-2.2.12-4.39.52-5.9-1.6,4.99-7.87,15.08-6.37,23.01-8.29,6.23-1.51,11.77-5.14,16.02-9.83-10.65-5.43-20.28-15.64-21.57-27.82-1.79-17,10.34-3.92,20.21-1.73,10.37,2.29,25.93.36,35.62-3.98,3.52-1.58,19.12-13.59,21.12-11.76Z"/>
      <path class="cls-1" d="M485.01,251.99c7.32,7.94-16.07,28.94-16.08,31.19,0,3.11,6.16,3.03,7.63,5.63,4.24,7.48-4.76,13.61-10.48,17.09-11.15,6.78-26.32,11.12-39.46,9.28-5.9-3.69,11.54-4.98,13.1-5.32,8.14-1.78,16.93-3.75,23.75-8.65,1.85-1.33,9.5-7.54,6.59-9.5-19.73-5.24-10.85-6.51-3.28-14.92,4.97-5.53,9.01-11.94,13.04-18.14-.16-3.25-12.22.37-14.64.52-7.41.44-22.77-1.72-29.12-5.48-5.41-3.21-6.84-9.2.29-6.69,10.34,3.64,13.7,7.08,26.66,6.95,4.81-.05,19.12-4.82,21.99-1.96Z"/>
      <path class="cls-1" d="M270.33,125.96c-9.81-1.08-13.57-11.07-14.14-19.67-1.2-17.95,8.26-32.5,10.88-49.6-6.06,5.25-12.14,11.83-17.29,17.9-11.48,13.52-25.7,29.45-23.96,48.17-3.38-1.98-4.5-7.63-4.42-11.19.33-13.43,28.5-42.55,38.61-52.77,2.21-2.24,13.84-15.94,15.66-9.95.77,2.52-9.81,27.87-11.29,33.42-2.96,11.07-5.97,24.46.31,34.85,2.29,3.79,6.75,3.67,5.65,8.83Z"/>
      <path class="cls-1" d="M558.95,316.56c-1.48,2.55-17.32,2.86-21.8,3.66-32.87,5.9-65.26,14.77-98.02,21.11-7.75-2.21-3.5-4.51,1.63-5.97,34.3-9.75,70.67-14.89,105.59-22.09,3.16-.65,8.12-4.92,11.14-1.9.92.92,2.13,4.01,1.45,5.18Z"/>
      <path class="cls-1" d="M244.28,170.74c-.13,4.99-4.15,6.69-5.91,9.64-6.06,10.23-12.66,29.29-7.91,40.67,2.36,5.65,10.4,8.37,8.38,15.75-1.22-.05-2.57.21-3.77-.03-2.3-.46-10.9-11.21-12.95-13.94-8.23-11.03-17.38-30.07-14.74-44.09.42-2.25,3.18-5.36,4.89-2.72.16,13.03,2.01,27.59,11.35,37.33.21-11.13,3.65-23.54,8.85-33.42,2.57-4.88,4.99-10.42,11.78-9.2Z"/>
      <path class="cls-1" d="M241.03,6.6c-5.61-.32-9.88,3.97-14.99,5.53l-3.49,21.46c.18,1.79,10.52,3.54,1.83,12.08-7.66,7.52-17.12.81-6.15-3.92-3.94-5.83-.55-8.85.42-14.75.86-5.25,1.35-10.53,1.36-15.86.54-1.32,20.84-12.13,24.28-10.46,4.29,2.59.86,18.29,2.64,23.04l8.22.99c2.19,8.24-10.95,18.13-18,12.88-3.74-2.78-.06-7.58,3.88-5.42V6.6Z"/>
      <path class="cls-1" d="M38.03,351.89l1.57-3.98c16.18,1.32,31.36,6.9,47.05,10.08,26.13,5.3,55.14,8.4,80.57,15.75,3.76,1.09,16.55,4.3,15.18,9.59-1.25,1.38-1.3,1.95-3.25,1.1-4.71-2.05-7.6-4.38-13.29-6.15-7.34-2.29-16-3.91-23.61-5.59-34.57-7.66-69.9-12.01-104.22-20.79Z"/>
      <path class="cls-1" d="M471.16,160.07c2.48,2.86-9.02,17.45-11.47,20.17-2.32,2.58-13.73,11.43-14.57,13.41-.94,2.24,1.4,1.47,2.46,1.35,6.69-.75,14.84-6.63,21.97-.85,4.38,4.41-12.47,19.26-14.14,19.17-3.85-.19.56-9.04,1.92-10.35s5.07-1.58,6.22-4.03l-1.58-2.48c-11.47,1.6-22.63,7.05-33.97,9.15-4.65.86-12.84,2.74-12.21-3.98,10.69-3.08,21.26-6.6,29.83-13.89,7.9-6.73,13.71-17.15,20.64-24.5,1.3-1.38,2.71-3.45,4.89-3.18Z"/>
      <path class="cls-1" d="M597.37,238.74c.53.59,2.74-.59,1.91,2.32-1.41-.09-2.64.16-3.76,1.09-3.7,3.11-8.9,23.93-10.94,29.79-1.99,5.71-8.25,17.45-9.02,22.15-.33,2.05,1.19,4.95.84,5.45s-3.36.94-4.72,3.42c-1.87,3.4-.7,13.77-7.55,11.57-6.37-2.05,4.55-17.21,6.04-20.51,7.96-17.65,12.88-36.17,19.67-54.23,2.3-6.11,6.63-11.69,6.71-18.99,1.2-1.66,1.82-.66,2.61.66,3.74,6.25-3.82,15.01-1.79,17.28Z"/>
      <path class="cls-1" d="M402.78,296.49c1.41,2.74-2.47,1.84-2.17,2.65,2.94,4.16,20.89,13.08,19.54,18.1-.35,1.29-2.1,1.79-3.57,1.42-3.88-.97-21.89-17.29-27.4-21.08-6.14-4.22-15.6-10.19-22.24-13.34-5.32-2.52-13.45-4.13-18.12-6.72-3.49-1.93-2.71-4.7.36-5.3,2.44-.48,17.83,6.11,21.08,7.7,10.92,5.33,20.47,14.95,32.53,16.57Z"/>
      <path class="cls-1" d="M444.27,75.05c-.9.88-.61,5.33-3.49,6.69-9.22,4.34-12.61-6.34-10.37-13.37,3.23-3.64,7.89,2.39,9.67,2.08,5.54-8.24,15.69-5.78,19.39-15.12,1.22-3.08,1.61-7.06,1.94-10.36,8.99-.86,4.15,12.62,1.54,16.98-1.43,2.38-9.92,9.65-12.48,11.19-1.83,1.1-5.55,1.29-6.19,1.92Z"/>
      <path class="cls-1" d="M279.02,249.59c-4.86.17-6.53-3.07-11.2-.2-2.32-3.48-21.33-6.67-18.1-11.51,9.35-2.85,28.68-.02,29.3,11.7Z"/>
      <path class="cls-1" d="M390.84,172.85c-.41-2.41.23-2.08,2.14-2.64,5.04-1.47,10.63-.99,15.48-1.9,4.38-.82,18.47-5.44,20.89-5.09,1.26.18,2.17.54,2.69,1.76.65,2.14-3.04,7.28-5.06,7.77-2.08.51-3.58-2-6.23-2.09-6.45-.21-16.97,3.22-23.94,3.27-2.03.01-3.93-1.16-5.97-1.08Z"/>
      <path class="cls-1" d="M166.12,214.42c-5.49,1.49-4.91-1.63-7.26-3.01-6.78-3.98-7.35,6.17-10.08,7.84-2.39,1.47-4.94.68-5.47-2.18-2.62-14.11,23.99-17.95,22.82-2.65Z"/>
      <path class="cls-1" d="M177.16,226.31c4.1-4.01,17.6-.4,15.93,5.47-2.22,7.8-18.99,3.93-15.93-5.47Z"/>
      <path class="cls-1" d="M431.01,96.12c4.07-4.2,10.49,16.02,2.71,16.04-4.69,0-3.06-13.19-2.71-16.04Z"/>
      <path class="cls-1" d="M428.83,73.75c-2.62,4.46,1.53,13.1-3.78,14.91-4.15-.85-5.06-18.91,3.78-14.91Z"/>
      <path class="cls-1" d="M451.48,93.08l1.23,9.44c-6.49,1.08-6.82-4.75-5.31-9.48l4.08.04Z"/>
      <path class="cls-1" d="M49.96,344.44h-19c-.22,0-4.23-.99-3.79-2.12,5.99,1.03,13.32-.38,18.98-.09,1.66.09,3.4.31,3.81,2.21Z"/>
      <path class="cls-1" d="M218.95,242.28c4.79-1.22,4.57,6.55,1.96,7.3-4.24,1.22-7.06-6-1.96-7.3Z"/>
      <path class="cls-1" d="M65.15,346.58l-14.08-2.66c.11-3.33,17.29-.28,14.08,2.66Z"/>
      <path class="cls-1" d="M613.39,90.8c16.61-.84,8.4,24.26,3.02,32.27-2.42,3.6-9.05,7.9-10.53,1.45,6.2-7.83,14.76-16.93,10.47-27.59-.85-2.12-3.73-3.09-2.96-6.13Z"/>
      <path class="cls-1" d="M605.78,137.68c-8.28,1.07-8.18-8.97-8.67-14.91,7.7-1.4,8.07,9.45,8.67,14.91Z"/>
      <path class="cls-1" d="M583.96,124c-1.12,2.2-.04,11.24-3.68,10.49-2.33-.48-7.81-12.91-1.12-12.79l4.8,2.3Z"/>
      <path class="cls-1" d="M568.59,144.92c-.13.29-4.47,4.25-4.78,4.34-1.98.61-3.52.22-4.7-1.48-.16-7.43,12.98-11.03,9.48-2.86Z"/>
      <path class="cls-1" d="M581.81,146.31c.81,3.99-.6,7.88-5.33,7.36-1.43-3.41-.67-5.61,2.13-8.04l3.2.68Z"/>
    </g>
  </g>
</svg>