<?xml version="1.0" encoding="UTF-8"?>
<svg id="Layer_2" data-name="Layer 2" xmlns="http://www.w3.org/2000/svg" viewBox="0 0 467.75 658.52">
  <defs>
    <style>
      .cls-1 {
        fill: blue;
        stroke: #0049d1;
        stroke-miterlimit: 10;
      }
    </style>
  </defs>
  <g id="Layer_1-2" data-name="Layer 1">
    <g>
      <path class="cls-1" d="M263.44,477.32c-17.15,5.55-52.67,3.4-72.14,2.31-1.23-.07-2.37.83-3.58.94l.45-1.81c-10.64,1.69-19.83-.65-30.26-1.8-2.6-.29-5.29.2-8-.12-6.5-.77-12.97-2.68-19.47-3.47-2.83,9.61-8.42,20-7.99,30,.53,1.78,4.51,4.6,6.22,5.51,6.31,3.35,17.31,5.47,24.24,6.45,12.32,1.75,23.13.41,35.53.22,3.91-1.15,6.6-12.78,11.91-12.99,1.81-.07,3.85,2.08,6.29,2.39,6.38.82,11.58-2.4,19.06-.1,12.04,3.71,11.9,15.08,26.93,15.29,11.31.16,27.01-3.08,38.22-5.11,3.96-.72,14.59-1.01,17.47-4.2.82-.91,4.15-11.07,4.37-12.76.7-5.37-2.96-23.62,1.87-26.1,2.97-1.53,4.23-.18,4.58,2.69,1.1,9.13-.68,29.04-3.9,37.66s-18.68,4.69-20.33,12.16c-1.16,5.24-1.19,22.46-1.14,28.7.04,4.77,3.12,20.89-.35,23.95-8.68,1.54-5.08-9.27-4.99-14.04.28-13.7.23-27.38.87-41.06l-28,2.71c1.17,10.17-.07,20.86,1,31.01.93,8.83,6.39,17.03,5.36,26.09l-5.42,1.54-.04,3.57c-2.61,1.19-5.37-1.81-6.8-1.84-4.6-.12-4.95,19.95-5.9,23.96l1.47,3.05c6.52,1.7,10.11,3.99,17.09,3.65,3.29-.16,8.73-1.92,11.69-1.75,2.84.16,5.69,3.51,8.59,4.12,5.56,1.16,14.46-4.48,15.34-10.07.61-3.93-1.22-20.25,5.74-18.3,5.76,1.62-.31,13.28.57,17.38-2.64,10.44-13.49,18.85-24.56,16.54-2.47-.51-4.79-3-7.5-3.37-4.41-.6-8.66,2-13.48,1.83-3.96-.14-7.5-1.97-11.27-2.76,2.08,7.02-4.41,24.72,6.72,26.19,11.46,1.51,22.58-1.88,33.56-3.55,6.38-.97,22.53.64,23.78-7.84s-10.34-12.94-2.23-20.16c8.3,5.58,8.38,15.78,7.78,24.76-8.31,9.79-20.21,7.22-31.14,8.65-10.38,1.35-27.63,7.48-37.47,2.97-11.96-5.49-3.03-24.04-7.81-33.67-.57-1.14-2.2-1.78-2.67-2.76-1.97-4.13,3.99-28.99,5.19-35.38.21-1.12.97-1.99,1.5-2.94-3.23-4.53-7.55-3.75-11.63-5.4-3.54-1.43-18.09-7.09-18.1-10.8.13-1.37,1.18-2.59,2.47-2.97,7.54-2.24,25.8,3.36,32.18,8.07,6.03,4.45.07,5.61-.19,6.66-.49,2,1.91,12.48,6.2,11.22-2.87-3.71-1.33-7.89-1.9-12.07-.3-2.22-1.32-4.29-1.6-6.51-1.6-12.74-1.9-25.42-2.81-38.21-5.04-.17-11.35.73-16-1.6-3.09-1.55-7.54-9.09-12.05-11.4-8.74-4.47-16.59-2.5-25.93-2.12-2.42,3.02-6.3,9.32-9.69,10.6-5.86,2.21-12.5-.14-18.27,1.12-1.91,2.04-8.15,30.85-8.96,35.7-1.23,7.39-2.59,11.43,5.12,15.49-.6-8.4,5.65-17.59,11.28-23.45,14.61-15.2,12.71,2.85,16.06,13.74.68,2.22,2.26,4.07,2.89,6.13,1.76,5.73,6.91,18.76,6.83,23.86-.09,6.16-5.79,3.64-5.46,8.58-3.02,1.14-3.1-2.46-4.23-2.73-1.63-.38-3.91.3-5.96-.16-2.82-.63-3.85-3.99-6.95-3.41,3.1,5.54-1.7,7.79-2.52,11.45-1.78,7.92.86,16.42,6.14,22.34,1.11,1.25,7.04,4.14,3.52,6.69-2.22,1.61-6.46-2.86-7.57-2.63-2.06,1.94-1.21,4.93-2.23,7.72-.43,1.16-5.29,11.2-5.76,11.84-1.55,2.15-9.46,4.42-12.16,4.61-5.07.36-11.12-2.01-16-2.52-3.47-.36-7.15.29-10.71-.12-8.8-1.02-17.55-4.04-26.35-5.24-8.48-4.85-1.58-26.56,1.39-33.89-.04-1.88-7.81-8.06-8.1-12.67-.19-2.96,4.43-9.14,4.56-13.49.1-3.38-2.24-5.82-2.66-9.1-.46-3.59,2.55-15.6,5.28-17.95,1.92-1.65,4.31-1.16,4.51-1.35.98-.93-.7-23.77,2.71-26.59,1.66-2.05,3.79-1.81,4.75.74,1.21,6.76,6.29,12.96,7.72,19.34.88,3.92,2.04,10.69-1.58,13.31l3.59,1.35,8.84-50.08c-.2-1.02-9.21-3.01-11.26-3.84-4.15-1.68-13.39-6.26-14.59-10.75-1.4-5.29,11.37-29.56,8.5-33.63-10.84-4.11-22.45-6.37-33.02-11.23-3.04-1.4-11.52-5.86-13.99-7.67-1.67-1.22-3.54-3.48-4.84-5.15-.52-1.89,5.4-15.23,6.63-18.3,1.69-4.25,2.75-6.69,4.59-10.75,1.19-2.63,5.67-13.87,6.96-15.13,2.35-2.29,4.76-1.01,4.11,2.69-.68,3.89-7.76,15.95-9.78,20.93-.99,2.44-6.46,16.64-6.17,17.86,1.15,4.83,27,15.67,32.38,17.3,2.84.86,9.87,2.87,12.46,2.99,2.92.15,3.92-1.76,5.6-1.3,2.13.59,2.74,3.32,4.73,4.4,5.77,3.13,35.45,5.65,43.52,6.13,42.93,2.57,84.28,1.9,125.05-13.15,12.91-4.76,22.43-12.12,33.94-19.3-.29-3.64,1.63-6.62,2.17-9.55,2.05-11.12,1.79-23.65,3.91-34.86.59-3.12,3.28-16.34,7.39-15.11,3.61,3.09-.28,6.63-1.08,9.7-2.79,10.72-4.78,25.61-5.66,36.72-.27,3.45.78,13.74-.44,15.78-.99,1.66-4.35,1.4-5.85,2.27-1.3.76-3.91,4.49-6.44,6.2-21.9,14.76-42.64,16.66-66.39,24.34ZM166.49,522.03l-18.59-1.77-1.71.85-3.39,20.97c-1.93,3.97-6.45,27.46-3.26,29.4l15.22,2.83,11.74-52.29ZM120.45,544.57c.14,7.03-2.95,14.7.88,21.24,10.21,2.39,3.47-12.48,1.34-17.61-.45-1.08-.93-3.61-2.22-3.63ZM197.18,580.63l-9.49-29.75c-2.22-.58-7.63,6.29-8.93,8.19-1.83,2.67-3.7,5.82-4.61,8.92-1.23,4.18,1.26,4.88-4.04,6.79,3.45,4.44,4.53,7.2,1.84,12.66l-3.37-.8-5.69-9.62c-.09,4.46-.37,12.1,3.12,15.35,1.26,1.17,3.67,1.46,4.51,2.71,1.04,1.55.78,6.59,2.82,7.16,4.94-.61,6.19-3.33,4.21-7.87-1.14-2.63-5.18-2.95-4.74-6.53l6.19-.13c3.94-14.54,5.47-18.05,18.18-7.09ZM118.84,572.31c-.9-.53-3.45-7.28-6.73-1.36-3.82,6.91,1.32,9.48,1.72,14.75.58,7.54-7.85,19.63.84,24.58,3.04,1.73,9.47-.23,9.42,3.25-.07,4.68-7.38,3.5-8.62,4.95-1.81,2.1-5.75,22.09-4.5,24.34,1.62,2.92,22.72,6.69,27.09,7.21,5.62.67,15.14,1.63,20.72,1.86,15.91.66,15.84-9.72,19.27-22.34-.09-2.3-5.4-3.33-6.12-7.01-1.08-5.56.89-8.23,3.59-12.58-.47-2.61-6.1,1.2-7.15,1.86-2.37,1.48-13.88,10.3-15.02,12.12s2.01,3.28-1.75,6.3c-5.27,4.23-11.83,2.95-7.73-4.12,2.72-4.7,20-16.41,20.71-19.04l-.31-2.11c-4.66-1.78-1.77-3.23-2.44-6.53-.37-1.83-2.4-3.33-3.02-5.18-1.31-3.88-1.72-8.14-3.09-12.02-.4-.62-12.3-3.82-14.12-4.15-2.65-.5-5.78.2-8.76-.27-1.11-.17-13.37-4.12-14.01-4.5ZM199.84,593.19l-2.64-10.76c.45,3.57-6.22,6.55-5.42,9.44.77,1.75,7.45,2.24,8.07,1.32Z"/>
      <path class="cls-1" d="M457.82,170.75c4.26,4.79,8.84,15.01,7.12,21.35-.79,2.89-4.2,4.94-4.18,7.63s2.77,5.11,3.45,7.47c.57,1.97,3.16,14.64,3.04,15.99-.09,1.02-.36,2.93-1.45,3.15-4.62.92-13.05-17.2-19.93-18.02-2.52-.3-4.69.89-7.13.96s-4.9-.89-6.84-.59c-3.97.62-9.74,6.31-13.49,8.18-1.82.91-11.02,4.79-11.72,1.75s3.73-3.37,5.45-4.4c3.26-1.97,19.51-12.39,21.63-11.87,1.82.44,3.05,2.28,5.88,2.41,8.11.38,20.36-8.32,20.39-16.73.03-8.51-11.44-24.84-20.81-21.6-1.57.54-10.78,8.3-11.78,9.86-2.82,4.41-1.65,10.61-3.56,15.37-13.26,1.77-24.69,8.63-37.01,13.08,1.87,10.2,8.64,19.56,12.75,29.09,7.66,17.76,12.24,30.11,1.8,48.09-7.69,13.24-20.73,19.71-30.83,30.52-2.92,3.13-4.3,8.16-9.48,9.45-3.99-4.6.51-8.6,3.82-11.74,7.21-6.83,13.5-10.81,21.01-16.65,6.57-5.11,14.8-18.09,16-26.4,1.77-12.26-2.97-19.61-6.1-30.87-5.29,2.7-7.56,4.25-13.88,3.5-12.57-1.5-12.41-15.94-22.28-22.82-8.3-5.79-19.77-.43-26.13-10.87,4.41-3.34,7.99-7.13,13.2-9.37,2.23-.96,4.49-.84,6.41-1.71,4.94-2.24,20.65-11.98,25.08-8.3.57.48,3.33,5.09,3.81,6.11,1.38,3,1.78,9.8,4.82,8.82l31.52-14.53c2.64-2.44,1.33-5.95,2.55-9.17,1.85-4.91,8.42-8.89,7.23-14.91-.56-2.81-9.36-15.43-11.94-16.94-3.15-1.85-5.53.16-9.03.08-6.96-.17-14.23-4.6-16.94-11.12-3.9-9.41-1.79-36.34.39-46.84.51-2.43,1.4-6.23,4.6-5.84,4.86.59,2.82,5.63,3.51,9.03,1.35,6.62,7.52,15.45,12.9,19.58,5.07,3.9,17.19,7.29,16.78,14.86-.12,2.2-1.68,3.63-1.76,5.37-.31,7.03,3.54,9.14,5.81,13.97,2.56,5.45,1.7,5.85,5.69,11.45.79,1.11.79,3.14,1.46,3.95.92,1.11,6.19.88,9.22,2.51,1.32.71,7.87,6.47,8.98,7.71ZM403.43,110.56c-1.04-1.1-3.43-3.03-3.89-3.78-1.03-1.65-1.4-8.14-4.15-7.56s-1.78,17.75-1.36,20.73c1.44,1.72,5.78-7.36,7.2-7.7l5.43,2.29c-.38-2.04-2.1-2.77-3.24-3.97ZM419,121.18c-1.11-.82-8.08-4.62-8.72-3.94l-1.38,7.23-8.54-5.42c-3.49,7.36-9.67,15.24.98,20.19,4.32,2,15.05,1.67,16.02-3.65.43-2.35-6.73-11.98,4.65-8.43.75-2.41-1.14-4.58-3.01-5.97ZM430.14,155.1c-.76-5.32-3.68-13.84-9.92-14.42-.46,1.89.5,2.41,1.33,3.62,2.35,3.45,5.75,7.68,8.59,10.8ZM393.13,232.63c1.07-1.04-9.09-19.68-10.37-22.55-6.26-14-2.81-24.21-22.47-15.2-2.91,1.34-15.27,8.6-16.36,10.71-.47.92-.57,1.69-.46,2.7,10.88.66,18.66.6,25.68,9.98,3.93,5.24,6.11,16.36,14.41,16.1,2.86-.09,6.3-2.42,9.57-1.74Z"/>
      <path class="cls-1" d="M389.51,69.46l-3.47-.14c-2.27-1.36,1.3-23.26,1.66-27.37.78-8.9,2.68-21.51,2.79-29.74.12-9.1-10.6-5.53-17.72-5.82-48.76-2.03-95.69-.39-144.58,1.43-18.96.71-37.78,3.81-56.74,4.83-8.85.48-18.32-.67-27.06.02-14.3,1.13-32.09,3.8-46.86,5.5-12.85,1.48-21.43,5.47-35.36,4.44-1.62-.12-2.92.25-4-1.39,1.08-1.64,2.38-1.28,4-1.4,12.84-.92,20.97-3.56,32.62-5.29,27.8-4.13,58.44-5.85,86.6-7.29C237.33-.08,294.41.26,350.2.99c12.51.16,27.56-1.23,39.65.07,1.94.21,6.97.6,6.91,3.01-3.31,4.36-2.08,8.95-2.74,13.54-2.45,17.22-5.23,34.36-4.51,51.85Z"/>
      <path class="cls-1" d="M323.6,553.57c1.43,1.2,29.07-19.64,30.75.46.67,8.11-6.39,23.73-11.03,30.5-.95,1.39-9.89,10.63-10.85,11.19-.33.19-1.31-.5-1.87-.32-2.67.85-4.51,2.28-7.89,1.45l1.75-2.18c-.66-9.34-14.3-7.17-10.31-15.83,1.09-2.37,12.01-8.93,14.42-8.96,4.41-.05,4.87,4.24,2.99,7.42-1.58,2.68-6.42,2.46-6.16,4.63.14,1.21,2.77,5.85,3.63,6.37,5.1,3.16,13.31-11.02,15.09-14.7,3.15-6.51,6.65-14.22,3.96-21.47-4.22-3.17-9.68-.31-13.85,1.67-12.13,5.76-14.17,11.05-22.4,19.1-9.98,9.75-7.24-3.22-8.21-4.77-.35-.57-3.73-.61-4.29-2.53-.43-1.48,3.02-8.57,4.01-10.19,3.95-6.47,15.8-18.66,22.14-22.97,2.77-1.89,11.81-9.18,13.36-3.46,1.65,6.12-11.82,19.4-15.22,24.58ZM329.92,536.45c-2.02-1.99-12.8,9.37-14.47,11.24-1.23,1.38-10.13,12.11-9,13.09,1.54.08,3.02.19,4.49-.46,2.61-1.16,20.55-22.32,18.97-23.87Z"/>
      <path class="cls-1" d="M75.99,313.08c4.15-.5,7.07,1.8,3.19,4.13-3.2,1.92-15.57,4.43-19.92,5.36-6.97,1.49-20.77-.07-22.59,9-.46,2.29.02,4.61-.31,6.9-1.5,10.52-2.13,21.87.32,32.34.39,1.66,1.28,4.61,2.11,6.01,5.31,8.92,21.31,5.97,28.25,12.38l-.75,2.6c-.92.62-2.06.52-3.11.41-2.66-.29-19.96-4.76-22.15-5.9-8.62-4.5-7.28-10.63-10.43-18.41-3.75,4.31-9.27,11.27-15.46,11.67-4.91.32-11.96-6.27-13.45-10.77-3.2-9.71.21-33.74,8.12-40.6,11.03-9.56,12.58,1.24,17.22,7.18,5.59,7.16,5.47-9.37,6.22-11.73,1.6-5.05,11.04-3.86,15.18-4.68,8.71-1.71,18.9-4.84,27.56-5.88ZM30.15,343.52l-7.28,1.42c-1.86-1.37.08-13.03-5.81-13.24-11.69-.42-14.78,29.19-9.87,37,1.69,2.68,6.94,6.18,10.07,4.81,5.79-2.53,6.28-7.6,9.26-11.53.69-.91,3.63-2.16,3.63-2.69v-15.78Z"/>
      <path class="cls-1" d="M363.11,239.16c6.21,6-10.79,11.83-10.63,16.51.11,3.12,12.12,5.64,7.62,13.86-2.25,4.11-14.36,13.23-19.34,13.59-2.38-6.38,18.75-13.09,14.54-18.51-1.66-2.15-10.29-5.05-9.85-9.74.22-2.32,7.49-8.02,9.63-10.38.34-.38,1.68.14,1.02-1.92-13.96-2.5-24.09-3.2-32.36-15.93-7.02-10.8-5.49-20.27-9.13-31.45-2.3-7.06-12.29-24.4-18.16-28.75-5.75-4.27-14.67-7.54-21.54-9.59l.78-4.05c2.06-1.45,12.64,4.45,15.1,5.77,14.04,7.55,24.1,20.81,28.7,36.26,3.79,12.76,2.16,25.91,14.01,35.59,8.04,6.57,26.87,6.11,29.61,8.75Z"/>
      <path class="cls-1" d="M41.44,36.12c1.84-.04.55,8.05.43,9.43-2.76,32.4-7.67,64.96-10.82,97.38-5.11,52.41-12.28,105.03-13.44,157.87-.09,4.3,3.43,12.45-2.33,14.77-5.91-7.19.35-13.84.5-22.07.09-4.87-1.13-9.96-1-15.37.78-34.01,7.44-67.23,10.83-100.97,4.49-44.6,5.34-90.8,13.86-134.91.24-1.26.75-6.09,1.98-6.12Z"/>
      <path class="cls-1" d="M245.05,286.72c-4.15-4.58,16.55-20.54,15.33-2.27-.81,12.15-3.27,26.15-11.7,35.2-1.1,1.19-8.58,6.31-7.24,7.63,11.67-4.3,23.39-14.93,28.15-26.42,5.76-13.9-1-31.17-11.01-41.63-2.67-2.79-5.41-3.22-7.55-4.91-.86-.68-.76-2.55-.56-2.76,2.94-3.12,12.65,8.24,14.27,10.54,24.01,34.06.38,61.34-33,73.08-1.47.52-13.02,2.2-13.82,1.63-1.46-1.04-1.14-3.47.02-4.59,1.52-1.48,7.81-1.79,10.58-2.96,12.72-5.4,22.32-16.36,25.32-29.71.45-2,2.67-15.72,2.49-16.54-.22-1.01-1.3-2.86-2.63-2.56-2.74,2.14-4.79,6.03-8.63,6.27Z"/>
      <path class="cls-1" d="M175.53,165.02c-7.6-1.21-10.87,6.4-15.16,9.92-13.25,10.88-31.02,16.52-48.05,17.13.89,10.24,13.57,8.68,19.93,13.19l-10.9,17.03-1.88-.93c-2.05-3.04,5.46-10.33,6.39-13.51-.25-1.21-7.41-2.57-9.24-3.42-3.92-1.83-17-14.34-13.85-18.75,1.65-2.32,8.41.47,11.05.61,10.8.59,28.32-3.98,37.24-10.1,3.89-2.67,20.03-21.62,24.06-15.75l.4,4.56Z"/>
      <path class="cls-1" d="M338.04,300.26c-2.93,11.52,1.2,24.11,10.41,31.53,2.66,2.14,13.01,6.62,12.07,10.21-.83,3.17-14.19,11.49-17.51,14.16-2,1.61-4.95,3.52-6.12,4.52-2.12,1.82-3.98,4.84-5.95,6.93-1.39,5.17,11.82,8.32,9.4,17.41-.4,1.51-2.97,5.28-4.1,6.49-4.07,4.34-22.65,13.91-28.01,12.98-.93-.16-4.88-1.39-2.71-2.82,3.12-2.07,13.36-4,17.99-6.38,2.14-1.1,10.54-6.71,11.35-8.5,4.21-9.23-11.79-9.74-7.71-20.33,3.46-9.01,26.18-21.44,27.09-24.39.87-2.79-5.75-5.93-7.59-7.58-7.55-6.75-11.95-12.56-13.01-23.07-.42-4.13-1.49-11.69,4.4-11.15Z"/>
      <path class="cls-1" d="M89.74,365.17c-.2,4.02,8.28,2.97,11.07,2.49,3.49-.6,14.64-5.04,18.71-6.56,5.55-2.08,21.29-13.06,19.89-1.34-9.31-.13-18.04,5.74-26.85,8.8-8.99,3.12-15.78,6.35-25.44,3.29-2.43-.77-9.54-4.16-7.21-7.5.33-.47,8.96-2.56,10.74-3.25,21.99-8.52,38.97-28.98,41.09-52.72,6.64,6.55-.8,19.1-4.79,25.86-8.14,13.81-21.38,27-37.19,30.93Z"/>
      <path class="cls-1" d="M187.25,384.99c1.84,6.78-9.67,17.72-2.31,22.61,3.8,2.52,17.3-4.65,22.18-5.91,4.43-1.15,7.45-2.3,11.29,1.32,5.07,4.79-.86,18.76,5.6,20.62,1.58.45,7.58-1.72,7.46.58-.2,3.85-8.79,4.18-12.21.49-7.92-8.53,4.4-23.48-13.45-18.92-6.49,1.66-17.11,9.28-23.59,5.41-8.42-5.01.01-19.25,1.53-26.08l3.49-.13Z"/>
      <path class="cls-1" d="M96.06,271.41c-1.61,2.21,10.24,10.85,9.92,15.7-.19,2.9-6.8,9.08-8.48,12.32s-1.59,10.07-6.32,8.89c-2.5-.63-.58-3.93-.06-5.34,2.19-5.92,5.99-11.26,9.32-16.54-.34-4.05-13.94-11.44-11.19-17.73,1.69-3.47,20.01-4.23,24.45-6.09l1.34,2.03c-3.06,7.34-12.77,3.74-18.99,6.77Z"/>
      <path class="cls-1" d="M220.67,157.8c12.02-8.21,21.2-21.64,18.13-36.57-2.51-3.54-12.49-.77-11.75-5.23.76-4.58,17.47-2.24,18.83,7.19,2.07,14.44-8.37,22.93-15.69,33.82l-9.51.79Z"/>
      <path class="cls-1" d="M360.41,140.84c5.74-1.43,7.25,8.71,6.35,12.72-1.25,5.57-11.29,10.71-15.63,5.17-2.44-5.07,4.5-16.7,9.28-17.89ZM355.27,155.94c3.1,2.32,7.98-1.86,5.43-4.96l-3.57-1.16-1.86,6.12Z"/>
      <path class="cls-1" d="M437.08,86.72c11.17-3.82,16.95,16.27.74,15.27-7.83-.48-4.76-13.89-.74-15.27ZM436.54,97.33c1.32,1.9,7.13-.14,7.14-3.07-.39-1.81-6.46-2.23-7.11.1-.07.84-.44,2.38-.03,2.97Z"/>
      <path class="cls-1" d="M255.88,144.29l-.61,2.71c-11.41,3.06-19.7,13.5-25.12,23.41-4.53-2.36,1.05-9.06,3.31-12,5.19-6.75,13.51-13.77,22.41-14.12Z"/>
      <path class="cls-1" d="M208.69,133.73c.51,4.81,9.18,9.45,5.19,14.16-1.96.53-11.71-8.67-12.48-10.97-.37-1.12-.73-2.25-.59-3.44,2.76-.32,5.4-1.77,7.88.25Z"/>
      <path class="cls-1" d="M384.91,172.13l-2.64.6c-4.36-3.49-1.57-8.09-.89-12.67.5-3.36-1.35-7.17,2.28-9.45,2.07,0,2.12,1.56,2.3,3.12.59,5.23-2.07,12.67-1.04,18.41Z"/>
      <path class="cls-1" d="M188.34,151.27c-3.38-8.46,8.19-8.75,7.54-.65-2.2,2.02-5.03,2.33-7.54.65Z"/>
      <path class="cls-1" d="M252.26,164.12l-.05,3.55c-4.17-1.09-8.49,5.53-11.67,2.31,2.86-3.19,7.29-5.96,11.72-5.86Z"/>
    </g>
  </g>
</svg>