<?xml version="1.0" encoding="UTF-8"?>
<svg id="Layer_2" data-name="Layer 2" xmlns="http://www.w3.org/2000/svg" viewBox="0 0 856.32 331.63">
  <defs>
    <style>
      .cls-1 {
        fill: #0049d1;
      }
    </style>
  </defs>
  <g id="Layer_1-2" data-name="Layer 1">
    <g>
      <path class="cls-1" d="M466.17,274.1c-18.08,1.47-3.73-11.66-5.99-22.02-29.26,2.32-60.13,1.92-88.04,12.02l4.85,6.13,45.14,10.88c6.87,4.45,4.23,11.26-2.9,12.95-12.24-5.78-54.19-10.6-60.14-21.92-5.78-10.99,10.04-19.03,18.55-21.55,9.27-2.75,29.7-6.79,39.67-8.34,8.03-1.25,46.69-1.43,48.98-3.05,14.28-30.29,24.73-62.49,39.52-92.53,5.13-10.41,8.84-22.95,21.53-24.49,36.34-4.41,73.24-5.75,109.7-10.34,19.43-2.44,40.92-8.73,60.18-9.85,33.68-1.95,36.69,9.49,25.41,39.42l-59.53,104.53c-7.12,2.16-8.39-7-5.94-11.96,9.83-15.79,18.07-32.53,27.46-48.56,8.28-14.15,34.9-49.41,33.71-64.36-.79-9.87-23.19-7.76-30.9-6.87-45.33,5.25-91.8,15.29-138.19,19.87-10.21,1.01-22.28-3.54-28.79,7.22-4.96,8.2-12.36,25.82-16.63,35.39-11.81,26.5-25.41,57.76-35.17,84.87-1.48,4.11-2.92,8.06-2.48,12.55Z"/>
      <path class="cls-1" d="M156.07,174.06c2.23,1.71-.25,4.65-2.51,6.53-8.97,7.44-26.46,24.65-27.53,36.59-1.27,14.2,16.23-.07,20.92.93,9.28,1.97-5.62,19.69-9.03,22.84-10.95,10.11-16.07,4.86-26.64,7.09-1.63.34-.89,3.89-2.43,4.17-4.26.76-9.76-2.86-15.68-2.1-17.95,2.31-30.84,36.15-2.14,36.17,8.99,0,20.01-11.05,15.01,5.82,2.41,2.25,49.31-5.22,56.99-6.02,31.84-3.35,64.07-6.49,96.11-7.92,3.78-.17,11.11-4.67,10.98,2.88-.23,13.69-18.32,7.15-27.01,11.11-44.04,2.43-88.4,7.44-132.12,11.93-14,1.44-32.38.03-43.98,2.04-5.56.96-13.38,10.96-23.94,12.07-13.93,1.47-49.12-1.36-42.19-22.19,2.8-8.43,11.52-8.48,12.77-10.24.32-.45,2.29-9.78,2.27-10.78-.06-4.41-8.42-8.17-9.63-14.29-1.55-7.85,3.31-10.81,10.71-10.76,2.89.02,19.29,2.34,21.02,3.16,3.23,1.53,4.61,5.59,3.98,9.01-6.58,3.12-11.27.09-18,.02,1.22,6.4,5.57,10.81,3.99,18.01,15.43-1.51,28.19,2.17,40,12,.23-4.35-3.26-6.62-3.92-11.07-4.26-28.56,22.4-53.14,47.93-34.95-.46-6.7,9.42-5.24,14.04-8.99,4.89-3.97-6.24-5.48-7.68-10.35-3.5-11.86,3.46-24.01,10-33.34s11.93-12.73,20.7-19.49c1.98-1.53,5.96-.62,6.97.15ZM48.02,292.1c-.71-.6-15.64-.03-18.56.44-7.94,1.29-23.63,6.93-9.47,12.57,18.05,7.19,9.71-6.4,12.02-9.03.43-.49,10.34.15,13.04.01,3.28-.16,5.58-1.77,2.96-4Z"/>
      <path class="cls-1" d="M458.64,309.64c-12.38-12.48,16.95-8.94,22.56-9.52,22.43-2.33,45.08-7.06,68.03-6l108.97-16.09c.94-4.55-1.83-8.65-2.08-13-.74-13.08,12.69-14.81,14.13-7.87.53,2.55-3.84,4.52-3.94,7.8-.07,2.24,1.88,5.25,2.03,8.14.4,7.56-1.41,14.71-9.51,16.57-28.41,6.53-62.28,8.95-91.45,12.59-30.56,3.81-61.68,8.35-92.12,9.92-4.21.22-13.78.33-16.63-2.55Z"/>
      <path class="cls-1" d="M661.25,292.12c20.11,20.68-32.87,20.45-45.83,22.18-32.74,4.36-69.84,11.48-102.2,13.85-12.93.95-27.31-1.28-40.07-.05-5.1.49-19.02,7.14-20.85.87-2.64-9.02,6.37-9.5,13.05-10.67,20.22-3.56,39.93-.82,59.87-2.15,31.52-2.1,68.37-9.45,100.18-13.86,12.26-1.7,27.16,1.43,35.84-10.16Z"/>
      <path class="cls-1" d="M338.6,183.58c6.32,6.23,29.57,8.98,38.58,8.5,4.84-.26,9.7-3.11,14.96-2.02,1.07,7.01-4.74,10.89-8,15.99,21.13-.75,11.54,24.17-3.99,26.02-1.83-6.99,2.63-10.11,3.98-16-2.41.97-3.95,2.09-6.85,1.99-12.22-.42-5.31-12.43-7.19-13.95s-27.4-3.28-35.89-9.13c-19.13-13.18-6.5-57-35.08-59.01-6.32-.44-16.9,4.45-18.81-1.15-2.77-8.11,4.67-8.67,11.64-9.62,10.9-1.48,24.45,1.56,31.06,10.94,8.51,12.09,8.53,40.47,15.59,47.43Z"/>
      <path class="cls-1" d="M730.26,30c16.76-.39,32.1,1.13,24.02,21.99,6.42,1.42,15.17-5.51,19.04,1.99,4.93,9.56-9,12.01-6.93,18.83,1.28,4.22,20.11,9.52,17.73,17.89-1.06,3.71-10.99,8.64-14.92,9.23-9.34,1.4-18.98-3.21-8.79-8.85,1.44-.8,7.75-.33,5.86-4.05-3.25-6.41-24.81-6.26-7.99-23.01-22.31,2.23-11.21-8.67-11.89-19.02-.72-10.91-29.86,2.12-28.14-15.01-5.98,1.98-7.05,14.91-15.03,8.04-3.68-5.8,4.37-11.28,6.73-15.35,3.66-6.32,9.69-20.84,17.5-22.56,10.38-2.28.11,27.25,2.81,29.88Z"/>
      <path class="cls-1" d="M66.01,210.07c-20.77-11.4,15.68-24.07,16.17-27.28s-1.29-8.11-2.66-11.23c-1.84-4.21-11.54-13.09-5.56-16.58,5.75-3.35,25.45-2.28,32.9-3.11,20.71-2.31,37.76-26.13,62.27-29.76,8.72-1.29,44.61,1.56,40.93,14.91-2.25,8.16-14.96-3.63-19.42-4.57-10.28-2.16-23.4.44-33.15,4.03-16.32,6.02-28.69,23.12-46.6,25.43-5.6.72-17.21-1.3-20.95,1.06-6.85,4.32,7.49,15.01,3.15,23.13-3.54,6.61-26.31,12.19-27.1,23.97Z"/>
      <path class="cls-1" d="M731.66,226.34c8.3-1.61,5.75,8.45,10.64,12.71,5.04,4.39,19.23,3.05,15.78,13.8-.88,2.75-10.67,6.75-12.81,11.23s.85,13.78-6.32,15.83c-5.29,1.52-8.94-7.38-15.8-7.83-5.75-.37-20.39,10.17-18.98-2.97.49-4.63,6.74-6.53,6.03-9.87-2.81-4.97-13.72-7.02-11.76-13.85,1.98-6.93,11.8-4.42,17.31-6.83s9.49-10.98,15.9-12.22ZM734.12,263.98c-.14-4.18,5.14-6.56,5.95-9.19,1.82-5.9-4.73-6.31-7.92-9.65-1.46-1.53-1.68-5.58-2.88-5.06-13.42,8.9-10.18,20.51,4.84,23.9Z"/>
      <path class="cls-1" d="M490.19,60l-.93,18.08-17.05,8.94c23.32,17.57-11.87,20.93-13.93,30.24-.53,3.39,3.67,4.5,5,6.76,2.76,4.7-5.63,8.69-11.17,5.08-2.7-1.76-6.64-12.36-6.07-15.81.2-1.2,17.17-12.46,20.15-13.29-1.5-5.1-9.15-11.2-7.8-16.62,1.66-6.63,17.28-5.8,20.87-11.29,2.79-4.27-.52-23.71,8.29-25.87,3.38-.83,23.62,8.15,25.78,11.77-2.76,16.79-12.1-1.58-23.14,2.02Z"/>
      <path class="cls-1" d="M596.22,204.08c.95,5.6,13.05,5.17,13.88,9.15-.86,5.84-5.64,15.98-12.46,14.62-2.63-.52-5.5-4.14-8.15-3.56-6.13,1.33-4.78,13.77-19.96,3.46-7.95-5.4-6.34-16.25-3.26-24.63,6.27-17.09,15.14-4.4,22.84-5.01,3.28-.26,5.67-3,8.51-3.68,14.65-3.49,14.49,11.68-1.39,9.65Z"/>
      <path class="cls-1" d="M254.11,94.02c.37,8.69,4.17,20.15,1.63,28.66-.72,2.41-14.22,15.76-16.43,15.26l-5.15-6.73c.95-4.49,14.74-5.82,14.08-20.17-.62-13.47-11.53-15-14.72-21.63-3.64-7.55,3.84-7.92,9.57-7.41,25.74,2.28,38.13,8.57,34.84,36.86-.46,3.99-5.57,24.02-10.89,15.24-5.79-9.57,12.52-36.17-12.93-40.07Z"/>
      <path class="cls-1" d="M359.82,276.44c1,1.42-.31,5.55,2.15,8.81,6.16,8.17,41.11,18.82,52.13,21.9,6.04,1.69,20.52,1.9,23.14,6.91,2.11,4.02-.61,8.86-4.45,9.8s-49.66-12.5-56.09-15.33c-5.66-2.49-23.03-13.37-25.57-18.44-1.6-3.18-1.9-11.13-.07-14.08s7.84-.88,8.76.42Z"/>
      <path class="cls-1" d="M431.96,94.23c5.26,8.01-13.69,8.64-17.32,12.28-1.11,1.11-3.49,7.11-4.04,9.05-1.54,5.51,2.03,7.56-6.43,6.47-.25-7.02-5.73-18.58-13.08-19.97-4.79-.9-9.76,2.06-11.01-5-1.37-7.71,2.99-3.91,8.09-5.99,3.16-1.29,12.45-5.7,14.13-7.91,3.02-3.98,2.93-16.77,8.84-21.14,9.62,5.94-.34,12.53,5.23,20.77,2.49,3.68,15.01,10.57,15.58,11.43ZM402.16,100.02c9.16-.2,16.89-4.96,7-11.97-3.58,3.57-8.11,6.08-7,11.97Z"/>
      <path class="cls-1" d="M642.23,24c4.58,8.08-14.84,23.32-17.98,20-1.56-1.65-.61-12.28-7.03-12.11-3.06.08-14.94,11.78-22.14,12.2-4.52.26-6.61-3.52-7.86-3.53s-3.24,3.37-5.98,3.53c-8.76.53-5-22.28.2-23.88,12.63-3.88,11.39,10.66,15.97,11.7,4.02.91,19.6-15.93,28.83-10.95,1.81.97,2.98,4.17,5.37,4.83,3.16.87,7.06-2.58,10.64-1.78Z"/>
      <path class="cls-1" d="M241.89,162.24c-3.04-2.39-10.79,1.89-6.24-9.67,1.96-4.97,7.38-1.99,10.35.57,10.13,8.73,5.95,25.89.51,36.34-2.94,5.65-23.03,22.42-29.33,20.52-9.87-2.98,8.08-14.35,9.9-17.92,6.98-13.69-14.04-14.28-10.93-24.93,1.77-6.05,9.14-.33,11.81,2.03,4.88,4.32,6.77,10.24,11.12,14.86,4.06.1,3.68-21.1,2.8-21.79Z"/>
      <path class="cls-1" d="M842.31,150.05l-7.92-.06c-.17-11.2-7.16-24.56-20.09-21.96-1.76-12.15,15.23-10.05,19.02-18,1.69-3.54-.1-13.2,4.02-14,8.85-1.71,6,15.97,7.98,20,4.11,8.36,23.76,8.24-2.11,17.89l-.89,16.13Z"/>
      <path class="cls-1" d="M178.06,260.09c-6.05.44-9.15,7.46-15.99,5.99-1.94-18.87,33.5-19.59,24.93,1.95-6.36,15.99-29.88,22.93-42.02,10.15-6.11-6.43-4.26-18.28,2.01-24.16,4.71-4.41,11.01-4.38,8.81,2.79-1.01,3.3-6.43,4.1-5.86,10.21,1.23,13.02,29.87,8.05,28.12-6.93Z"/>
      <path class="cls-1" d="M308.13,250.07c-8.01-1.61-24.27,8.01-21.95,16.85,1.54,5.89,22.8,4.37,21.93-4.83h-8.99c-4.77-8.54,8.56-10.61,14.14-6.15,10.16,8.1.21,18.08-8.7,21.6-23.92,9.43-40.1-12.31-17.46-29.46,7-5.31,21.73-11.77,21.03,2.01Z"/>
      <path class="cls-1" d="M278.57,231.62c-10.74-10.81,15.36-21.62,22.48-13.49,9.92,11.33-14.83,21.19-22.48,13.49Z"/>
      <path class="cls-1" d="M188.08,224.07c5.01,17.34-22.1,21.94-22.18,7.01-.07-11.41,14.13-5.85,22.18-7.01Z"/>
      <path class="cls-1" d="M584.4,189.87c-1.18-1.57.93-13.74,2.27-15.38,2.64-3.23,19.46-7.17,19.53-1.45.03,2.6-11.08,16.7-14.02,18.13-1.8.87-7.18-.5-7.77-1.29Z"/>
      <path class="cls-1" d="M786.3,160.04c-4.99.46-22.5-.48-23.82-5.19-2.54-9.08,4.62-7.75,12.87-6.87,7.96.85,12.27,3.39,10.94,12.06Z"/>
      <path class="cls-1" d="M688.25,13.99c4.27,8.95-14.03,36.29-14.12,17.04-.03-6.86,5.65-20.56,14.12-17.04Z"/>
      <path class="cls-1" d="M350.14,264.09c2.33,13.81-12.43,11.45-22.02,11.99-2.21-13.73,12.27-12.36,22.02-11.99Z"/>
      <path class="cls-1" d="M444.19,282.09c.87-1.02,6.63-.21,7.71,3.25,3.78,12.11-7.18,17.08-9.52,9.49-.76-2.46.57-11.29,1.81-12.75Z"/>
      <path class="cls-1" d="M231.1,242.09c10.1-2.9,6.6,11.41,0,9.98-3.8-.82-4.17-8.79,0-9.98Z"/>
    </g>
  </g>
</svg>