<?xml version="1.0" encoding="UTF-8"?>
<svg id="Layer_2" data-name="Layer 2" xmlns="http://www.w3.org/2000/svg" viewBox="0 0 757.16 1086.02">
  <defs>
    <style>
      .cls-1 {
        fill: #0049d1;
      }
    </style>
  </defs>
  <g id="Layer_1-2" data-name="Layer 1">
    <path class="cls-1" d="M747.53,260.2l-11.44,3.58-6.12-.59-15.21-7.88-13.22-13.12-8.26-4.71c-9.61,13.56-36.44,14.82-24.53,34.41l-.55,6.09-6.1,10.41-8.22,4.96-11.72-1.65-11.38-11.67-5.01-13.12-14.78,3.31-26.19-.21-5.12-4.77c1.37-12.44,15.45-7.44,24.84-8.08,5.34-.36,10.68-.42,15.62-.84,6.4-.55,10.76-6.69,17.2,3.96,1.8,2.97,1.43,6.87,3.33,9.84l11.46,9.95c1.73-10.47-7.08-19.65-1.74-29.74l36.72-26,5.65.14,16.58,6.62,10.3,9.46c1.93,2.71,8.97,9.24,11.52,6.58,5.01-5.2-15.74-24.53-12.96-34.27l21.16-25.05c1.34-2.85,7.02-11.12,4.97-13.14-5.98-5.91-39.21,20.6-44.77,26.02h-12.53s-29.88-32.69-29.88-32.69l-14.81-8.25-24.78-8.15h-9.89s-9.87-3.29-9.87-3.29h-23.06s-9.87,3.3-9.87,3.3l-12.6.57-23.18,9.76-6.98,6.19-7.8,15.26-.53,29.2,8.32,18.02,9.14,7.32,20.41,5.94,8.26,4.92c1.9,6.18-23.35,20.32-16.46,27.99,4.34,4.83,22.03-23.81,26.31-8.2,4.71,17.2-25.09,24.67-37.61,21.15-13.64-3.83,1.63-30.8,1.41-39.28l-13.11-5.02-11.53-11.53-8.29-21.35.5-32.47c10.45-28.69,40.83-43.87,70.32-41.65l9.86-3.3h13.21s13.11,3.48,13.11,3.48l36.87-16.05c18.63-2.84,38.4-10.91,46.82,11.44l-9.75,35.69,1.74,8.37,7,6.27c8.91,2.6,30.36-19.53,42.98-22.35l15.63-.14,8.23,8.23-1.15,17.91c-5.73,10.53-12.84,19.84-21.43,28.15l12.57,26.55.38,17.52ZM671.89,158.2c-2.24-10.27,8.93-19.34-1.78-26.35l-31.15,6.58c-.64,13.09,16.99,8.85,23.01,18.16l9.92,1.61Z"/>
    <path class="cls-1" d="M309.56,523.94l-.25,17.66-9.41,10.52,4.85,11.22,11.22,11.83v9.33s-8.3,8.3-8.3,8.3l-25.41-6.97-33.52-21.88-27.95,14.28-31.76,24.22-19.81,9.83-16.08.58-4.94-1.64-13.16-13.19-18.64-11-19-4.04-10.04.13-9.86,3.3-24.8-1.55-6.32-7.04,4.73-14.51,8.18-8.29,13.27-1.55c.29,16.54-17.88,17.31,8.24,16.48l13.09-3.47,9.94,3.48,16,.46,15.25,7.8,13.31,13.04,14.24,8.02,29.7-13.31,38.35-27.52,15.22-7.86h8.98c4.72,3.02,10.73,4.66,15.21,7.87,3.87,2.77,14.11,16.93,19.81,11.47,2.45-2.35-11.91-17.14-6.21-24.34l6.1-7.25c1.39-4.67-8.81-7.91-6.47-16.17,2.88-10.16,19.58,1.65,26.24,1.75Z"/>
    <path class="cls-1" d="M154.89,968.52l-13.27-1.55-11.63-11.43-6.36-.18-3.41,3.18-7.64,18.71-3.79,19.26.36,19.41,9.58,10.18,15.37,7.68,15.85,3.91,22.83.22,5.01,4.87.15,11.38h-31.29s-18.26-4.79-18.26-4.79l-19.56-10.08-11.53-11.52-4.5-8.68-.5-25.88c.88-6.01,12.77-31.62,9.89-34.57-3.2-3.27-21.57,15.9-23.11-1.63-1.06-12.09,20.2-21.34,30.76-22.02,21.13-14.21,24.17-1.1,36.76,13.81l8.28,19.71Z"/>
    <path class="cls-1" d="M398.58,681.95c12.62-3.22,10.43,7.08,15.99,15.3l.49,35.77c-13.11,53.39-33.23,95.12-85.55,118.66-6.26,2.82-32.82,11.93-37.93,11.59-12.12-.81-8.71-13.01.44-16.14,44.2-15.15,81.56-35.08,98.47-82.68,1.42-3.99,8.09-26.66,8.09-28.14v-54.35Z"/>
    <path class="cls-1" d="M332.97,533.96l10.77-3.23,8.7,4.66c17.75,16.92,34.94,38.05,44.57,60.82,7.73,18.28,13.07,37.88,11.5,57.79-.32,4-.3,10.03-5.01,11.47-13.92,4.26-10.26-34.14-13.06-39.63l-53.98-51.41-3.8-9.38v-16.56s-2.33-6.6-2.33-6.6l2.63-7.94ZM362.35,576.54c1.5-16.58-24.27-28.94-8.23-6.58l8.23,6.58Z"/>
    <path class="cls-1" d="M579.69,79.14l14.78-3.28c13.55,10.83-10.61,20.93-20.18,26.05l-11.03-4.69-16.49-16.45c.46-14.07,14.92-3.32,16.46-4.94l.02-18.13-7.19-22.45-12.62-17.03-8.68-4.64h-5.61s-8.68,4.65-8.68,4.65l-18.29,17.94-8.1.13.13-8.1,12.99-16.66,19.65-9.98,11.73-1.57,9.38,3.83,13.58,12.77,10.08,19.57,8.08,42.97Z"/>
    <path class="cls-1" d="M79.14,836.77l.14,9.68,29.37,15.17,23.29,6.35c11.01,15.52-4.94,12.21-17.63,11.04l-42.91-19.66-13.68-9.38-24.19-31.8-7.13-15.92c.08-5.66-2.19-9.38,5.02-8.32,12.17,1.79,21.84,32.94,33.2,36.13,2.33.66,25.19-11.74,32.64-9.77,9.5,2.51-.85,11.38-4.82,14.93l-13.29,1.54Z"/>
    <path class="cls-1" d="M352.58,961.86c1.94,2.24,22.38-6.78,26.24-3.21,6.86,6.35-24.33,21.01-28.49,22.55l-14.45,2.01-15.04,11.49-14.45-3.12v13.19s-11.29-.25-11.29-.25l-3.59-3-18.16-37.87c1.49-11.12,8.12-7.47,14.97-1.77l4.89,13.24,18.19-3.42,9.9,6.62,4.83.09c-.06-7.45,6.79-10.8,10.59-17.44s.79-12.92,12.59-7.37l3.27,8.26Z"/>
    <path class="cls-1" d="M19.87,774.18c-5.05,5.82-21.31-18.55-19.77-24.69l-.03-89.01c2.61-19.28,21.92-19.47,13.22.05l-.14,49.55,3.44,13.03v29.66s2.67,7.2,2.67,7.2l.62,14.2Z"/>
    <path class="cls-1" d="M260.27,859.83c3.07,13.33-18.26,19.73-28.59,22.45-4.21,1.11-15.19,3.5-19.15,3.9-12.29,1.25-50.12-.85-54.34-14.83-.88-2.91,2.92-7.57,4.99-8.17,7.49-2.19,25.42,7.94,39.61,6.67,19.61-1.76,37.44-12.72,57.48-10.01Z"/>
    <path class="cls-1" d="M163.72,491.5l5.91-.76c21.04-.41,11.78,23.42-9.81,16.63l-51.12,14.74c-9.79,2.68-15.88,11.46-24.14,15.38-4,1.9-7.26,3.29-8.7-2.13-2.9-10.96,17.01-20.11,24.01-25.39l63.85-18.47Z"/>
    <path class="cls-1" d="M587.92,185.19l19.85,12.44,1.2,17.86-12.86,13.48-8.68,4.5-25.5.14-8.23-8.23v-15.77s16.08-16.86,16.08-16.86l18.15-7.56ZM581.76,201.44c-10.89,2.54-22.76,19.21-10.23,22.59,8.08,2.18,36.17-12.82,19.59-22.92l-9.36.32Z"/>
    <polygon class="cls-1" points="283.32 784.06 283.8 766.43 303.19 736.39 302.62 726.86 296.45 713.28 296.85 690.54 308.01 681.95 309.62 713.28 315.77 726.88 315.76 742.4 311.26 751.08 301.39 760.97 294.94 780.86 283.32 784.06"/>
    <path class="cls-1" d="M270.15,988.29c3.58,13.78-7.12,8.89-13.24,14.76l-2.97,3.6,1.46,14.65c1.48,8.06-9.02,6.78-14.89,6.52v-13.18c-12.84,2.01-16.35,12.76-26.34-1.65l18.17-18.07,1.62-9.92,8.23-.06,9.83,3.35h18.12Z"/>
    <path class="cls-1" d="M47.88,625.94c5.37-1.4,16.86,11.24,23.52,12.7l27.66,1.97,14.75,8.31,4.86,11.6c-7.84,11.36-13.18-2.53-21.9-4.44l-22.58-.47-12.56-3.91-15.01-11.34-2.1-4.49c-3.97-3.1.89-9.29,3.36-9.93Z"/>
    <path class="cls-1" d="M191.11,668.77l11-.53,6.67-3.22,13.8-12.69,12.62,6.36,16.85-9.1,11.43,7.73c1.92,13.3-7.52,9.54-14.17,12.01-9.19,3.41-11.91,9.16-23.15,3.07l-16.83,9.63-15-1.65-3.21-11.62Z"/>
    <path class="cls-1" d="M161.06,770.44l5.4-9.4,6.36.16c2.67,8.96,30.79,13.42,28.18,21.22-4.3,12.84-38.69-6.02-48.16,7.83l-9.17.13-8.6-7.88c-3.76-2.9-4.28-9.18-3.22-13.24.66-2.54,5.75-7,8.14-1.57,8.79,5.43,10.67,8.24,21.07,2.76Z"/>
    <path class="cls-1" d="M560.24,974.83l9.55.32.41,14.41,4.59,5.28,1.61,13.21c-8.6,1.11-15.78-3.92-21.4-9.74l-8.13,8.2-13.27,1.54c-1.77-14.93,21.33-23.59,10.09-37.92,6.84-9.07,15.26-5.75,16.56,4.71Z"/>
    <path class="cls-1" d="M424.92,95.61l-16.47-3.3-3.49,12.99-9.62.25-.37,11.15c-12.41,15.92-11.62-9.54-16.29-19.49l3.52-11.38,14.38-.45,10.44-9.36h6.13s8.51,8.01,8.51,8.01l3.24,11.57Z"/>
    <path class="cls-1" d="M424.92,1044.29l2.98,11.03-6.28,12.03c12.41-.54,14.2,2.76,9.6,12.89-22.37,13.35-35.69,2.65-32.43-22.55,11.14-.82,13.39-16.19,26.13-13.4Z"/>
    <path class="cls-1" d="M592.81,823.66c.76.63.48,13.57,1.79,19.66.92,4.27,1.58,8.54-3.39,9.91-6.56,1.81-7.85-2.22-11.53-4.93-7.28-5.37-5.23-4.99-14.85,1.4l-7.97-7.96,9.26-13.59.4-17.72,9.98,1.54,6.33,10.16,9.98,1.55Z"/>
    <path class="cls-1" d="M629.04,955.39l3.4,18.11-5,8.19c-11.53-16.17-30.23,8.1-40.81-11.87l-.35-21.06c11.94-.98,8.43,15.98,21.02,12.84l10.71-5.81,11.03-.4Z"/>
    <path class="cls-1" d="M454.56,72.55l11.57-3.05,4.9,9.63-21.43,9.14-8.21-4.2-6.24-6.92.14-15.64,4.49-8.68,6.67-6.58c13.17,3.1,14.35,16,8.11,26.31Z"/>
    <path class="cls-1" d="M490.78,909.23l-11.51,3.45-6.31-.43-11.6-11.57.12-5.85,6.69-13.17,8.06-8.41,6.34-.36c15.29,3.03,4.03,13.31,4.73,21.44l3.48,14.89Z"/>
    <polygon class="cls-1" points="135.13 625.94 120.34 629.42 103.87 622.52 93.99 625.98 84.25 625.78 79.3 620.86 79.15 609.48 93.98 612.98 104.16 606.44 110.21 606.35 118.57 614.52 129.82 616.44 135.13 625.94"/>
    <path class="cls-1" d="M688.37,780.77c21.09-10.11,21.69,2.7,6.63,14.87l-14.61,4.8c-14.57-5.69-5.52-39.13,3.03-39.43,5.28-.18,5.73,15.36,4.94,19.75Z"/>
    <path class="cls-1" d="M546.76,873c-2.31,2.26-13.83-2.04-17.75-3.1l-11.78,11.44-13.27,1.55.22-12.94c15.35-4.8,24-28.66,39.34-8.51,2.37,3.11,5.45,9.41,3.24,11.57Z"/>
    <path class="cls-1" d="M464.3,1034.55l.54,5.86c12.74,4.42,27.56,5.74,10.65,16.58l-18.93,3.57-7.03-6.29-1.27-11.35,8.1-8.37h7.95Z"/>
    <path class="cls-1" d="M95.61,810.41c-8.31,8.59-26.37-21.2-26.47-31.22-.06-5.68.26-8.11,5.08-11.59,13.89,2.98,3.5,21.44,18.19,27.91,3.9,2.12,4.16,13.91,3.2,14.91Z"/>
    <path class="cls-1" d="M648.84,787.36l-.5,14.32-5.93,10.54-14.65,1.16-8.44-8.02c-2.41-11.81,3.64-7.46,12.83-8.33l3.31-8.2,13.38-1.46Z"/>
    <path class="cls-1" d="M520.41,1004.76c5.72,5.42-14.63,20.82-13.06,28.11l-8.34,8.12c-19.83-13.34,13.18-44.02,21.39-36.23Z"/>
    <path class="cls-1" d="M263.56,833.47c-3.54-9.94,7.93-13.06,9.53-18.46,2.06-6.95-3.15-15.68,5.29-21.05,17.2,12.45,7.03,43.32-14.82,39.52Z"/>
    <path class="cls-1" d="M324.85,652.48l14.38,4.83c3.33,4.33,19.47,7.7,19.82,13.1.33,5.12-8.66,4.51-13.26,3.39-3.99-.97-8.08-3.34-12.02-4.44-4.22-1.18-8.76.15-12.34-.83-9.5-2.61-3.33-12.73,3.42-16.06Z"/>
    <path class="cls-1" d="M138.42,705.01c2.58,9.11,4.27,11.27-1.68,19.73-2.26,3.22-16.03,17.61-19.72,16.5-14.7-4.46,6.04-23.09,10.95-28.57,2.97-3.32,2.92-9.45,10.45-7.66Z"/>
    <path class="cls-1" d="M31.41,599.6c17.32,1.19,1.72,22.76-3.3,23.05-6.68.38-7.17-19.58,3.3-23.05Z"/>
    <path class="cls-1" d="M102.2,744.54l-1.55,13.27-3.36,3.23c-17.55,13.97-15.95-17.22,4.9-16.5Z"/>
    <path class="cls-1" d="M250.39,507.36c4.24,1.5,7.33-2.98,8.24-3,1.16-.03,9.27,7.68,8.22,11.24-2.88,9.72-20.71,4.81-16.46-8.23Z"/>
    <path class="cls-1" d="M619.19,820.36l.02,9.82c-4.84.47-14.91.73-16.46-4.94-3.77-13.8,8.36-6.77,16.44-4.87Z"/>
    <polygon class="cls-1" points="224.04 510.65 207.58 510.65 207.58 502.43 212.53 497.48 215.8 497.48 224.04 505.72 224.04 510.65"/>
    <polygon class="cls-1" points="591.22 777.48 597.8 777.48 602.74 782.42 602.74 785.7 597.8 790.65 594.52 790.65 586.29 782.41 591.22 777.48"/>
    <polygon class="cls-1" points="533.59 201.02 533.59 187.85 541.82 187.85 546.76 192.79 546.76 196.07 541.82 201.01 533.59 201.02"/>
    <polygon class="cls-1" points="135.08 672.08 138.43 683.58 133.49 688.52 125.39 680.16 125.26 672.07 135.08 672.08"/>
    <polygon class="cls-1" points="375.53 672.07 383.75 672.07 388.69 677.01 388.69 680.29 383.75 685.24 380.47 685.24 375.53 680.29 375.53 672.07"/>
    <polygon class="cls-1" points="607.69 161.49 610.97 161.49 615.91 166.44 615.91 169.72 610.97 174.66 607.69 174.66 602.75 169.72 602.75 166.44 607.69 161.49"/>
  </g>
</svg>