<?xml version="1.0" encoding="UTF-8"?>
<svg id="Layer_2" data-name="Layer 2" xmlns="http://www.w3.org/2000/svg" viewBox="0 0 432.52 467.1">
  <defs>
    <style>
      .cls-1 {
        fill: #3556a6;
      }
    </style>
  </defs>
  <g id="Layer_1-2" data-name="Layer 1">
    <g id="MvBRdE.tif">
      <g>
        <path class="cls-1" d="M259.71,165.87c-1.97.43-3.98-.42-5.73-.51-6.9-.34-13.61.81-20.49.52-11.32-.49-23.05-3.77-34.42-1.98-4.54.72-5.43,4.48-6.52,8.46-3.06,11.07-4.53,20.71-4.27,32.25.02,1.1.5,2.01.53,2.97.24,7.4-1.05,14.25.71,21.77.68,2.92,3.48,4.54,6.16,5.33,7.93,2.33,17.47-.51,25.38-.85,7.26-.31,15-.18,22.38-1.06,2.87-.34,9.57-1.67,11.63-3.61,1.9-1.79,4.36-7.14,5.01-9.72,1.51-6.01,2.34-14.58,2.66-20.82.4-7.95-.35-16.26-.02-24.25,1.29-.4,1.43,1.33,1.51,2.23.98,11.57.45,33.73-2.76,44.73-1.29,4.42-4.37,9.51-8.75,11.23-8.57,3.37-22.43,2.63-31.72,3.24-7.68.51-15.43,2.53-23.43,1.48-4.08-.54-9.62-3.81-10.25-8.23-1.19-8.36-.31-17.92-.5-26.48-.14-6.54-.82-9.42.72-16.22,1.24-5.49,2.54-13.39,4.66-18.32,2.02-4.69,3.58-5.71,8.83-6.16,12.19-1.05,24.01,2.54,35.97,2.55,2.42,0,5.98-.94,8.48-1.05,4.7-.22,8.81.55,13.42,1.08l.82,1.43Z"/>
        <path class="cls-1" d="M158.33,328.23c-.28,1.58,1.64,1.47,2.37,2.12.12.1,1.7,2.15,1.85,2.39,2.33,3.72,2.46,7.85.21,11.65-1.72,2.9-4.59,2.59-7.68,2.32-3.7-.32-5.24-1.67-8.27-3.23-.6-.31-1.48-.11-1.86-.41-.21-.17.05-1.22-.85-.85-.53.22-1.7,1.85-2.58,2.42-2.34,1.52-8.72,2.76-11.32,1.99-3.85-1.13-2.12-11.72.15-14.18.73-.79,1.87-.39,1.52-1.71-2.98-.78-4.79-1.73-6.41-4.33-2-3.2-3.2-7.87-1.11-11.33.17-.28,2.92-1.62,3.38-1.72,2.57-.56,8.09.27,10.63,1.15,2.37.82,4.45,3.13,7.03,2.46l.72,1.28c4.23-4.84,10.39-5.3,16.39-5.93,5.27,3.74.52,13.7-4.15,15.93ZM144.84,324.24c-2.99-.46-.66-2.29-.65-3.25.02-1.89-4.59-4.05-6.2-4.64-3.08-1.12-7.47-2.13-10.49-.72s-1.91,7.49-.14,9.86c3.3,4.41,8.68,3.63,13.66,3.76l3.82-5.01ZM162.78,315.27c-5.82-1.62-13.26.32-16.36,5.82.37,1.24-.28,4.34.14,5.15,1.1,2.1,4.93,2.18,6.97,1.95,5.76-.67,9.95-7.34,9.24-12.91ZM147.45,333.33c-.55.76-.8,5.54-.61,6.63.51,3,9.88,5.9,12.51,5.03,3.59-1.19,3.59-8.14,1.9-10.95-2.23-3.72-6.66-4.42-10.68-3.82-1.39.21-1.3,1.51-2.02,2.5-.24.33-.93.38-1.1.62ZM141.33,331.23c-2.96.03-5.41-.54-7.95,1.27-3.21,2.29-3.85,8.06-2.98,11.67,7.57,1.71,13.56-1.32,14.44-9.43-1.97-.55-3.93-1.08-3.5-3.51Z"/>
        <path class="cls-1" d="M340.62,160.88c-.15,2.81-4.83.78-6.79.54-5.94-.72-10.49-1.08-16.41-1.02-8.29.08-16.31-.4-24.37,2.1-2.99.93-4.57,3.48-5.76,6.23-1.6,3.69-3.46,11.35-4.47,15.51-2.49,10.22-3.76,21.37-3.61,31.87.01.72-.34,1.46-.31,1.99.12,2.18,2.77,3.25,4.64,3.62,9.3,1.84,21.23.79,30.86,1.1,6.37.21,13.06,1.45,19.48,1.02,1.19-.08,3.8-.37,4.89-.6,1.59-.34,3.81-3.23,4.24-4.76,1.84-6.67,2.36-14.43,3.73-21.24.51-2.52,2.04-5.41,2.33-7.66s-.2-5.02.07-7.42c.39-3.39,1.72-6.82,1.97-10.52.06-.95-.17-.81.98-.76,1.36,4.17-1.07,8.63-1.45,12.78-.59,6.38-1.38,11.16-2.59,17.39-1.07,5.54-1.94,12.68-3.58,17.9-1.09,3.45-3.34,6.02-7.1,6.39-5.78.56-11.77-.44-17.47-.53-8.74-.14-17.31-.03-25.99-.48-4.25-.22-15.84.72-16.72-5.26-.37-2.5-.15-7.29-.03-9.98.63-14.16,4.5-30.17,9.59-43.36,1.83-3.09,3.35-4.16,6.78-5.21,5.39-1.64,12.71-1.98,18.34-2.14,7.76-.22,15.36.52,22.99,1.5,1.92.25,3.77,1,5.73,1.01Z"/>
        <path class="cls-1" d="M116.37,136.4v5.5s5,.25,5,.25l-3.75,93.67c-2.02,2.25-5.29,1.82-7.96,2.52-7.16,1.88-14.94,6.13-22.26,8.71-8.92,3.15-29.62,10.2-37.93,4.96-5.16-3.25-3.63-9.41-4.02-14.46-.34-4.35-1.55-9.41-2.02-13.97-1.28-12.57-1.19-23.93-1.48-36.49-.14-5.93-1.14-10.08.06-16.41.34-1.79,1.35-5.79,2.21-7.28,1.27-2.2,6.2-3.23,8.69-3.8,4.83-1.1,8.97-1.24,13.77-1.72,12.88-1.29,26.06-1.74,38.94-1,1.99.11,4.02-.11,6.01,0,.82.04,1.4.44.74,1-2.74-.1-5.52.14-8.26.03-9.11-.37-16.92.37-25.96.49-5.75.07-12.11.25-17.93,1.04-3.29.44-9.29,1.61-12.41,2.57-2.43.75-3.2,3.43-3.84,5.65-1.16,4.04-1.72,9.28-1.53,13.47.62,14.11.63,27.89,2,41.96.44,4.55,1.63,9.54,2.01,13.97.24,2.75-.48,9.71,1.26,11.73.35.4,2.85,2.35,3.37,2.62,6.4,3.36,20.01-.33,26.83-2.35,8.62-2.55,16.61-6.36,24.97-9.49,4.46-1.68,8.88-2.5,13.43-3.8l3.56-91.12c-.02-.39-.14-.8-.48-1.02-1.82-1.21-7.5,1.36-9.76,1.28-.45-.01-.32-.9-.27-1.25.06-.4,4.13-1.79,4.94-1.81-.19-1.43.76-2.6,1.04-3.71.49-1.91-2.61.7-3.23.78-.73.09-1.93-.22-1.5-1,.48-.85,1.13.11,1.88-.07.96-.23,2.17-2.06,3.86-1.43Z"/>
        <path class="cls-1" d="M356.58,301.79c.28.4.37,1.59-.71,1.46-1.5-.19-2.91-1.13-4.11-1.39-8.63-1.86-24.64-3.09-33.27-2.44-7.7.58-10.07,3.01-12.09,10.32-1.7,6.13-3.35,13.6-4.61,19.87-2,9.92-3.48,22.34-.99,32.25.34,1.37,1.35,1.95,2.72,2.25,4.66,1.02,9.66.39,14.39.59,9.36.4,19.11,1.51,28.48.53,3.93-.41,6.69-5.61,7.97-9.01,4.59-12.11,7.99-30.33,8.73-43.26.05-.89-1.24-2.41.26-2.19.4.41.99.76,1.17,1.33.45,1.47-.76,6-.92,7.89-1.1,12.37-3.5,30.87-9.89,41.56-3.86,6.46-5.79,4.76-12.34,5.15-10.74.63-21.87.22-32.45-.5-3.71-.25-9.27.65-10.13-4.35-2.99-17.32.68-30.48,4.76-46.96,1.1-4.44,1.4-10.16,4.84-13.64,1.7-1.72,5.69-3.19,8.06-3.43,9.48-.97,23.85.3,33.29,2.07.93.17,6.64,1.62,6.84,1.91Z"/>
        <path class="cls-1" d="M97.2,333.05c-.35.39-.96,1-1.35,1.38-.47.46-1.3,0-.96,1.29.62,0,1.08.32,1.51.73,3.28,3.05,6.14,8.6,4.59,13.13-3.06,8.91-15.46,6.5-18.84-.85-1.04.93-1.25,2.37-2.02,3.47-4.89,6.92-17.97,6.57-18.72-3.22-.14-1.82.95-6.11,1.78-7.73.71-1.39,3.49-2.88,4.23-4.51-6.5.32-11.05-3.9-8.74-10.49,3.24-9.27,15.37-12.75,18.98-2,1.4-2.37,2.38-5.16,4.25-7.24,3-3.34,10.92-6.06,14.74-3.25,1.76,1.3,3.06,3.68,3.76,5.73,2.07,6.03.9,9.1-3.21,13.58ZM91.9,334.22c2.38-.33,5.63-4,6.59-6.15,1.94-4.38-.03-12.78-5.32-13.34-7.34-.79-12.03,5.16-13.99,11.51l-2.73.46c-1.38-12.14-15.4-7.88-16.49,1.82-.37,3.26,2.69,5.92,5.72,6.21,1.83.18,6.95-.91,7.25,1.24.16,1.15-1.97,1.17-2.85,1.65-4.28,2.34-7.2,6.85-6.66,11.85.73,6.84,10.76,7,14.51,2.49.71-.85,3.19-5.14,3.39-6.1.27-1.28-.47-4.07,1.81-3.63,1.24.24.66,3.18.8,4.21.95,6.64,10.4,9.54,14.47,4.02,2-2.71,1.1-7.1-.78-9.72-.59-.83-6.73-5.88-5.72-6.52Z"/>
        <path class="cls-1" d="M419.04,50.47l5.91-.41c2.33,3.19,3.42,6.81,4.02,10.71.5,3.2.19,4.49.05,7.43-.08,1.59.32,4.07-.08,5.42-.33,1.1-2.47,1.83-2.42,3.33-1.27.35-1.18-.71-1.01-1.68.06-.36,1.17-.49,1.64-1.44,1.73-3.44.36-8.89-.14-12.6-.13-.94.12-1.98-.02-2.98-.38-2.71-2.05-7.02-5.47-6.06-2.9.82-3.18,3.3-4.97,5.06-1.33,1.31-7.16,5.7-7.77,6.72-1.1,1.82.34,5.4-4.39,5.35-2.54-.03-4.58-1.35-6.84-1.85-.28,1.63-.36,2.81-2.23,3.03l-.28-1.02h-.98c.23,1.38-1.3,1.01-2.27,1.46-1.1.5-3.64,1.48-4.38,2-.65.46-1.11,2.02-2.1,2.52-1.3.65-.11-1.19-.29-1.44-1.31.16-1.61-2.19-2.03-2.47-.53-.35-1.71.2-2.33-.2-.12-.08-.09-.52-.27-.69-.52-.47-1.1-.57-1.47-1.34-.31-.66,0-1.16-.11-1.6-.11-.49-.65-.8-.63-1.39.02-.46.38-1.02.39-1.6.06-3.16.45-5.42.97-8.43.08-.48.99-.41,1.26-.81.61-.88,0-3.42,2.25-2.27-1.57,1.19-1.18,3.23-1.73,4.77-.24.67-.87,1.19-1.15,1.85-1.24,3.03-.53,6.47-.11,9.6,1.98.31,3.97-.22,5.82-.33.61-.04,1.22.37,1.86.32,1.84-.15,4.22-1.16,5.56-2.46l.69.06.3.95c1.54.07,1.91-1.58,2.39-1.91.34-.23.98-.01,1.25-.2.18-.12.76-2.5,2.1-3.68,4.38-3.85,3.93.61,7.97,1.24,1.57-3.19,4.79-5.49,7.03-8.22.34-.41,2.64-3.54,2.74-3.75,1.04-2.06.16-4.64-1.88-5.61-5.45-2.59-10.73-2.32-16.61-2.38-.65,0-1.36-.49-1.91-.39-.16.03-2.2,1.05-2.36,1.22-1.32,1.37-1.8,4.74-2.88,6.5,1.47,2.98,2.2,6.53,4.9,8.64-1.8.27-2.57-1.54-3.75-2.49l-.25,1.5c-1.29.26-2.78-1-2.99-2.25-.64-3.72-.07-8.75,2.08-11.91.95-1.4,3.04-2.56,4.68-2.81,4.29-.64,11.54.26,15.87,1.11.92.18,4.95,2.29,5.56,2.9,1.79,1.78.94,2.78.78,4.96ZM403.05,62.46c-3.12-.34-4.11,3.22-1.75,4.99.47.01,2.24-4.49,1.75-4.99ZM405.05,63.96c-1.68-.16-1.35,2-2.48,2.75,2.57,2.53,3.4-.12,2.48-2.75Z"/>
        <path class="cls-1" d="M207.78,308.24c1.38.36.95-.83,1.56-1.68,1.66-2.3,4.99-4.29,7.8-4.69,10.46-1.48,18.82,13.16,8.3,19.29-1.19.69-2.77.67-3.67,1.82,4.95,4.61,5.46,10.04,0,14.5-2.03,1.66-3.56,2.38-6.27,2.27-6.52-.28-10.8-3.37-11.72-10.02-4.32,3.65-10.56,4.57-14.21-.52-3.19-4.46-2.07-9.17,2.17-12.28-1.11-2.76-3.13-3.55-3.46-6.92-1.2-12.33,16.67-11.81,19.49-1.76ZM201.53,318.24c-1.65.4-6.39,0-8.49,0-1.96,0-3.66,4.64-3.73,6.3-.05,1.16,1.8,4.33,2.62,5.06.54.47,3.4,1.56,4.16,1.63,3.94.36,7.16-4.02,8.94-6.98,1.18-.02.64,5.89.86,7.13,1,5.58,9.42,8.43,13.85,5.59.91-.58,3.64-3.61,3.91-4.58,1.01-3.67-2.02-8.55-5.85-9.18l-.04-1.46c3.07-.19,7.72-2.19,9.41-4.83,4.94-7.71-6.6-16.83-13.66-11.67-2.23,1.63-3.9,4.03-4.22,6.81-.04.38.72,3.85-.76,3.18-1.25-.56-.48-3.13-1.02-4.48-.71-1.77-2.94-4.86-4.48-6.01-4.08-3.06-11.89-3.22-13.14,2.86-.46,2.23,1.51,7.38,3.74,8.05,1.98.59,6-.35,8.17.82.89.48.31,1.62-.26,1.76Z"/>
        <path class="cls-1" d="M274.2,435.63c1.94.34,3.58-.54,5.35-.9,2.45-.49.54,1.67-.84,2.16-7.27,2.59-6.77-1.22-6.52-7.02.73-16.92,3.7-33.91,4.99-50.95,1.28-16.84,3.36-33.22,5.46-49.99.96-7.68,1.22-16.42,2.59-23.89.5-2.74,2.43-6.61,4.44-8.55s6.27-1.41,8,.52l-5.74.25c-4.67,2.63-5.08,8.45-5.7,13.28-2.88,22.5-5.35,45.31-7.04,67.89-1.24,16.47-4.3,33.18-4.99,49.46-.11,2.57.1,5.18,0,7.75Z"/>
        <path class="cls-1" d="M40.45,315.24c.03,1.5-.01,4.61-.96,5.79-1.27,1.58-4.54,0-6.13,3.86-1.23,2.96-.69,5.14-.89,8.1-.71,10.53.66,23.78,2.04,34.41.41,3.18,2.24,15.9,3.92,17.58.84.84,1.96.39,1.52,2.21l-3.89-1.1c-.35-.35-1.27-4.78-1.47-5.77-1.93-9.37-2.87-19.8-3.64-29.33-.62-7.7-2.01-20.86,1.11-27.88.31-.69,1.12-1.09,1.31-1.69.49-1.59-.9-4.62,1.58-4.66v3.5c.49.53,4.26-.7,4.75-1.48.27-.43.36-2.88-1.28-2.3-.5.17-2.55,1.82-2.46.04.45-.81,4.25-1.51,4.49-1.25Z"/>
        <path class="cls-1" d="M194.89,205.94c.27-.33,2.18-.81,2.39-.61.15,1.01-.82,1.25-.99,2.25s-.21,3.32.48,4.01c1.33,1.32,7.53.6,9.76.73,5.96.33,12.01,1.08,17.96,1.52,3.53.26,5.26.38,5.28-3.76s-5.98-2.7-8.76-3.75c-7.62.09-15.15-.78-22.73-.99l.23-1.52c1.35-1.21,3.05-.05,4.51.03,7.59.39,16.54-.25,23.94,1.03,2.17.38,3.89.73,4.27,3.22.27,1.77-.04,6.91-2.22,7.23-2.37.35-5.12-.18-7.5-.26-5.97-.19-11.93-.8-17.97-1.26-4.46-.34-9.71,1.52-9.26-5.24.03-.51.39-2.36.61-2.64Z"/>
        <path class="cls-1" d="M71.42,419.65c-.21,1.01-1,.86-1.74,1-4.97.94-10.43.39-15.44,1.04-1.22.16-5.21.91-5.83,1.66-.83,1-.32,2.38-.44,3.55-.34,3.37.04,7.97.53,11.44,1.29,9.27,5.07,5.72,11.83,4.42,2.29-.44,14.54-2.34,15.38-3.6.6-.89-.2-3.59,1.47-4.52,1.37-.06.36,5.02-.21,5.78-.28.37-1.06.83-1.51.98-2.88.97-6.88,1.95-9.88,2.61s-8.36,1.81-11.41,2.07c-4.84.42-6.13-.59-7.09-5.31-.73-3.59-1.47-11.8-1.06-15.33.23-2.03,1.09-4.18,3.3-4.69,1.86-.43,5.41-.9,7.39-1.1,3.18-.32,8.93-.73,12.02-.52.99.07,1.79.3,2.72.53Z"/>
        <path class="cls-1" d="M80.91,412.4c-.21.96-1.88.86-1.99-.02-.05-.38.48-1.27.5-1.97.07-2.48.41-9.04-1.25-10.76-.33-.34-.54-.42-1.01-.49-2.04-.3-6.82-.17-9,0-3.28.26-9.08,1.36-12.34,2.14-1.13.27-3.51.97-4.37,1.62-2.31,1.72-2.52,10.55-2.53,13.42l1.39.72,15.35-1.94c1.12-.43,3.25.92,1.77,1.8-1.01.61-3.86.1-5.27.23-3.07.28-11.44,2.38-13.72,1.26-.95-.47-1.41-1.49-1.52-2.47-.26-2.23,1.19-11.36,2.3-13.24.48-.81,1.37-1.39,2.21-1.78,4.99-2.28,19.8-4.32,25.24-3.76.81.08,1.59.22,2.22.78.28.25,2.01,3.28,2.01,3.48,0,2.75.5,8.74,0,10.99Z"/>
        <path class="cls-1" d="M234.24,439.62c-.42-1.68,2.02-.86,3.2-1.04,5.92-.86,7.35-4.94,8.24-10.24,2.36-14.19,4.01-32.04-.6-45.77-.43-1.28-1.02-2.99-2.35-3.64-.9-.44-3.28.05-3.5-1-.4-1.92,3.69-.8,4.51-.51,1.92.67,2.68,2.96,3.23,4.76,4.45,14.38,3.14,30.95.7,45.67-1.22,7.36-4.73,14.29-13.44,11.78Z"/>
        <path class="cls-1" d="M226.75,220.32c-4.26.43-8.57-.42-12.71-.51-4.48-.1-10.74-.44-15.03,0-.59.06-1.06.14-1.6.39-1.84.86-1.92,5.46.72,6.01,1.2.25,4.03.52,5.38.61,5.04.35,10.42.35,15.5.48,2.08.05,4.25,1.14,6.51-.46l.97-5.52c1.9.17,1.11,5.36.66,6.65-.36,1.03-3.16,1.72-4.21,1.81-2.87.26-8.32-.79-11.42-.98-4.62-.29-9.85.17-14.37-1.12s-2.81-4.7-2.29-8.28c4.1-2.19,9.1-1.74,13.67-1.61s9.63.49,13.95,1.03c1.65.21,3.42-.64,4.26,1.48Z"/>
        <path class="cls-1" d="M201.78,188.35l28.13,2.59c2.8,1.59,1.82,7.66.85,10.16-.42.28-.88.5-1.37.62-3.65.91-13.73.42-17.88.12-3.28-.24-7.05-1.21-10.38-1.61-1.16-.48-2.53-5.39-2.74-6.77-.15-.99-.28-1.46.65-2.12,1.16-.04,1.09.91,1.31,1.68.38,1.27.85,5.51,1.74,5.76,1.78.48,4.95.35,6.89.6,5.86.76,11.53,1.43,17.55.98,1.25-.09,3-.2,3.23-1.76,1.25-8.54-2.86-5.79-8.76-6.24-4.98-.38-11.03-.88-15.94-1.54-1.29-.17-3.35-.83-3.28-2.46Z"/>
        <path class="cls-1" d="M237.24,108.42c.53.58-3.24,6.05-3.5,7.24,0,.96,3.37-.92,3.5.75-4-.52-4.74,1.2-6.74,4-.86-.66.89-3.38.75-3.49-.91.04-1.85-.09-2.76-.01-3.59.32-6.95.86-10.49.91-.82.01-2.74-.43-3.4-.26-2.84.72-1.09.27-3.6-.13s-5.77.51-8.42-.03c-.54.11.03,1.55-1.3,1.02l-.27-1.53c-2.85-.25-5.66.61-8.43-.01-.83,1.98-1.18,1.32-1.26-.23l-2.53-.23v-2.5c1.55,1.06,3.97,2.42,5.5.75.19-.36-1.78.06-.76-1.26.66-.85,4.94-2.75,5.76-1.99l-.06,1.68-2.93,2.31,5.19.03.31-1.02h.49c.26,2.39,3.29,2.05,3-.5.88-.22.1,1.5,1.24.99.62-.27,1.55-1.78,2.25-2.25l-2.49.75v-.99c.43-.13,4.8-2,3.99-.26-.52,1.11-3,1.9-2.49,3.75,1.55-.2,3.73.34,5.16-.08.96-.29,2.63-2.85,4.07-2.9,1.94-.07,2.38,1.88,2.26,3.49,3.52.74,1.49-3.23,4.74-3.5l-.23,1.48.98.52-1.99,1,2.19.02.56-1.04c2.06.8,3.67,1.41,5.99,1.02,1.54-.26,3.66-4.93,4.51-6.5.17-.32.43-1.87,1.23-.99Z"/>
        <path class="cls-1" d="M324.39,190.85c-.56-.14-1.15-1.21-.25-1.75s1.22.12,1.87.16c1.51.11,1.22-2.39,1.06-3.34l-2.86-1.12c-.61-2.59.98-4.65,2.68-6.43l.76,1.49,2.24-1.5c1.41,1.55,1.69,4.54.87,6.36s-4.38,2.25-1.83,4.6c2.85-1.17,6.42,1.08,5.71-3.47h-2.01c-.62-1.45.77-2.63.89-3.32.18-1-1.07-2.01.38-3.66,1.52-1.73,2.61-.57,3.98-.57,1.12,0,2.15-1.16,3.28.27s.17,6.67-1.54,7.54-3.94-1.98-3.49,2.74l3.47.03c.2.41.68,1.97-.22,1.97h-14.98ZM339.62,184.85c.15-1.11-.82-1.97-.27-2.99.51-.95,1.6-.66.77-2.51l-1.75,1.5-.7-.06-.34-.96c-1.08-.23-3.46.25-2.47,1.54,2.92,1.08.09,1.62-.74,2.97.98.41,1.82-.82,2.25-.85.77-.06,2.02,1.84,3.25,1.35Z"/>
        <path class="cls-1" d="M93.53,439.99c-.37-.42-1.28-2.55-1.52-3.22-.81-2.27-1.83-7.57-1.64-9.9.17-2.08,1.95-2.15,2.03-1.48.15,1.26-.13,2.71,0,4,.23,2.41,1.25,8.33,3.31,9.68,2.19,1.44,13.2.5,15.2-1.68.74-.81,2.18-4.01,2.37-5.12.61-3.52.6-7.8.08-11.35-.69-4.66-4.73-4.19-8.67-3.74-1.81.21-4.34,1.39-6.08,1.45-.65.02-1.35-.58-1.21-1.23s2.2-.99,2.88-1.12c2.64-.51,6.69-.99,9.36-1.15s3.95,1.1,4.99,3.52c1.39,3.2.96,11.55,0,14.99s-2.11,5.48-5.75,6.74-9.55,1.39-13.22.74c-.45-.08-1.85-.81-2.12-1.12Z"/>
        <path class="cls-1" d="M325.14,333.22c.16.96-.43,1.36-1.24,1.5-3.42.61-8.45-.53-12-.01-1.28.18-1.52,1.68-1.7,2.79-.52,3.24-1.12,7.29-1.49,10.5-.15,1.27-.33,6.41.45,6.96,1.71,1.21,6.06.63,8.26.73,1.48.07,2.7.6,4.51.53,1.24-.05,2.42-.49,3.64-.6.82-2.91,1.81-5.82,2.46-8.79.41-1.89.29-4.04.85-6.14.1-.38,1.3-4.65,2.26-3.48.49,1.84-.62,3.33-.89,4.85-.47,2.72-.57,5.55-1.23,8.26-.21.86-1.85,6.03-2.11,6.38-.92,1.22-7.32,1.06-9.01.99-.83-.03-1.62-.45-2.48-.52-4.3-.32-9.16,1.07-8.76-5.24.26-4.15,1.11-11.96,2.12-15.87.11-.43.77-2.01,1-2.24,1.78-1.8,12.48-.05,15.37-.61Z"/>
        <path class="cls-1" d="M316.99,212.67c-1.73,1.77-3.96.96-6.1,1.15-4.23.38-7.77.37-11.99.5-.86.03-1.64.53-2.49.53-3.01.03-6.08-2.78-6.23-5.81-.07-1.49,1.3-2.94.49-4.71,1.29.13,2.47-.54,3.75-.54,3.27,0,6.85.66,10.5.55,2.89-.09,6.26-1.06,9.38-.41,4.07.86,5.62,5.75,2.69,8.73ZM293.49,205.87c-1.87.56-1.92,6.37,1.96,6.94,2.19.32,6.13.12,8.49.04,2.65-.09,6.91-.24,9.43-.56,4.36-.55,4.83-5.78,0-6.42-5.31-.7-11.08.74-16.47.49-1.1-.05-2.61-.73-3.41-.49Z"/>
        <path class="cls-1" d="M321.4,330.22c1.01.27,1.08,1.78-.49,2.01-2.1-.12-9.5-.05-10.75-1.26-1.81-1.75-.64-5-.49-6.98.28-3.73.57-15.82,3.5-17.98.75-.55,2.26-.71,3.21-.78,3.03-.23,9.06-.32,11.98.05,8.05,1.05,4.86,11.32,4.78,16.96h-1.5c-.47-4.78,3.54-14.74-3.73-15.51-2.09-.22-11.15-.29-12.78.24-.35.11-.68.31-.97.52-2.84,6.82-2.68,14.59-3.03,21.94.03.15,1.68.79,1.78.79,1.97,0,7.03-.39,8.49,0Z"/>
        <path class="cls-1" d="M345.12,331.73l5.66-.09c2.56-.75,3.02-8.53,3.57-10.92.82-3.55,2.52-6.97,2.2-10.67-.2-.67-.67-.63-1.19-.8-3.56-1.19-9.75-1.7-13.59-1.86-.46-.02-1.23.16-1.54.47-.39.39-1.06,4.28-1.11,5.13-.17,2.84.73,5.61-.46,8.54-.31.77-.53,1.39-1.53,1.21.71-3.39.25-6.83.49-10.25.06-.8.54-4.3.76-4.74.36-.74,2.04-2.16,2.97-2.02,2.85.24,6.19.21,8.97.57,1.33.17,5.72.9,6.67,1.33,1.04.47,1.67,1.69,1.61,2.82-.23,3.91-1.95,8.3-2.86,12.16-.65,2.77-.57,8.34-3.34,10.15-1.72,1.12-8.97.5-7.27-1.03Z"/>
        <path class="cls-1" d="M349.5,358.09c-.39.4-1.53.57-2.13.62-3.17.29-11.16-.01-13.73-1.78-1.16-.8-1.64-1.46-1.5-2.92.32-3.33,2.42-7.96,2.51-11.06.04-1.41-.8-2.75-.53-4.23,2.79-.57,2.12,3.76,1.95,5.7-.2,2.23-2.63,9.53-1.73,10.82s10.24,2.19,12.04,1.99c3.01-.33,2.84-3.48,3.34-5.65.57-2.5,1.22-5.01,1.39-7.6.1-1.47-.09-2.97.02-4.44-2.05-1.79-5.25-1.28-7.54-2.04-.76-.25-1.66-.81-1.47-1.77,3.47-.07,7.22.74,10.25,2.48.48.74.3,7.32.19,8.72-.17,2.06-.92,6.49-1.58,8.41-.09.26-1.38,2.65-1.48,2.76Z"/>
        <path class="cls-1" d="M315.4,190.85c3.37.71,2.57,5.55,2.03,8.02l-2.15.85-22.79.14c-.9-.15-2.69-6.82.19-6.52.11,1.79-.65,4.02,1.34,4.91l20.39.08c2.45.06,2.09-5.49,1-5.49h-20.48c-.22,0-1.08-.78-1.75-.5-.21-.43.43-1.5.75-1.5h21.48Z"/>
        <path class="cls-1" d="M88.4,397.91c.08-.28,1.88-1.88,2.33-2.17,3.93-2.53,9.91-2.83,14.41-3.06,1.89-.1,2.06-1.1,4.21.26,2.39,1.52,2.86,5.72,3.04,8.44.27,3.87,1.1,11.81-4.52,11.26-.22-1.5,1.77-1.55,2.26-2.48.74-1.42.25-11.67-.39-13.62-.52-1.61-1.38-2.31-3.12-2.4-3.18.52-15.63,1.38-16.65,4.86-.81,2.74.37,8.62-.1,11.89-.12.83-.58,2.01-1.48,2.27v-15.24Z"/>
        <path class="cls-1" d="M256.97,200.34c1,.27.98,2.31.02,2.4-.21.02-.91-.41-1.5-.42-1.84-.03-3.68.05-5.52.02l-12.24-1.74-.48-1.76c1.24-.04,2.51.05,3.75,0,1.59-.07.36-1.51.19-2.44-3.1.61-5.25-1.68-2.43-3.8.55-.41,1.67-.59,1.89-.86.89-1.11.05-3.63,3.36-3.44,2.16.12,1.98,1.59,3,2.53.79.73,2.29.6,2.66,1.84.76,2.57-.93,2.36-1.8,3.28-.43.47-.35,1.4-.72,1.78-.44.45-2.62.86-3.4,1.1.47,1.46,2.08.84,3.22,1.02.47.07.92.48,1.02.48,2.08,0,7.45-.41,8.99,0ZM245.23,190.35l-2.52.23c-1.03.66,0,1.87.02,2.77-.31.29-3.79-.8-3.49,1.5l3.99-.5v2.5s2.5,0,2.5,0v-2.49s2.49-.76,2.49-.76c-.74-1.07-1.88-.74-2.99-.75v-2.5Z"/>
        <path class="cls-1" d="M156.33.02l-3.99,10.99c2.65-.66,5.47-.56,8.13.11,2.14.54,3.54,1.3,3.86,3.67.5,3.77-2.72,8.59-5.48,10.97-2.35,2.02-7.54,6.05-10.49,3.47-2.01-1.75-1.26-6.31-.66-8.62,1.26-4.86,3.53-9.82,5.14-14.59-1.84-.03-1.75,2.53-2.4,3.84-1.64,3.3-3.82,6.41-5.6,9.64l-.99-.74c1.33-1.4,2.67-3.22,3.58-4.91,2.18-4.03,3.71-8.99,6.91-12.57.54-.61,1.05-1.41,1.99-1.25ZM162.19,13.64c-2.22-2.51-7.88-1.48-10.81-1.09-.46,3.75-5.86,13.77-1.04,16.2,1.97,1,6.71-2.85,8.24-4.26,2.25-2.08,6.16-7.99,3.62-10.86Z"/>
        <path class="cls-1" d="M80.41,417.15v1.5c-2.76-.86-5.87,3.27-5.42,5.63.48,2.52,3.24,4.55,5.7,4.83,7.05.81,10.9-7.83,4.4-11.4-1.2-.66-3.28-.25-3.18-2.06,7.85-1.03,11.32,8.75,5.24,13.49-5.44,4.24-14.5,1.28-14.02-6.27.16-2.58,4.26-7.02,7.28-5.72Z"/>
        <path class="cls-1" d="M232.74,265.29c.68.52.08.95-.74.99-2.26.12-5.53-.1-7.41-1.47-.62-.45-2.07-4.47-2.22-5.38-.67-4.05.29-14.18,1.64-18.12.5-1.46,1.47-3.54,3.1-3.9.82-.18,5.69-.43,5.64.65-1.97,2.71-4.84-.38-6.59,2.89-1.54,2.88-1,4.82-1.38,7.61-.65,4.76-1.95,8.5.23,13.23,1.23,2.68,5.19,2.79,7.75,3.5Z"/>
        <path class="cls-1" d="M240.39,208.99c1.06-.96,2.4-1.36,3.84-1.15.15,1.66-1.91,1.58-2.73,2.51-1.87,2.1-.31,5.94,2.21,6.76,3.89,1.27,10.2-.62,9.5-5.5-.48-3.36-3.57-2.15-5.67-3.32-.87-.49-.96-1.13,0-1.4,2.76-.76,6.97,1.4,7.59,4.3,1.81,8.46-14.24,11.77-16.15,3.17-.48-2.17-.26-3.83,1.43-5.37Z"/>
        <path class="cls-1" d="M421.5,74.49c.07.07.06,1.3.31,1.94.63,1.56,2.4,1.86,2.58,4.35.17,2.3-2.1,3.86-2.46,6.07-4.4.89-8.93,2.02-13.38,1.09-.12-.87,1.15-.48,1.74-.5,3.06-.06,3.44-.21,6.11-.89,1.01-.26,1.92-.02,3-.49,1.47-.65,3.6-3.23,3.43-4.88s-4.94-4.73-6.32-5.96c-.74-.66-1.04-1.69-1.71-2.29s-1.76-.75-2.26-1.23c-.38-.37-1.82-3.4-1.5-3.74,1.58,0,1.94,1.76,3.02,2.72.42.38,5.01,3.3,5.47,3.53.65.32,1.83.15,1.96.28Z"/>
        <path class="cls-1" d="M317.64,185.84c.11-1.23-.45-2.61.76-3.48,2.68,2.32,1.18,5-2.02,5.47-3.93.58-9.04-.2-12.96-.49-1.81-.13-7.92-.06-9.04-.95-.94-.75-.97-4.09-.66-5.24.07-.25.65-1.03.95-.55,1.8,1.04-.7,3.61,1.31,4.69l15.43.55c2.24.85,3.99.28,6.22,0Z"/>
        <path class="cls-1" d="M340.99,326.87c4.15,3.71-2.8,8.83-6.64,9.32-3.36.43-8.24-1.69-7.61-5.6.2-1.26,1.5-4.91,2.73-5.27.77-.23,4.13-.31,4.15.66l-3.89.86c-.65,2.66-2.91,4.19-.36,6.39,1.5,1.29,3.46,1.8,5.39,1.39,2.08-.44,6.5-3.09,5.78-5.56-.41-1.42-4.32-2.23-5.71-2.8-.78-.32-1.39-.52-1.21-1.53.88-.73,6.43,1.31,7.36,2.13Z"/>
        <path class="cls-1" d="M362.6,260.29v-1.5c2.21.2,3.93-1.22,4.39-3.35.2-.91,0-1.87.22-2.77.83-3.28,2.25-5.9,2.09-9.41-.05-1.21-.73-5.82-1.26-6.65-.94-1.47-3.8-.39-5.45-1.3-.41-1.22,1.35-1.52,2.2-1.48,1.13.06,4.04.54,4.53,1.49.88,1.69,1.9,7.78,1.77,9.73l-3.27,13.23c-1.32,1.45-3.29,2.24-5.23,2.01Z"/>
        <path class="cls-1" d="M333.13,198.84v1.5c-2.26-.75-5.62,2.5-5.41,4.64.34,3.53,11.42,4.44,9.83-.81-.27-.88-1.89-1.32-1.42-2.83,2.12-.26,3.83,2.73,3.41,4.64-1.07,4.84-9.12,4.65-12.16,1.86-3.75-3.43,1.06-10.26,5.76-9.01Z"/>
        <path class="cls-1" d="M235.06,171.42c2-.44,5.36,4.39,5.59,6.31s-1.67,4.81-3.68,5.1c-6.9,1.01-5.11-10.71-1.91-11.41ZM234.85,180.74c.97.97,2.62.4,3.33-.69,1.54-2.33-.38-5.62-2.7-6.67-1.67,1.04-1.65,6.35-.64,7.36Z"/>
        <path class="cls-1" d="M82.91,273.27c6.41-2.49,3.75,6.07-.25,5.52-3.03-.41-1.04-5.76-1.26-6.02l-2.49,1.5c-.32-1.74,1.41-2.36,2.21-3.53l3.03-4.46c1.18.85.44.83.16,1.65-.61,1.76-1.1,3.51-1.4,5.34Z"/>
        <path class="cls-1" d="M106.27,422.27c1.62-.09,2.95-.18,4.39.84,1.65,2.22-5.93,4.37-7.51,4.54-1.75.19-5.1.52-5.55-1.5-.25-1.1,3.37-3.03,4.27-3.28.97-.27,3.33-.54,4.4-.6ZM107.38,424.14c-2.29-.02-3.92-.32-6.01.75-.73.37-1.23-.04-.98,1.24,1.47-.31,3.06-.37,4.52-.72.58-.14,2.4-.55,2.47-1.27Z"/>
        <path class="cls-1" d="M227.72,171.9c.24,1.22-.2,2.27-.94,3.22,3.26,1.73,4.68,5.66.11,6.64-2.07.44-4.93-1.07-3.15-2.15.55-.33,4.28,1.44,4.49-.99-.91-1.57-1.99-1-3.24-1.26-3.38-.69.73-3.41.74-3.74-1.7-1.7-4.77-.02-3.99-3.25l5.96,1.53Z"/>
        <path class="cls-1" d="M403.55,77.45c-.42,2.66-.77,4.83,0,7.49-2-.49-1.95,1.72-2.79,2.96-1.36,2.01-3.94,2.06-6.2,2.04,1.19-1.83,3.81-.62,4.89-2.85.25-.51,1.44-4,1.53-4.5.14-.79-.41-1.57-.43-2.38-.05-1.6.09-6.51.75-7.76.41-.77,1.15-.16,1.25.27.29,1.14-.91,2.84-.45,4.44l.45.56,1-.27Z"/>
        <path class="cls-1" d="M280.19,450.62l4.47-.54.04-1.44c1.92-.37,5.73.86,5.51,3.21-.18,1.91-3.7,3.07-2.03-.23-1.76-.77-8.65,1.52-9.44.45-.23-1.18.16-2.54-.05-3.7-.15-.84-1.11-1.4-1-1.99.1-.52,1.15-.93,1.75-.75,1.25.36.62,3.85.76,4.99Z"/>
        <path class="cls-1" d="M360.6,242.8c.23,1.28-.21.88-1,1.22-1.72.75-3.38,1.28-4.52,3s1.23,3.19-1.2,4.79c-3.53,2.32-1.58-3.28-1.83-4.17-.51-1.86-3.57-.7-3.44-2.84l2.69-.41,2.06,1.91c1.92-2.19,4.1-3.96,7.24-3.49Z"/>
        <path class="cls-1" d="M297.21,258.74l-.04-1.45c2.33-.48,3.12,1.73,4.74,2.9,1.75-1.26,3.23-1.76,5.35-2.06.87-.12,1.14-.72,1.89.4-.02.51-4.93,1.88-5.99,3s.11,4.28-2.74,4.29c-3.41,0-.57-2.56-.33-3.9.31-1.69-1.35-3-2.89-3.18Z"/>
        <path class="cls-1" d="M201.02,169.41c1.78,1.17,4.82.54,6.45,1.01,2.29.67.64,6.14.35,7.73s.51,3.09-1.29,4.2c-2.38-2.38.87-7.03.2-9.18-.52-1.68-5.44-.76-6.45-2.56l.74-1.2Z"/>
        <path class="cls-1" d="M99.02,401.8c2.99-2.7,7.06,4.87,3.35,7.59-3.27,2.4-5.68-1.5-4.88-4.89.1-.42,1.26-2.46,1.53-2.7ZM101.36,403.18c-.05-.06-1.27-.25-1.5.29-.63,1.43-1.89,3.97.35,4.63,2.39.71,1.9-4.07,1.16-4.92Z"/>
        <path class="cls-1" d="M84.91,138.4l-1.03,4.73,1.03.52c-2.76,2.97-5.72,3.14-5.87-1.6-.07-2.32,3.8-4.04,5.87-3.65Z"/>
        <path class="cls-1" d="M46.95,297.25c-1.6.27-2.07-.53-2-2-1.59.16-2.32,1.97-4.15,1.44-1.02-.3-2.45-2.38-1.77-3.37.33-.48,3.21-1.76,4.06-1.49,1.37.43.88,1.52,3.1-.08,1.33.82.36,1.67.42,2.66.05.86.59,1.84.34,2.83Z"/>
        <path class="cls-1" d="M300.67,177.36l-.5-3.99c-1.41,1.05-3.57,2.56-4.96.7-.81-2.78,4.2-6.43,6.35-3.96-1.36,2.18,2.67,6.62-.89,7.26Z"/>
        <path class="cls-1" d="M85.4,287.26c.37,2.21-2,2.65,0,4.49-1.52.69-3.18.28-4.65.6-.69.15-1.27.8-2.12.9-4.16.53-1.63-4.6.42-3.94.61.2.97,1.17,1.84.94.36-1.99,2.51-3.23,4.5-3Z"/>
        <path class="cls-1" d="M240.6,256.92c1.03,1.18,1.38,5.08,1.12,6.62-.49,2.9-4.62,1.73-5-.49s2.68,1.65,3.5.74c.09-1.27.19-5.12-1.3-5.43-.85-.18-3.15,1.43-4.18-.3.7-1.77,1.36-3.4,3.64-2.67.13.04,2.12,1.44,2.21,1.54Z"/>
        <path class="cls-1" d="M170.81,289.26l1.5-1.5c-.9-2.02-3.09-.4-4.73-.46-1.43-.05-3.11-.95-4.76-.53v-1.5s5.99,0,5.99,0l-1.5-1.75c2.46-1.06,4.85.88,6.26,2.74,1.78,2.34-.43,3.29-2.76,3.01Z"/>
        <path class="cls-1" d="M385.07,116.91c1.62.39,3.34-1.13,4.74-1.02,3.01.23.1,7-1.02,8.5-2.09,2.8-6.46-.55-6.22-3.48,1.37.97,1.75,2.86,3.78,3.01,2.56.2,3.62-5.02,4.21-7.01-2.68-.51-4.31,2-6.99,1.5-.51-2.57,1.4-4.03,3.49-5,.37,1.71-1.42,2.24-1.99,3.49Z"/>
        <path class="cls-1" d="M254.22,282.77h-1.99s1.49,1.25,1.49,1.25c-1,.66-.78,1.21-.5,2.22l-3.49.53,1-3.49-4.5.5,1,2.99c-2.21.17-2.11-.83-1.5-2.49l-2.99-.25c1.6-2.17,4.01-1.48,6.19-1.79,1.67-.23,5.37-1.92,5.29.54Z"/>
        <path class="cls-1" d="M90.9,144.89c.07-2.72-1.74-4.05-.5-7,1.53,1.89,6.49.25,7.77,1.97,1.74,2.32-4.99,6.29-7.28,5.03ZM96.39,140.4c-1.81-.98-5.22-.35-4.47,2.22.59,2.02,5.35-1.45,4.47-2.22Z"/>
        <path class="cls-1" d="M282.69,245.3c-1.15,3.61,3.22,4.14,1.91,8.65-.93,3.2-9.17.5-6.15-3.16,1.27,2.43,1.61,3.47,4.75,3-.03-.99.22-2.05-.26-2.99-1.41-2.82-7.32-4.47-.24-5.5Z"/>
        <path class="cls-1" d="M50.44,373.19l.25,2.51c1.56,1.37,3.66.81,4.55-.99l3.65,1.02c.41,1.92-.31,3.69-2.45,3.45l-.02-1.48c-.4-.61-6.55,2.02-7.39-.85-.37-1.25-.43-3.85,1.41-3.66Z"/>
        <path class="cls-1" d="M163.82,237.81c.75,2.65-2.14,8.37-.77,10.51,1.06,1.67,4.34-.78,3.77-2.52h-2.99c-.25-1.77,2.46-1.82,3.68-1.43,2.35.75-1.1,6.21-3.92,5.96-3.07-.28-1.32-7.58-.76-9.52l-1.75,1-.25-.74,2.99-3.25Z"/>
        <path class="cls-1" d="M59.3,405.74c.67-.13,1.03-.08,1.66.13,3.51,1.16,2.43,5.59-.49,6.56-6.06,2-6.39-5.68-1.17-6.69ZM61.43,407.66l-3.53.22c-2.26,4.81,4.51,4.12,3.53-.22Z"/>
        <path class="cls-1" d="M333.63,457.61l.5,4c1.23.06,2.63-.44,3.49.75,0,.93-7.32,1.88-8.49,1.75l.33-1.49,3.17-.51c.16-.64,0-2.8-.99-2.25-1.18,1.29-3.88,2.2-4-.25,2.63.7,3.65-2.05,5.99-2Z"/>
        <path class="cls-1" d="M191.29,285.27l1.5,1.99c-1.34-.83-4.44,1.02-4.68.97-1.74-.36-2.11-3.48-1.81-4.96,1.81.42,4.01-.96,5.68-.43,1.5.47.9,2.56-.68,2.44Z"/>
        <path class="cls-1" d="M368.09,395.17c-2.08-.57-5.74,1.15-7.01,2.72-1.14,1.41-.58,4.68-3.47,4.27-.8-1.6,1.01-3.53,1.01-4.24,0-.81-1.76-2.5-1.51-3.75,1.55-.39,1.03,1.61,1.97,2.27,1.19.83,2.96-1.3,4.17-1.87,1.52-.72,4.74-1.96,4.84.59Z"/>
        <path class="cls-1" d="M77.86,15.45c-2.92-.16-5.49.63-4.94,4.05-2.71-1.95.83-5.74.51-8.48,3.28-.64,5.91,1.04,4.43,4.43Z"/>
        <path class="cls-1" d="M152.83,389.67c.45.44-2.42,5.19-2.39,5.75s1.74,1.16,1.39,2.24l-2.03-.22-1.22-2.27c-1.35,1.02-2.27,3.23-4.24,2.99-.69-3.32,2.68-3.09,3.87-4.12.57-.49,2.3-2.92,2.99-3.74.6-.72.33-.8,1.63-.62Z"/>
        <path class="cls-1" d="M231.12,381.31c.11.1,1.44,1.96,1.56,2.18,1.97,3.73,1.8,10.03-3.43,10.17-.72-.66,2.66-3.01,2.91-3.83.8-2.66-.88-8.26-4.41-7.66v-1.5c1.03-.03,2.57-.08,3.37.63Z"/>
        <path class="cls-1" d="M290.23,381.63c.97.1,2.13.22,1.95,1.55-2.26.06-4.54,1.02-6.49-.75l2.5-.74v-3c-1.99,1.89-3.92.92-1.46-1.21,5.08-4.41,2.9,3.69,3.51,4.16Z"/>
        <path class="cls-1" d="M60.43,425.14c.25,3.09-3.4,7.63-6.49,7.99.7-3.42,2.21-8.13,6.49-7.99Z"/>
        <path class="cls-1" d="M52.94,423.14c.4,2.15,2.44,5.34.87,7.37-.14.19-2.38,1.67-2.61,1.62-1.56-.32-.43-6.61.13-7.86.31-.7.74-1.3,1.61-1.13Z"/>
        <path class="cls-1" d="M86.4,374.18l1.5.26-1.5,1.74,2.49.75c-.66.85-4.36,1.61-4.95,1.21-.46-1.22-1.01-3.89-.31-4.97.35-.54,3.38-1.64,4.01-1.48,1.92.48-1.02,1.78-1.24,2.5Z"/>
        <path class="cls-1" d="M264.21,19.5c0-.94.73-1.64.44-2.65-.13-.46-2.3-2.61-2.78-2.75-2.89-.86-5.42.27-7.88,1.43-.47.22-1.36.97-1.77.23,2.51-2.4,6.65-3.93,10.14-3.15.95.21,3.49,2.38,3.76,3.23.48,1.56,0,3.63-1.91,3.66Z"/>
        <path class="cls-1" d="M178.8,15.01c.14.64-.94.81-1.36.88-1.24.19-3.47.44-4.42-.34-.67-.56-.85-2.16-1.89-1.99l-4.07,2.29c-1.01,0-2.93-2.14-2.75-3.08.08-.39.87-1.02,1.51-.51.68.54.26,1.77.76,1.77,2.3-.48,4.47-1.25,6.48-2.5.96.54.55,1.75.99,2.49.72,1.2,3.47,1.03,4.75,1Z"/>
        <path class="cls-1" d="M353.61,446.12c1.62.45,3.75-3.19,4.69-2.98,2.22,1.22.25,3.77.8,5.97-2.31.29-1.18-3.1-1.5-3.5-4.02,3.77-8.34,2.32-4.24-2.99l.25,3.49Z"/>
        <path class="cls-1" d="M391.07,455.12l-.5,2.49c.95.15,2.29.26,3.15.6.69.28,1.14.61.36,1.15-2.73.34-5.45.77-7.96-.29-.55-2.84,2.59-4.1,4.96-3.96Z"/>
        <path class="cls-1" d="M352.62,280.73c1-.25,3.53,1.78,1.73,2.04-.18.03-3.27-.7-3.62-.87-1.11-.53-.74-1.51-1.61-1.63.06,1.32.3,3.09-1.5,3,.3-1.37-.53-2.07-.98-3.19.89-1.91,5.35-2.69,6.23-.82l-.25,1.47Z"/>
        <path class="cls-1" d="M370.59,115.91l-1.5-1.24.25-6.75c-.83-.13-.99.65-1.34,1.16-1.09,1.59-2.29,3.1-3.17,4.82l-2.73,2.02c-.63-2.53,1.78-2.98,2.84-4.15.88-.97,3.35-5.11,4.4-5.34,2.1-.47.78,3.67.72,4.72-.1,1.74.28,3.11.52,4.77Z"/>
        <path class="cls-1" d="M249.22,14.51c-.11.67-1.66,1.3-2.23,1.52-1.55.6-2.7-.03-2.25,1.95,1.75.9,3.15-.13,4.98.03l-2.47,4.19c-.79,1.93-1.28-1.56-1.48-1.9-.28-.49-1.04-.15-1.4-.4-.15-.11-2.3-2.72-2.39-2.88-.26-.51-.3-.95-.24-1.5,2.53,1.43,4.97-.81,7.49-1Z"/>
        <path class="cls-1" d="M383.58,455.12l-2.49,1.5,2.49.5c.06,3.44-1.73,4.37-4.96,3.46-.7-4.06.83-5.88,4.96-5.46Z"/>
        <path class="cls-1" d="M381.58,378.18c1.93.47,2.25-2,3.99-2v2s2,.74,2,.74c-1.09,1.58-2.57.32-3.74.32-.91,0-1.77.65-2.98.45-.8-.13-1.27-.97-1.99-.99-.76-.02-1.8.78-2.77.48-.23-1.17.11-.79.64-1.1.59-.34,3.78-1.96,4.09-1.89l.76,2Z"/>
        <path class="cls-1" d="M119.37,373.19l-.97-5.97c1.83-.56,5.02-1.51,5.01,1.22-.01,2.06-1.74,1.65-2.32,2.76-.29.55.43,1.34-.21,1.74l-1.51.25Z"/>
        <path class="cls-1" d="M348.61,240.81l-1,5.99c-1.3.21-1.87-.21-2.01-1.49-1.53.05-2.94,2.73-4.48.74-.3-1.44,2.69-2.05,3.47-2.52,1.37-.83,2.07-3.06,4.02-2.72Z"/>
        <path class="cls-1" d="M332.63,173.87c-1.05,2.02-3.75.59-5.49.49l2.5-4.49c-1.39-.38-2.27.6-3.33.91-2.38.71-.7-1.89,1.18-2.31,4.28-.97,4.36,1.29,2.16,4.15l2.99,1.25Z"/>
        <path class="cls-1" d="M226.25,282.27c.14,1.15-.04,2.04-.99,2.75.74,1.52,3.37-.21,2.99,1.75-2,.2-6.6,1.86-6.48-1.26.02-.56.56-.94.73-1.5.08-.26-.31-.83-.04-1.24.58-.89,2.76-.38,3.79-.49Z"/>
        <path class="cls-1" d="M319.15,173.37l-1.99-1.25,1.49-1.75c-.31-.33-4.3,1.26-3.49-.25.65-1.22,3.88-1.71,5.01-1.02,1.48.9-.61,2.27-.46,2.93.1.43.88.83.97,1.6.3,2.44-4.08,3.45-4.02,1.98.03-.72,2.99-.72,2.49-2.24Z"/>
        <path class="cls-1" d="M30.47,276.77c1.69-.17,1-1.28,1.78-1.46.29-.07,5.27.44,5.86.56,1.63.35,2.71,1.61,1.03,2.83-1.23.89-2.5.24-1.94-.44l1.25-.99c-2.02-.56-3.48-.53-5.49,0l1,1.74c-.37.35-.63.9-1.24.75-.13-.03-2.09-1.49-2.17-1.59-.26-.33-.06-.97-.09-1.4-1.13.11-2.35-.08-3.5,0-.06.82.02,1.62.35,2.39s2.85,1.34-.1,2.57c-1.44-.91-.95-2.46-1.25-3.64-.08-.31-1.69-.48-1-2.32h5.5c.02.33-.02.67,0,1Z"/>
        <path class="cls-1" d="M339.62,281.77c.16,1.74-1.98,1.73-3.24,1.49-.71-.13-1.28-.87-1.5-.87-.54,0-2,2.26-4.25,1.13-1.41-.71-1.43-2.82.5-2.75l2,1.5-1-2.49c2.65.31,4.73,2.53,7.49,2Z"/>
        <path class="cls-1" d="M123.26,268.88c3.11,2.55-5.71,7.05-5.36-.07,1.2-.62,4.38-.73,5.36.07Z"/>
        <path class="cls-1" d="M95.39,376.69c-1.74.2-1.67-1.69-2.27-2.5-.38-.52-1.63-.33-1.22-1.24,1.09-2.43,6.87-2.8,5.92.42-.37,1.24-2.95,1.34-2.43,3.32Z"/>
        <path class="cls-1" d="M80.41,372.19c.18,1.02-.44,1.2-1.21,1.53-.59.25-1.84.16-1.78.96l2.47.05c-.6,1.41,1.41,1.37,1.03,2.2-.68,1.48-4.93,2.16-5.03-1.5-.09-3.27,1.68-3.39,4.53-3.24Z"/>
        <path class="cls-1" d="M312.07,392.26c.17.12.11.96.91,1.32,1.06.47,5.68.44,5.66,1.34-1.21,1.51-3.03.51-4.49.25l1.49,1.75c-1.47,2.03-2.95-1.02-3.97-1.48-.45-.2-1.55.55-2.01-.53-.42-.98.91-.56,1.01-1.07l-.02-1.67,1.41.1Z"/>
        <path class="cls-1" d="M23.97,143.39l-1.52,1.82-.46,2.94c-1.19.74-5.56.97-6.01-.52-.63-2.12,3.82-.59,3.99-.75-1.27-2.19,2.05-3.49,3.99-3.49Z"/>
        <path class="cls-1" d="M178.8,144.39l.02,2.98c.95-.19,1.96.48,2.76.48,1.05,0,2.52-1.7,3.72-.72l-2.34,2.69-4.84-.5-.74-.76-.54-3.39.46-.54,1.5-.24Z"/>
        <path class="cls-1" d="M301.02,279.37c1.07-.24,1.97-.33,2.64.65-3.94,3.14,2.52,1.67,2.5,3-1.13,1.76-3.71.14-4.67.35-.51.11-.87.99-1.56.9-.97-.18-1.75-4.27,1.09-4.9Z"/>
        <path class="cls-1" d="M217.26,15.01l-.5,3.5c1.01-.12,2.69.32,3.51-.23.39-.26,1.25-1.99.98-2.26-1.03-1.07-.8,1.57-1.74,1-1.61-.34,2.47-4.47,3.18-2.19,1.21,3.92-5.38,7.24-7.18,3.69-.82-1.61.4-2.73,1.75-3.5Z"/>
        <path class="cls-1" d="M295.09,246.87l.03,1.63c-2.11,2.56-4.6-.98-6.79-1.12-.91-.06-1.14,1.17-2.15.91l.22-2.02c1.49-1.57,3.42.56,4.53.53s1.84-2.02,4.16.06Z"/>
        <path class="cls-1" d="M209.77,352.71c5.28-.92.45-5.02-.6-7.64-.39-.97-.66-1.08.35-1.85,1.78,2.2,5.43,6.61,4,9.49-.63,1.28-3.21,1.57-3.75,0Z"/>
        <path class="cls-1" d="M255.22,365.2c-.39,2.84-4.51,1.4-5.99,0-.56.59,3.4,3.63.24,3.01-1.29-.25-2.02-2.25-2.23-3.51,1.46.22,2.05.68,2.99-.75l-1.76.22c-2.54-2.35,3.31-2.38,4.28-1.74l.44.6v1.94s2.03.24,2.03.24Z"/>
        <path class="cls-1" d="M302.16,414.15c.13,1.2.06.81-.7,1.03-4.54,1.31-5.24-1.03-5.79-5.03,2.32.97,3.82-1.81,5.49.75l-3.48,2c1.1,1.66,2.71,1.27,4.49,1.25Z"/>
        <path class="cls-1" d="M96.89,8.01l-.99,3.99c1.04.37,3.79-.83,3.99-1.75.23-1.05-2.95-1.93-1.99-2.74.63-.53,2.73-.07,3.51.24,2.69,1.61-5.93,8.36-6.51,4.51-.3-1.98.18-3.34,2-4.25Z"/>
        <path class="cls-1" d="M55.44,308.25h-4.49c-.4-6.38,6.02-7.16,4.49,0Z"/>
        <path class="cls-1" d="M78.41,299.75l-1,1.49,1.5,1.5-2.5,1,2.49.75c-5.46,4.33-6.54-5.66-.5-4.74Z"/>
        <path class="cls-1" d="M361.1,374.69l-1.5,2.49c1.67.68,2.58-1.49,2.75-1.51,2.01-.3,1.97,1.75,1.65,3.16-.64,2.79-3.05,2.42-1.4-.65-1.69-.3-3.3,2.16-4.44.19-.59-1.84.96-3.89,2.94-3.69Z"/>
        <path class="cls-1" d="M405.05,441.63l-.53,2.72c0,.41,1.46.02,1.03,1.02-.51,1.19-2.55.83-3.49.25v2s-1.5,0-1.5,0c-.57-3.51.68-6.13,4.49-6Z"/>
        <path class="cls-1" d="M272.2,197.84l.5-2.99h-5s0-1.5,0-1.5c1.97-.04,3.46.63,4.27-1.53.67-.07,2.63,1.01,3,1.51.76,1.04-2.11,5.25-2.77,4.51Z"/>
        <path class="cls-1" d="M304.66,448.12c.18,1.12,1.94,5.96-.19,5.45-.47-.11-.96-1.27-2.04-.96-.75.22-.47,1.93-1.51,1.49-1.13-.47-.16-2.55.22-3.27.66-1.26,1.95-3.02,3.52-2.72Z"/>
        <path class="cls-1" d="M63.43,305.25c.18,2.75-3.82.8-3.99.99v2s-1.48-.01-1.48-.01c-.81-3.37-.14-5.45,3.69-5.48l.68.81-.16,1.22,1.27.47Z"/>
        <path class="cls-1" d="M195.83,130.45l-.05,2.95c-1.71.36-.62-1.19-1.24-2.02-.27-.37-1.03-.35-1.2-.56-.15-.19.03-4.28,1.26-4.37,3.33-.28,4.92,3.59,1.22,4Z"/>
        <path class="cls-1" d="M298.26,462.7c1.6-1.13,5.09,1.18,4.19,2.91-1.05,2.02-5.63,2.18-5.3-.73.03-.26,1.01-2.11,1.11-2.18Z"/>
        <path class="cls-1" d="M334.63,380.18c1.32,1.2-3.01,1.63-3.75,1.51-1.24-.2-1.16-1.26-1.99-2l-.75,2.5h-1.5c-.78-3.1,1.69-4.86,4.51-4.26l.2,1.78,3.27.49Z"/>
        <path class="cls-1" d="M48.94,19.5l-.5-2.49c2.22-.82,2.77,2.98,1.19,3.44-2.45.72-3.94-1.94-6.18-1.95-.51.51,1.71,3.47-.5,3-.25-1.8-1.18-2.21-.4-4.15,1.16-2.88,5.63,2.99,6.39,2.15Z"/>
        <path class="cls-1" d="M42.45,304.25c.24,1.47-.85,2.38-1.5,3.49l4.98-.98c-.06,1.21,1.08,2.16-.23,2.98-1.85-2.4-3.83.62-6.24,0-.68-.68,1.07-5.84,2.99-5.49Z"/>
        <path class="cls-1" d="M233.75,243.8c-1.19-.09-2.64-.07-2.5,1.5.74.19,1.5.34,2.24.51.35.08,1.76-.31,1.25.73-.44.91-3.26.79-4.23,1.76-1.07-.21-.97-4.06-.51-5,.9-1.83,4.07-2.46,3.75.5Z"/>
        <path class="cls-1" d="M146.84,283.77c.13,1.61-1.34,1.55-2.49,1.51v2.47c.69-.03,1.32.09,1.98.27.55.15,1.93.07,1.5.99-.54,1.16-3.46.87-4.52.54l-.97-5.28,4.5-.5Z"/>
        <path class="cls-1" d="M188.79,145.39c2.01-.06,4.78-.08,5.33,2.25.11,1.1-2.73,2.89-3.34,2.53-.88-.43-2.42-4.36-1.99-4.78Z"/>
        <path class="cls-1" d="M388.07,389.67l-1.99-.29-1.48,2.54c.8,1.34,3.8.3,3.48,2.24l-4.99.5c-.67-2.19,1.31-7.81,4.2-6.96.83.24.89,1.23.79,1.97Z"/>
        <path class="cls-1" d="M218.26,146.89c.4,1.67-1.68.88-2.77.97-2.76.23-1.1,1.61-1.23,3.52-2.06.51-1.89-1.42-2.01-2.98h-2.49s0-1.51,0-1.51c1.21.41,2.39-.73,3.23-.79,1.5-.11,3.65.94,5.27.79Z"/>
        <path class="cls-1" d="M238.73,146.39c.15.98-.25,1.66-.99,2.25l1.99,1.74-5.44.45c-1.26-2.52,1.79-5.05,4.44-4.44Z"/>
        <path class="cls-1" d="M244.23,361.7c-.74,1.5.39,1.73.5,2.99l-2.49.75c.68,1.27,2.89-.02,2.5,1.75l-3.47.48-.47-5.41,3.44-.55Z"/>
        <path class="cls-1" d="M70.36,301.81c.08.06.56,1.45.56,1.71-.03,1.35-3.36,3.62-3.96,2.7-.12-.18,0-.94-.29-1.44-.38-.65-1.3-.92-1.24-1.78.25-1.08,4.23-1.7,4.94-1.2Z"/>
        <path class="cls-1" d="M54.24,185.4c.63-.15.83.37,1.19.71l-2.29,3.23c-1.16-1.53-5.92-.42-6.19-1.73-.41-1.96,4.62-1.04,5.74-1.25.82-.15,1.22-.88,1.55-.95Z"/>
        <path class="cls-1" d="M330.14,450.12c1.15-.13,2.98-.25,3.5-1.5-1.52-.47-2.68-.78-4.2-.05-.73.37.26,2.66-1.03,2.04-.97-.47-.84-2.06-.72-2.96,1.93-.62,6.86-1.26,7.43,1.27.3,1.33-5.25,4.18-4.97,1.19Z"/>
        <path class="cls-1" d="M343.12,112.92c.46,1.42-1.14.83-1.44,1.8-.52,1.66.81,3.45-.31,4.7l-.75-4.49-3.99,2c-.7-2.05,2.71-2.91,2.96-3.81s-1.12-1.88.28-2.67c1.16,1.53.72,2.93,3.25,2.49Z"/>
        <path class="cls-1" d="M228.29,146.93c1.63-.5,3.5-2.03,4.94-.29.46,1.74-1.78,1.99-2.24,2.74s-.04,1.91-1,2.49c-.98-.04-1.98-3.91-1.7-4.94Z"/>
        <path class="cls-1" d="M68.92,373.19l.79,1.47,2.21-.47-1.5,1.75c.63,1.49,3.47-.18,3,1.75l-5.49.5c.37-1.81-1.82-4.79.99-4.99Z"/>
        <path class="cls-1" d="M13.11,282.13c.56.52,1.61.67,2.37.64v-2c3.27-.34,1.57,3.33-.78,3.5-1.14.09-1.78-.6-2.71-1-.05.79-.47,1.72-1.5,1.5v-4.49c1.91-.48,1.9,1.19,2.62,1.86Z"/>
        <path class="cls-1" d="M163.82,366.69l-1.49,2.5c.93-.07,1.61-.7,2.62-.42.72.2,4.06,1.88,2.1,2.4-1.2.32-2.1-.42-3.02-.46-.74-.03-1.35.42-1.97.43-3.66.06-.9-4.69,1.76-4.44Z"/>
        <path class="cls-1" d="M61.43,139.9l-.98,3.98c.26.27,2.5.19,1.98,1.26-.31.65-4.8,2.45-4.99,2.25-.34-2.42,1.42-4.61,2.72-6.54.42-.63,0-1.22,1.28-.95Z"/>
        <path class="cls-1" d="M199.78,345.21c-.39,2.01-3.1,3.17-3.49,5.25-.37,1.95.96.77,1.99,1.99-1.2,1.56-3.86.74-4.01-1.01-.18-2.01,4.35-7.29,5.52-6.23Z"/>
        <path class="cls-1" d="M167.86,349.24l1.45-.04c1.02,4.2-5.99,6.94-6.03,1.76,0-.94-.09-1.65.78-2.25l1.5,3.48c1.34-.67,2.05-1.42,2.29-2.95Z"/>
        <path class="cls-1" d="M155.32,369.69v-1.5c3.24.38.48,4.09-1.66,3.44-.85-.26-.92-1.44-2.59-1.48-1.28-.02-.66,1.77-2.24,1.54-.37-1.9.95-2.84,2.24-3.9,1.62.64,2.27,2.37,4.25,1.9Z"/>
        <path class="cls-1" d="M173.31,351.2c2.75-1,2.97-.42,4.49,1.75-1.16,1.75-2.31-.04-3.3-.14s-1.62.96-2.96-.09c-1.84-1.43,1.1-2.75,2.02-4.01,1.32.83.02,1.51-.25,2.49Z"/>
        <path class="cls-1" d="M187.03,366.38c.96-.03,2.78.96,2.78,2.06,0,2.16-4.95,3.3-5.47.58.4-1.03,1.52-2.6,2.69-2.64Z"/>
        <path class="cls-1" d="M426.03,113.42c1.2.31,1.81-.84,2.76-1,1.31-.22,3.77.24,3.73,2-1.3.02-2.35-.72-3.73-.5-1.04.16-2.18,1.67-3.01,1.51-1.36-.27-.79-5.99,0-6.99,1.34.77.07,4.81.25,4.99Z"/>
        <path class="cls-1" d="M233.32,136.31c-.12-.08-.74-1.54-1.08-1.91,1.08-.04,1.96.99,3.02.27,2.44-1.65.15-7.85-3.51-6.27-.46-.43,1.47-2.68,2.24-2.5,2.22,2.48,3.59,5.67,2.53,9.02-.41,1.31-2.15,2.13-3.19,1.39Z"/>
        <path class="cls-1" d="M35.33,295.63c-.25.27-.84.32-1.12.61-.49.5-.61,1.29-1.1,1.52-.54.25-2.04.52-2.74.66-.65.12-1.57.64-1.89-.41-.34-1.12,2.33-1.67,3-1.75-.53-1.08-.95-2.14.25-2.99,1.52-.2,0,.82.26,1.7.41,1.46,2.41.65,2.98-.46l-1.5-1.74c2.2-.56,3.36,1.27,1.86,2.87Z"/>
        <path class="cls-1" d="M158.33,228.32l1.69.98,3.01-1.95c.76.17,2.55,4.23,2.29,5.22-.13.51-.67.92-1.25.25-1.23-1.4-.13-3.31-1.5-4.49-.52.02-4.5,7.82-4.24,0Z"/>
        <path class="cls-1" d="M215.76,383.18c.07.07.26,1.34-.34,1.49-.35.09-.78.02-1.13.25-.88.58-1.43,2.94-.81,3.79.47.64,2.28.1,1.78,1.2-.91,2.02-4.86.08-3.89-3.39.33-1.17,3.39-4.36,4.39-3.35Z"/>
        <path class="cls-1" d="M319.65,279.77c-.06.91,1.61.46,2.25.5.97.05.78-.06.75,1l-3.5.51c1.16,3.13-1.57,1.65-1.93-.36-.46-2.59,3.6-4.33,5.42-2.39l-2.99.75Z"/>
        <path class="cls-1" d="M250.71,148.87l-3.27,1.49.28,1.52-1.52-.23-.41-.59c-.05-1.18-.54-3.7.75-4.12,1.54-.5,4.82-.35,4.17,1.92Z"/>
        <path class="cls-1" d="M145.84,267.28c.18,1.38,0,1.28-1.04,1.78l.54,2.71c-1.54-.08-4.04.65-3.99-1.5h2s0-1.5,0-1.5h-2.5s.23-1.51.23-1.51c.81-1.22,3.44.42,4.76.01Z"/>
        <path class="cls-1" d="M258.71,119.91c-.02,1.74-.4,3.45,1.24,4.54.4.27,2.22.33,3.25.71,1.1.4,2.92,1.19,3.5,2.24-1.49.38-2.54-.8-3.76-.98-1.07-.16-2.18.25-3.23-.26-1.51-.74-1.84-3.22-2-4.74-2.99.23-.34,4.43-2.25,5.99l-.75-3-3.99,2.5c.19-1.9,2.28-2.85,3.91-3.08l.59-3.91,1.25,1.49c.72-.58,1.17-1.67,2.25-1.49Z"/>
        <path class="cls-1" d="M319.15,244.3l-1,1.49,1.47.27,2.02,2.22c-1.71.99-2.09-.28-3.25-.49-1-.18-2.2.1-3.24,0-.32-2.51,1.59-3.91,4-3.49Z"/>
        <path class="cls-1" d="M104.88,268.78v1.5s3.21-.98,3.21-.98l2.28,2.73c-1.51,1.53-2.46.89-3.24-.74-2.86,2.12-4.24.9-3.75-2.51h1.5Z"/>
        <path class="cls-1" d="M37.46,18c-.18-.42.11-1.9-.04-2.7-.34-1.81-1.06-3.5-1.46-5.29.9-.18,1.28.43,1.61,1.14.89,1.89,2.18,8.91,2.38,11.16.07.81-.13,1.48-.99,1.69-.18-1.5-.2-3.79-.6-5.17-.18-.64-.88-.77-.9-.82.26,1.52-.42.77-1.2,1.03-1.77.59-3.3,1.38-4.79,2.47l.49-2.27,5.51-1.23Z"/>
        <path class="cls-1" d="M124.37,231.31c2.45.04,3.69-3.34,5.27-.03l1.71-.47c-1.2,4.16-2.94.71-3.79.52s-1.53,2.12-3.89,1.43c-1.24-.36-1.12-3.27-.05-3.94l.75,2.5Z"/>
        <path class="cls-1" d="M111.32,12.45c.57-.4-.06-2.95,1.55-2.44.41,2.97-3.09,5-5.47,3.23-.87-.65-.69-2.22-2.51-1.73l1,1.99h-2s-.03-2.68-.03-2.68c2.93-2.33,4.03,3.02,7.46,1.63Z"/>
        <path class="cls-1" d="M353.61,457.12c.1.97,1.88.55,1.5,1.99-.57.03-2.17.24-2.42.6-.47.65.72,1.82-1.56,1.39l-.77-3.51c.38-.7,3.38-2.1,4-1.98.12.02.99.74.51,1.01l-1.26.5Z"/>
        <path class="cls-1" d="M86.86,303.2l.79-1.45,1.25.49c.11,4.08-3.73,1.81-5.18,2.1-.63.12-.88,1.18-1.81.9.02-.94-.34-3.18.79-3.48,1.44-.38,3.12,2.15,4.16,1.43Z"/>
        <path class="cls-1" d="M295.56,280.86c3.16-.25,2.54,3.89-1.15,3.87-3.21-.02-2.73-3.56,1.15-3.87Z"/>
        <path class="cls-1" d="M293.68,258.29c.75.17,1.1-.29,1.67-.58,1.86-.96,1,1.52.79,2.55l-3.96.04c-.41-1.02.96-6.47,1.75-6.49,1.76-.05-.51,4.23-.25,4.49Z"/>
        <path class="cls-1" d="M265.21,281.77c-.79,3.05,4.69,4.44,3,.5,1.66-.58,3.02,1.83,1.9,2.9-.28.26-3.17,1.06-3.66,1.05-2.34,0-4.22-4.16-1.23-4.45Z"/>
        <path class="cls-1" d="M207.77,144.89c-.12.88-1.41.94-1.78,1.5-.29.44.17,1.05-.02,1.51-.13.33-.6.52-.7.74-.25.52,2.04-.25,1.49.99-.42.96-2.17.97-3.03.53-1.6-3.78,0-5.81,4.03-5.27Z"/>
        <path class="cls-1" d="M312.15,462.61l-.79,3.04c-1.66,1.07-3.29-.34-4.9-.07l-1.29,1.02v-3s4.67.53,4.67.53c.78-.93.68-1.87,2.31-1.53Z"/>
        <path class="cls-1" d="M256.14,150.31c-.65.94-4.64,2.04-4.94-.18-.53-4.02,6.75-2.46,4.94.18Z"/>
        <path class="cls-1" d="M247.38,180.01c-.46.47-.66,1.44-1.4,1.84-1.81-1.24-1.42-3.11-.69-4.93.92-.11,3.65-.37,3.94.7.42,1.56-1.22,1.76-1.85,2.39Z"/>
        <path class="cls-1" d="M352.61,376.19c.3.96-.82,1.23-.95,1.82-.17.79,1.25,1.18.95,2.17-2.27-.86-2.92.1-4.99.5-.3-.97,1.14-1.42.98-2.19-.07-.33-2.44-1.99-.72-2.3.7-.13,1.44.86,2.07.94.7.09,1.56-1.36,2.67-.94Z"/>
        <path class="cls-1" d="M290.68,279.77c.65,1.63-2.5,1.16-2.5,1.75l2.5.99c-.46.72-1.45.63-1.99,1.02s-.31,1.64-1.24,1.22-.74-2.95-1.71-3.75c1.21-1.53,3.23-1.28,4.95-1.24Z"/>
        <polygon class="cls-1" points="235.24 282.77 234.24 283.77 234.24 284.26 235.28 284.55 234.7 287.22 232.3 287.21 230.75 283.27 235.24 282.77"/>
        <path class="cls-1" d="M115.87,269.77c-2.98.13.27,3.28-2.25,3.53-1.73.17-3.21-3.08-2.52-4.05.56-.79,4.46-.94,4.77.51Z"/>
        <path class="cls-1" d="M254.76,181.8l-.35-.96-3.05-.38c-.38-.25-2.72,2.42-2.62.65.03-.59,1.86-2.72,2.71-2.73.36,0,2.99.45,3.43.58,1.61.46,2.01,2.99-.11,2.85Z"/>
        <path class="cls-1" d="M416.99,104.97c1.37,3.05.97,6.61,1.05,9.94-.54.63-.97.09-1-.74-.07-1.98-.36-3.8-.5-5.75l-2.49.5,1.98-1.8-.48-2.19,1.44.05Z"/>
        <path class="cls-1" d="M171.31,391.17l-.5,2.49,1.86.39,3.14,2.11c-2.39,1.18-3.92-1.09-6.49-.5-.31-.27.19-4.96,2-4.49Z"/>
        <path class="cls-1" d="M56.23,272.3c2.37-.69,3.49,4.99,1.95,4.96-.98-1.41-1.55-.83-2.72-.71-2.14.22-.1-4,.77-4.26Z"/>
        <path class="cls-1" d="M127.86,367.19c0,1.12-.31,2.27.75,2.99.93-.38,1.9-2.14,2.74-.74-.75,1.55-1.91,3.92-4.01,2.52-1.28-.86-2.65-5.47.52-4.76Z"/>
        <path class="cls-1" d="M240.89,285.11c.37.36,1.04.41,1.34.91.3.99-2.25,2.52-2.5,1.41-.47-2.14-1.14.38-1.28.38l-1.72-.54c.08-1.66,1.42-4.01,3.2-3.44.6.19.61.95.96,1.29Z"/>
        <path class="cls-1" d="M328.1,410.7l-5.45.95c-1.36-1.15,4.71-2.53,5.03-2.74l.71-2.25c1.47,1.24.92,2.52.88,3.88-.02.71.33,1.3.33,1.37-.12,1.36-1.83.2-1.5-1.21Z"/>
        <path class="cls-1" d="M67.42,14.01c.52.52-1.87,2.94-2.76,3.03-1.84.18-2.36-2.46-3.97-2.03-1.79.48.51,3.54-1.25,3.99-.42-1.42-.45-4.51.99-5.27,1.86-.97,3.1,1.8,4.25,1.8s1.46-1.76,2.75-1.53Z"/>
        <path class="cls-1" d="M347.67,393.12c2.07-.68,5.1-.13,1.96,1.08l.49,1.46c-4.2,1.83-4.2-.12-4-3.99,1.11-.21,1.26.64,1.56,1.45Z"/>
        <path class="cls-1" d="M233.63,365.31c1.61,1.62-.1,4.04-2.55,3.3-3.11-.93-.02-5.89,2.55-3.3Z"/>
        <path class="cls-1" d="M187.29,352.7c-.54-2.22,1.6-2.63,2.05-4.45,1.2-.79,2.94,1.51,2.22,2.94-.8,1.59-2.69,1.68-4.26,1.5Z"/>
        <path class="cls-1" d="M197.78,392.67l2.49.75c-2.66,2.5-3.49.21-5.99-.25-.81-.51,3.06-2.92,3.28-2.97,1.48-.33,1.31,1.65.21,2.47Z"/>
        <path class="cls-1" d="M392.57,372.19l-1.01,5.99h-1.48s0-1.49,0-1.49l-2.99-.25c1.81-2.25,4.73-.08,3.99-4.25h1.5Z"/>
        <path class="cls-1" d="M181.75,350.17c-.38.27-1.3-.42-.95,1.04,2-.66,3.55-.36,3.99,2-1,.25-1.93-.43-2.79-.47-.65-.03-1.24.35-1.88.33-2.91-.07-.58-3.4.93-4.35.4.22,1.1,1.17.7,1.45Z"/>
        <path class="cls-1" d="M288.68,401.16l2.99,1.5c.41-2.13-1.33-2.28-2-3.74,3.46-1.48,4.77,5.07,1.26,5.28-2.41.14-2.4-.87-2.25-3.03Z"/>
        <path class="cls-1" d="M140.75,395.77c.11.08.05.58.23.72.21.16,3.29,1.05,1.06,1.63-.81.21-1.96,0-2.91.08-.79.08-2.88,1.14-3.28-.29-.6-2.1,4.66-2.32,4.9-2.14Z"/>
        <path class="cls-1" d="M223.72,384.71c.31,1.46-.5,2.74-1.36,3.82-.48.59-.55,1.37-1.6,1.14-.36-1.65.91-2.66,1.5-3.99-.53-.44-4.41,1.84-4-.5,2.01-.7,3.31-1.56,5.46-.47Z"/>
        <path class="cls-1" d="M267.2,152.38h-1.5s0-1.5,0-1.5l-2.72.5c-2.27-1.08,1.91-3.77,2.94-3.48,1.21,1.09,1.34,2.97,1.28,4.49Z"/>
        <path class="cls-1" d="M192.29,124.41l-1.99,2.25,1.42,1.57c.25,1.23-1.6,2.39-2.67,2.68-1.95-1.32.6-2.02.64-2.74.02-.46-1.18-1.4-.88-2.46.23-.82,2.59-1.33,3.47-1.3Z"/>
        <path class="cls-1" d="M150.83,228.82l-1,2.99c2.38-.39,3.13-2.79,5.99-2v3.5c-1.85.54-.63-2.12-1-2.5-2.54-.22-3.28,2.74-5.99,2-.12-1.47.03-3.94,2-3.99Z"/>
        <path class="cls-1" d="M223.25,367.69l-3.19.06-.58.43c.12,4.4-2.71.55-2.22-1.98,1.85.35,5.85-1.11,5.99,1.5Z"/>
        <path class="cls-1" d="M16.98,297.25c-1.18-3.34,4.61-5.98,4.01-1.76-.28,1.99-2.39,1.88-4.01,1.76Z"/>
        <path class="cls-1" d="M312.66,412.65c-.67,3.65-3.81.17-4.23.14-.7-.06-2.21,1.2-3.26.86-.11-.79,0-1.16.48-1.78.3-.39,3.28-.76,3.67-.66.78.2,1.63,2.12,3.33,1.45Z"/>
        <path class="cls-1" d="M122.86,286.76v1.5c.99-.13-.09-1.35,1.75-1.01,3,.56-.42,3.71-2.94,2.96-1.63-1.16-1.04-3.93,1.19-3.45Z"/>
        <path class="cls-1" d="M394.55,394.15c-1.61.35-3.13,1.96-4.51.3-2.5-3.01,5.04-3.86,4.51-.3Z"/>
        <path class="cls-1" d="M320.42,378.69c.86.09,3.59,2.14,2.99,3-3.35,2.42-6.53.15-2.99-3Z"/>
        <path class="cls-1" d="M367.01,459.53c-1.06.41-1.85,1.4-3.11,1.05-2.02-.6-.06-4.65,2.41-3.93,1.04.56.94,1.91.7,2.88Z"/>
        <path class="cls-1" d="M128.35,221.82c.29-1.72,1.74-2.81,3.5-2.5l-.5,4-1-2.5c-1.08,1.26-2.29,2.13-3.99,2.5v-4.99c1.08.23.14,2.03.73,3.01.29.47.73.57,1.26.48Z"/>
        <path class="cls-1" d="M51.44,143.89c-1.25.91-.72,2.77-1.12,3.4-.08.13-.65.09-.88.42-.97,1.38.2,3.8.46,5.38l1.55.29-1.74,1.49c-2.34-2.76-.8-6.45-.77-9.66l2.51-1.33Z"/>
        <path class="cls-1" d="M257.21,257.77l1.99.77c-1.45,1.79-3.1.32-4.49-.04-1-.26-1.72.79-2.49-.46l4.73-2.25c1.03.66.4,1.06.26,1.98Z"/>
        <path class="cls-1" d="M67.34,145.8c-.42.29-1.34.01-1.91.09-.33-1.19.66-5.31,2.2-4.97.8.55,1.43,1.19,1.33,2.21-.02.24-1.49,2.58-1.62,2.67Z"/>
        <path class="cls-1" d="M396.56,443.63l.25,2.49.25-2.49c2.53-.34,2.41,1.97.98,3.23-1.13,1-2.16.77-3.43.22-.36-1.54.09-3.42,1.94-3.44Z"/>
        <path class="cls-1" d="M304.14,246.83l.02,1.46c-1.19-.41-6.85.91-7.02-.3l.03-1.7c2.53.97,4.65-.3,6.97.53Z"/>
        <path class="cls-1" d="M301.17,379.68l-1.5,2.49c.51.46,4.03-.98,3.49,1l-3.16.95-2.31-2.64c.88-1.25,1.81-2.1,3.47-1.8Z"/>
        <path class="cls-1" d="M247.31,245.21c1.45.96,4.95-1.72,4.91,1.09-3.23.71-6.99,2.54-6.49-2.49,1.29-.37,1.21,1.17,1.58,1.41Z"/>
        <path class="cls-1" d="M199.7,284.33l1.57,2.43-5.5.5c-.57-2.72,1.75-2.76,3.92-2.93Z"/>
        <path class="cls-1" d="M198.74,367.73c.18.17.08,1.24-.04,1.62-.43,1.38-1.94,1.44-3.16,1.35-1.99-.14-3.28-.34-2.75-2.51l3.71.98.79-1.99,1.45.54Z"/>
        <path class="cls-1" d="M61.88,291.82c.13.09-.12,1.56,2.04.94l-1.49-1.75c1.2-1.73,3.05-.04,3.49,1.49-1.05.96-2.81,1.96-4.24,1.78-2.33-.29-.93-3.22.2-2.46Z"/>
        <path class="cls-1" d="M137.85,370.19c0,1.44-1.3,2.29-2.64,1.91-2.02-.58-2.61-2.42-2.36-4.41,2.82-.25,1.33,3.5,4.99,2.5Z"/>
        <path class="cls-1" d="M342.12,279.77c.23,1.09,2.03.14,3.01.73,1.24.75-.05,2.77-1.25,2.77-1.08,0-3.51-1.41-3.25-2.72.18-.74,1.36-.65,1.49-.78.06-.06.08-.83.46-1.27.73-.85,4.09-1.82,4.03-.48-.02.52-3.72,1.83-4.49,1.75Z"/>
        <path class="cls-1" d="M119.37,13.01c.21-2.01.71-3.46-.04-5.46l-1.96-.04c-.07-1.9,2.1-1.91,3.02-.77,1.51,1.87,1.32,5.16-1.02,6.27Z"/>
        <path class="cls-1" d="M198.28,145.89c-.43,1.7,1.2,1.81,2.55,2.72.63.42,1.22,0,.95,1.27-1.48-.07-5.04-.22-5.77-1.49-.37-.64,1.3-2.84,2.27-2.5Z"/>
        <path class="cls-1" d="M333.57,394.75c.08.05,0,.64.39.92.93.68,3.29.73,3.16,2.49-1.23.17-2.23-.65-3.35-.89-.96-.2-4.97.17-2.81-1.53.61-.48,1.89-1.46,2.6-.99Z"/>
        <path class="cls-1" d="M240.98,244.38c5.9,2.66-1.79,6.07-1.75,2.68,0-.66,1.2-2.65,1.75-2.68Z"/>
        <path class="cls-1" d="M209.27,128.4l3.49-1.49c.46,1.82-.66,2.41-2.15,3.11-2.93,1.36-2.7-3.38-.59-4.61l-.75,2.99Z"/>
        <path class="cls-1" d="M73.92,141.89c-1.87.83.42,3.44-2.49,3.49.76-1.02.69-4.63,1.79-4.96,2.31-.82,3.09,2.67,1.97,3.97s-1.5-1.62-1.26-2.5Z"/>
        <path class="cls-1" d="M238.23,17.51c.13.84-1.22.54-1.77.52-.75-.03-1.67-.38-2.27-.27-1.09.21-5.77,3.84-6.45,3.24-.93-.82.72-1.05,1-1.22,3.18-1.93,5.73-4.48,9.49-2.27Z"/>
        <path class="cls-1" d="M370.13,458.07l4.95-.45c1.23,1.01-4.4,3.28-6.03,1.28s.9-4.35,1.08-.83Z"/>
        <path class="cls-1" d="M164.82,396.16l2.99-.25c-1.75,2.21-5.16,2.87-4.49-.99.5-2.88,3.96-1.8,1.5,1.24Z"/>
        <path class="cls-1" d="M125.86,395.17c.36,1.66-.52,1.42-1.49,2.25,1.52.77,1.47,4.34-.75,3.74-1.51-.41.34-1.56.2-2.17s-1.37-1.07-.92-2.53c.23-.74,2.14-1.21,2.96-1.29Z"/>
        <path class="cls-1" d="M136.78,284.86c.2.21-.06.99.14,1.29.36.54,3.28.31,2.92,2.1-1.99.39-6.13-.58-5.49-3.24.21-.9,2.16-.44,2.43-.16Z"/>
        <path class="cls-1" d="M58.43,291.26v1.5s-1.5,0-1.5,0c-.51,1.85,1.16,1.71,1.76,2.49.81,1.08-1.69.99-2.74.24-2.35-1.68,0-4.81,2.48-4.23Z"/>
        <path class="cls-1" d="M66.42,274.29c.25,2.22-1.55,2.75-3.48,2.48-.35-1.68,1.44-.37,1-1.99-1.05-.16-2.64-.61-2.5-2,1.94-.34,3.2,1.21,4.98,1.51Z"/>
        <path class="cls-1" d="M111.38,285.77l-1,3.49,2,.75c-.99,1.39-3.51.89-3.93-.58-.91-1.19,2.4-4.23,2.93-3.66Z"/>
        <path class="cls-1" d="M247.73,257.79l2.49-1c.31,4.95-7,2.26-2.74-1.5l1.24.75-.99,1.75Z"/>
        <path class="cls-1" d="M270.2,147.88l.46,2.29,3.53,2.21c-3.65.45-6.07-.4-5.49-4.5h1.5Z"/>
        <path class="cls-1" d="M85.41,11.01l.5,3.5c-1.75.37-1.72-.56-2-2l-3.99,1c-.26-1.24.26-.87.94-1.28,1.47-.91,2.77-1.41,4.55-1.22Z"/>
        <path class="cls-1" d="M138.26,229.4c.46.33,2.09,3.28,1.58,3.91-2.43-2.83-3.6-.51-6.49-.5.7-1.52,2.57-1.59,3.99-1.5.14-.61-.25-1.31-.82-1.47-.62-.17-3.04,1.27-1.69-.29.75-.27,2.92-.51,3.42-.15Z"/>
        <path class="cls-1" d="M129.81,286.3c.39,2.2,1.31,2.78,3.54,2.46.4,1.13-1.94,2.07-2.68,1.92-1.26-.26-2.9-3.03-2.31-4.42l1.45.04Z"/>
        <path class="cls-1" d="M77.91,103.93c.91,1.01-1.43,1.95-1.77,2.97s-.51,2.93.24,3.82c.58.69,2.18.64,2.04.95-2.03,2.87-3.74-.51-3.47-2.95.08-.7,1.93-5.95,2.98-4.79Z"/>
        <path class="cls-1" d="M127.46,244.19c-.34-.33-.82-1.95-.55-2.33,3.82-2.44,5.51-.08,1.95,2.71-.31.18-1.19-.17-1.4-.38Z"/>
        <path class="cls-1" d="M203.78,16.51c-2.26,2.41-3.17-.05-4,3.75-.19.86.54,1.48-.99,1.24.77-1.53,1.03-3.34-.99-3.51.32-3.21,3.62-.96,5.99-1.48Z"/>
        <path class="cls-1" d="M70.92,289.76c-.29,2.46.73,2.74,3,2.5.31,1.22-1.77,1.98-2.67,1.88-2.31-.25-1.88-2.68-1.82-4.38h1.5Z"/>
        <path class="cls-1" d="M310.05,380.29c2.31,2.95-4.43,4.49-3.32.72.41-1.39,2.56-1.69,3.32-.72Z"/>
        <path class="cls-1" d="M381.93,444.2c2.04-.26,1.19,3.19-1.62,3.43-3.24.27-1.05-3.09,1.62-3.43Z"/>
        <path class="cls-1" d="M402.55,112.42l-1.5,2.49c1.87.62,2.45-1.28,3.74-1.51.96-.17.82.24.76,1-1.68.47-2.72,2.15-4.69,1.98l-.84-1.23c-.43-.93,1.97-3.29,2.53-2.74Z"/>
        <path class="cls-1" d="M125.36,239.31c-.03.96-1.72,1.31-1.91,1.58-.7.99,1.1,5.01-1.58,4.91l.46-5.68,3.04-.81Z"/>
        <path class="cls-1" d="M153.33,240.81l-.54,2.71,1.04.53c-.84,1.06-2.15,1.62-3.49,1.75l-.5-3.5,1.7.49c1.14-.32.18-2.48,1.79-1.98Z"/>
        <path class="cls-1" d="M244.23,147.89c1.11,2.69-3.49,4.11-3.99,2.24-.56-2.09,2.61-2.58,3.99-2.24Z"/>
        <path class="cls-1" d="M263.08,255.93c.11.08.97,1.51,1.03,1.72.73,2.47-1.59,2.27-3.4,2.14l2-1.99-2-1.75c.3-.94,1.87-.48,2.37-.12Z"/>
        <path class="cls-1" d="M374.59,375.68l.28,3.51c-1.21.79-1.8,1.67-3.28.99l1.46-1.78-.45-1.92.48-.56,1.5-.24Z"/>
        <path class="cls-1" d="M119.87,289.76c-2.42-.06-6.12,1.81-5.49-2,1.72.72,5.46-.34,5.49,2Z"/>
        <path class="cls-1" d="M257.7,244.32c1.26,4.19-1.04,2.75-3.98,2.48v-1.48c1.51.04,2.39-1.42,3.98-1.01Z"/>
        <path class="cls-1" d="M305.16,399.66l1-1.99c-.94.24-4.26-1.46-2.24-2,3.17-.84,6.04,4.51,1.24,3.99Z"/>
        <path class="cls-1" d="M320.15,410.66c.35,2.87-1.55,3.27-4,3v-2.5c1.08-.06,1.68-.26,1.5,1h.49c.11-1.27.71-1.71,2-1.5Z"/>
        <path class="cls-1" d="M323.15,247.8l1.01-1.25-1.01-2.25c4.29-.14,4.9,4.68,0,3.49Z"/>
        <path class="cls-1" d="M355.61,408.66c.39,1.63-1.48.83-2.64,1.1-.82.2-4.59,1.62-4.85,1.39-.26-1.32.31-.85.99-1.23,1.98-1.1,4.28-2.18,6.5-1.26Z"/>
        <path class="cls-1" d="M346.07,409.61c-.46.69-4.23,1.85-4.94.3.03-.57,3.79-2.34,4.23-2.25.56.12,1.05,1.44.71,1.95Z"/>
        <path class="cls-1" d="M137.35,244.79l-2.5.51,1-3.49-2,.5,2.75-1.99c1.56,1.17-.14,2.9.75,4.48Z"/>
        <path class="cls-1" d="M23.47,278.77c.85.86-2.18,5.07-3.99,4v-3.5s1.25,2,1.25,2c.94-.63,1-1.2,1.25-2.16.16-.61,1.44-.39,1.49-.34Z"/>
        <path class="cls-1" d="M134.35,398.66l-5.99-.25,4.18-2.19c.53.24,2.32,1.97,1.81,2.44Z"/>
        <path class="cls-1" d="M156.33,267.28v2s2.77-.38,2.77-.38l.73,1.37c-1.34,0-3.31,1.08-4.52.28-.98-.65-.71-3.62,1.03-3.27Z"/>
        <path class="cls-1" d="M405.55,375.68l.25-.99c2-.67,4.06,2.63,3.03,4.03-.6.82-3.56,1.27-2.28-.28,1.38-1.68,1.28-2.01-1-2.76Z"/>
        <path class="cls-1" d="M190.79,392.67l1.25-.48c.48.43,1.08.75.25,1.24-1.09.64-2.75.8-4,.74-.35-1.99.71-2.63,2.25-3.49l.25,1.99Z"/>
        <path class="cls-1" d="M217.76,282.77l-.49,2.98c.9.19,2.85.02,2.49,1.51-1.66.19-3.7-.17-4.29-1.98-.44-1.35,1.94-2.9,2.3-2.51Z"/>
        <path class="cls-1" d="M301.17,399.16c-2.2.76-5.47,2.01-5.49-1.49,1.99,1.35,5.38-1.17,5.49,1.49Z"/>
        <path class="cls-1" d="M148.87,269.75l3.46-1.47c.33,2.16-2.67,3.8-4.27,2.53-1.76-1.4.22-3.91.82-1.05Z"/>
        <path class="cls-1" d="M407.05,446.62c.44-1.19,2.17-1.65,2-2.99l-1.5-1.5c4.6-.31,3.53,4.84-.5,4.49Z"/>
        <path class="cls-1" d="M387.98,443.72c-.04,1.61,4.01,2.34,4.08,3.15.08.96-1.35.38-1.77.28-2.13-.5-3.93-.92-3.72-3.53l1.41.1Z"/>
        <path class="cls-1" d="M140.81,367.21c.22.25.19,1.43.64,1.87.42.42,1.65.39,2.14,1.1.9,1.3-2.39.7-3.24.24-1.23-.68-1.07-1.98-1.01-3.23l1.46.02Z"/>
        <path class="cls-1" d="M235.24,364.7l4.99,1.25c-1.79,1.83-5.65,2.18-4.99-1.25Z"/>
        <path class="cls-1" d="M356.02,113.52c.08.06,1.2,1.37,1.08,1.63l-1.24,1.25-1.02-1.52c-.7,0-2.65,1.61-3.22,1.02-.05-.05-.25-1.57.33-1.5l3.46-1.02.62.12Z"/>
        <path class="cls-1" d="M204.03,344.71c.58-.18,1.1.33,1.03,1.01-.07.74-.29,4.53-1.04,4.48-1.97-.54-.98-5.19,0-5.49Z"/>
        <path class="cls-1" d="M237.24,243.3c0,.71-.08,1.45.1,2.15.35,1.38,2.31,2.18.65,3.34-2.07-.85-2.41-3.45-2.25-5.49h1.5Z"/>
        <path class="cls-1" d="M401.56,376.69c-.07,3.35-1.42,1.3-2.23,1.2-.65-.08-1.88.59-2.77.3v-2s4.99.5,4.99.5Z"/>
        <path class="cls-1" d="M180.66,395.03c-2,2.19-5.08.79-1.87-1.63,2.19-1.64,3.22.15,1.87,1.63Z"/>
        <path class="cls-1" d="M329.14,281.77c.16,2.12-2.98,1.76-4,.76s-.15-2.08.01-3.26c1.62,1.52.95,3.1,3.99,2.5Z"/>
        <path class="cls-1" d="M68.93,183.86c1.58.2,2.8-.1,4.28-.47.83-.21.91-.93,1.71.23,0,1.25-.94,1.06-1.73,1.26-1.52.39-4.26,1.29-4.26-1.02Z"/>
        <path class="cls-1" d="M339.13,398.16l1.5-1.75-2-2.25c1.18-.22,3.53.98,3.52,2.25-.3,1.51-1.59,1.95-3.02,1.75Z"/>
        <path class="cls-1" d="M14.48,293.76l-.25,4.99c-1.05-.89-1.34-2.17-1.25-3.49l-1.99.25c.84-1.06,2.17-1.63,3.49-1.75Z"/>
        <path class="cls-1" d="M317.15,449.12l.25,1.01,1.99-1.03c2.25.56,1.08,2.04-.59,2.42-1.9.43-2.91-.02-2.65-2.15l1-.25Z"/>
        <path class="cls-1" d="M74.92,273.27c-.4-1.98,1.04-2.76,2.25-3.99,1.9,1.92.31,4.49-2.25,3.99Z"/>
        <path class="cls-1" d="M375.58,444.13l-1,2.49,1.49.76c-.99,1.62-3.86.48-3.29-1.26.35-1.09,1.61-2.02,2.79-1.98Z"/>
        <path class="cls-1" d="M280.69,147.39c-.76,2.18,1.2,4.4-2.5,3.99,1.27-1.42-.42-2.4-.43-2.75-.03-.77,2.11-1.58,2.93-1.24Z"/>
        <path class="cls-1" d="M312.65,449.62c-.7,4.13-2.64,1.55-4.99.49.83-1.99,3.26.05,4.99-.49Z"/>
        <path class="cls-1" d="M89.15,287.27c1.4,1.13,2.71,3.45.99,4.99-1.4.28-1.3-2.22-1.38-3.11-.08-.81-.78-1.11.39-1.88Z"/>
        <path class="cls-1" d="M226.8,367.16l1.45.03c-.78,3.59-5.28-.12-2.75-2.5,1.65-.11,1.04,2.23,1.29,2.46Z"/>
        <path class="cls-1" d="M257.72,151.38l1.54-1.8-.55-2.44c.03-.58,1.79-.54,2.02.99.35,2.33-.72,3.24-3.01,3.25Z"/>
        <path class="cls-1" d="M158.92,243.42c-.27.39.23,1.88-.84,1.38-2.42-1.14-.81-4.16,1.47-3.48s-.52,1.95-.63,2.1Z"/>
        <path class="cls-1" d="M0,233.81c1.67.55.66,2.01.77,3.05.16,1.48.68,2.25.37,3.82-.18.95.09,1.33-1.14,1.13v-7.99Z"/>
        <path class="cls-1" d="M400.06,393.67c-.86.04-1.83-.16-2.66.09-.89.26-1.16,1.65-2.33,1.41-1.42-1.53,4.83-5.14,4.99-1.5Z"/>
        <path class="cls-1" d="M259.68,362.67l-1.46.02.5-4.99c2.45.09,1.47,3.38.96,4.97Z"/>
        <path class="cls-1" d="M313.56,379.28c.14.1.2.82.59,1.13.89.69,2.85.18,2.5,1.77l-3.51-.23c-1.28-1.1-1.42-3.9.42-2.66Z"/>
        <path class="cls-1" d="M263.21,246.3l-2.69-.02-.55,1.03-1.24-.76c.96-1.65,1.69-3.05,3.67-1.68.59.41.99.58.82,1.43Z"/>
        <path class="cls-1" d="M135.34,218.33c-.04,1.68,1.62,1.24,2.5,2.24-.78,1.76-1.57,1.98-3.49,1.75l1.5-.5v-1.5s-1.51-.25-1.51-.25l1-1.75Z"/>
        <path class="cls-1" d="M251.72,21.5l2.75-1.99.24-2c1.14-.13,1.62.68,1.52,1.74-.17,1.76-3.01,2.35-4.52,2.26Z"/>
        <path class="cls-1" d="M63.93,198.34c.52.66.3,6.88-1.99,6.49-.41-.46,1.3-3.13,1.42-3.85.03-.18-.9-4.51.57-2.64Z"/>
        <path class="cls-1" d="M144.34,233.81v-3c-.3-.31-3.47,1.71-3-.5,1.64.15,2.75.11,3.99-1,.45.56.3,4.23-.99,4.5Z"/>
        <path class="cls-1" d="M266.7,243.8c.2.22.6,2.22.47,2.7-.27.98-1.67.84-2.46.8.06-1.47,1.72-1.56,0-2.75.23-.63,1.72-1.05,1.99-.75Z"/>
        <path class="cls-1" d="M114.37,365.69c.22,1.44-.62,2.34-1,3.65-.2.7-.97.25-1.49.34-.33-1.83.46-3.75,2.49-4Z"/>
        <path class="cls-1" d="M217.26,365.69c-.23-1.29.23-.88,1-1.22,3.9-1.74,5.53.36,1.63,1.11-.88.17-1.75.15-2.63.12Z"/>
        <path class="cls-1" d="M212.77,284.77c.18,1.05-.09,1.03-.98,1.25-1.21.3-2.29.32-3.52.25-.46-2.96,2.73-1.33,4.5-1.5Z"/>
        <path class="cls-1" d="M358.6,457.61c-.45,2.56,2.05,1.59,2.75,2.5.49.27-.4.98-.51,1-.47.08-2.3-.9-3.24-.5.22-1.04-.78-3.4,1-3Z"/>
        <path class="cls-1" d="M200.28,282.27v1.5s-4.5.5-4.5.5c.15-2.2,2.92-2.08,4.5-2Z"/>
        <path class="cls-1" d="M146.09,367.2c.96.5.46,1.08.54,1.44.22,1.02.98,1.91-.05,2.55-2.28-.62-2.27-2.8-.49-3.99Z"/>
        <path class="cls-1" d="M0,284.77v-8.49l.97,3.8c-.85,1.59.97,3.85-.97,4.7Z"/>
        <path class="cls-1" d="M384.68,84.84c.26.25,1.27.13,1.64.6l1.75,2.01c-1.3.39-1.8-1.1-2.15-1.33-.86-.57-4.16-1.33-2.1-3.16.8.37.55,1.58.85,1.89Z"/>
        <path class="cls-1" d="M375.08,94.44l-.47,3.7c2.08,1.08,2.03,2.25-.52,2.29.02-1.58-.04-3.17,0-4.75.02-1.02-.36-1.44,1-1.24Z"/>
        <path class="cls-1" d="M247.23,124.41c1.08,1.73-2.83,4.16-3.49,3.49-.06-.06-.26-1.34.34-1.49,2.1-.52,1.32-1.7,3.15-2Z"/>
        <path class="cls-1" d="M84.41,330.22c-2.7-.24-6.01,1.99-4.62,4.87,1.29,2.66,6.41,1.82,6.64-.64.14-1.54-1.93-2.59-.28-3.73,2.83,1.16,2.39,5.46-.07,6.92-6.27,3.73-12.01-4.18-6.15-8.15,1.41-.95,4.39-1.6,4.47.73Z"/>
        <path class="cls-1" d="M208.11,316.82c4.35-1.33,6.1,6.55.88,6.92-3.95.28-4.28-5.88-.88-6.92ZM207.77,321.73c1.3.17,2.33-.1,2.94-1.31-.9-3.89-3.42-1.79-2.94,1.31Z"/>
      </g>
    </g>
  </g>
</svg>