<svg width="162" height="156" viewBox="0 0 162 156" fill="none" xmlns="http://www.w3.org/2000/svg">
<path d="M141.489 53.0515C133.523 63.9133 123.1 72.5616 112.018 80.1745C118.786 81.1258 131.905 91.8508 130.901 98.8377C130.56 101.214 126.397 102.687 126.312 105.252C125.697 105.634 125.156 106.208 124.529 106.561C120.869 108.628 113.418 110.866 109.138 111.557C105.383 112.164 95.402 111.229 93.2646 111.998C90.0656 113.149 86.6791 117.003 83.507 118.885C77.4564 122.474 68.5891 127.575 62.0674 129.78C49.3336 134.086 30.6189 130.445 35.3862 113.148C36.3661 109.596 39.7365 101.837 42.2251 99.1786C45.8837 95.2681 50.7904 93.161 53.7875 88.6854C37.4815 87.881 5.46089 80.0632 24.2576 58.5328C37.3985 43.4817 50.5794 49.8152 63.62 60.9479L71.1613 45.1229C76.7504 37.188 97.997 17.3308 105.915 30.6132C108.554 35.0411 105.654 39.7229 102.766 34.9266C100.79 31.6471 100.228 30.0559 95.4957 31.0727C89.6284 32.3318 81.2965 41.2724 77.3788 46.0706C73.4288 50.9077 66.6038 61.7846 70.3809 67.9412C71.5599 69.8623 74.9447 70.8553 74.0448 73.2094C70.8542 81.5366 63.5128 67.6631 61.0253 64.9179C54.4979 57.7075 41.4819 50.2297 32.2249 56.5664C27.7296 59.6445 21.4569 68.8884 24.302 74.3771C28.5912 82.6582 50.6876 83.7829 58.9728 83.3281C61.5978 83.1825 66.6722 79.9929 68.3 84.1763C69.6375 87.6075 59.4716 90.1344 56.8525 91.8685C49.2192 96.9156 39.5936 107.376 39.6561 116.96C39.7006 123.774 42.1612 124.678 48.4057 126.16C54.2113 127.538 59.6769 126.528 65.2636 124.464C71.1319 122.293 80.6144 116.285 85.2276 112.081C88.302 109.279 88.5521 103.671 90.6667 102.822C94.6135 101.237 95.3078 105.874 96.5412 106.65C101.503 109.765 125.885 103.538 125.617 97.6466C125.383 92.5037 115.32 85.3766 110.18 84.3869C107.59 83.8882 95.1929 86.0554 97.2823 80.6961C98.6214 77.2642 104.317 79.1101 107.227 77.9298C114.297 75.0567 123.759 67.2657 129.314 61.8719C130.271 60.9404 135.58 55.0084 135.73 54.5449C136.517 52.0875 128.735 51.4603 127.113 51.5277C115.869 51.9891 97.749 61.0594 91.4692 70.3725C88.2944 75.079 91.4299 75.9109 90.1944 79.6291C88.2497 85.4883 79.1816 91.3147 75.3455 84.5344C73.5642 81.3865 76.3574 81.7478 77.0713 80.6419C85.6328 67.3846 89.0996 62.6525 103.619 55.2539C114.365 49.7794 127.029 45.8968 138.884 49.5033L141.495 53.0594L141.489 53.0515Z" fill="#0049D1"/>
</svg>
