<?xml version="1.0" encoding="UTF-8"?>
<svg id="Layer_2" data-name="Layer 2" xmlns="http://www.w3.org/2000/svg" viewBox="0 0 403 518.16">
  <defs>
    <style>
      .cls-1 {
        fill: #fff;
      }
    </style>
  </defs>
  <g id="Layer_1-2" data-name="Layer 1">
    <path class="cls-1" d="M268.07,0c16.46,52.34,19.73,107.41,18.01,162.15,19.44-19.93,86.28-37.15,106.8-17.01,6.98,6.85,1.78,24.07,10,30.53-.23,2.94.35,6.1,0,9.01-2.04,17-12.65,46.86-20.7,62.58-7.06,13.79-34.19,44.31-36.82,53.18-3.93,13.28.56,33.69-.91,48.64-2.8,28.52-7.43,69.93-15.91,96.66-16.56,52.19-73.63,104.86-118.93,47.51-9.3-11.78-26.65-41.55-29.38-56.13-4.02-21.44.89-42.63-6.58-63.26-41.95,51.6-144.81,137.89-170.19,24.27-17.74-79.43,34.83-107.44,102.82-123.42l-33.78-62.91c-12.58-37.48-26.56-155.11,36.14-149.09,20.9,2.01,29.28,22.82,6.57,20.74-15.53-1.42-22.11-3.41-30.18,14.58-10.01,22.3-.74,71.21,5.57,95.64,6.36,24.63,25.62,73.26,54.94,75.7,9.15.76,20.57-7.96,26.13.67,19.65,30.55-43.6,21.21-58.61,22.76-39.41,4.05-95.34,28.76-96.85,74.43-.73,22.18,14.5,65.06,39.38,68.95,37.53,5.88,94.49-63.96,112.97-92.26,5.85-8.97,7.61-33.32,25.27-28.58,14.49,3.88-1.72,43.35-2.34,56.13-1.83,37.23,9.31,94.05,40.93,116.95,22.48,16.28,31.38,10.38,51.3-6.55,18.52-15.74,28.38-36.12,35.07-59.44,7.02-24.5,10.15-70.12,7.47-95.4-1.79-16.85-19.6-31.19-17.29-40.18,4.31-16.78,21.21-7.88,26.73-10.06,22.19-8.78,60.52-103.85,40.53-117.17-17.45-11.63-65.11,4.23-80.75,18.72-7.88,7.3-30.65,53.23-43.21,33.45-8.04-12.67,11.75-26.92,14.89-39.32,7.61-30.14,4.84-79.99.52-111.23-.75-5.39-7.43-37.12-8.59-38.73-6.17-8.51-26.99,15.53-30.68,21.02-25.59,38.03-39.49,119.39-24.05,162.46,7.8,21.77,18.09,13.48,27.32,26.5,14.55,20.51,11.82,64.33-19.69,60.58-14.63-1.74-6.71-10.04-8.62-15.05-22.89-60.07-30.07-82.86-19.36-148.37,7.93-48.48,25.71-99.42,66.13-129.65h17.97Z"/>
  </g>
</svg>