<svg width="132" height="132" viewBox="0 0 132 132" fill="none" xmlns="http://www.w3.org/2000/svg">
<g id="Group 30" filter="url(#filter0_d_88_941)">
<rect id="Rectangle 10" x="4" y="0.213379" width="123.458" height="123.458" rx="20" fill="white"/>
<circle id="Ellipse 2" cx="39.9587" cy="79.3221" r="30.7282" fill="url(#paint0_radial_88_941)"/>
<rect id="Rectangle 11" x="54.9958" y="18.5194" width="61.4564" height="61.4564" rx="5" fill="url(#paint1_linear_88_941)"/>
<path id="Vector 3" d="M27.5364 79.4711C29.906 67.9717 45.1788 43.7183 57.3553 42.8023C69.5318 41.8862 57.206 68.4594 63.4386 71.4562C69.6713 74.4529 74.476 60.2417 81.9473 56.4322C91.5152 51.5536 82.8135 77.1611 88.0804 76.5338C93.3472 75.9066 99.9681 68.7082 99.9681 68.7082" stroke="url(#paint2_linear_88_941)" stroke-width="6" stroke-linecap="round"/>
</g>
<defs>
<filter id="filter0_d_88_941" x="0" y="0.213379" width="131.458" height="131.458" filterUnits="userSpaceOnUse" color-interpolation-filters="sRGB">
<feFlood flood-opacity="0" result="BackgroundImageFix"/>
<feColorMatrix in="SourceAlpha" type="matrix" values="0 0 0 0 0 0 0 0 0 0 0 0 0 0 0 0 0 0 127 0" result="hardAlpha"/>
<feOffset dy="4"/>
<feGaussianBlur stdDeviation="2"/>
<feComposite in2="hardAlpha" operator="out"/>
<feColorMatrix type="matrix" values="0 0 0 0 0.374314 0 0 0 0 0.176881 0 0 0 0 0.0283433 0 0 0 0.25 0"/>
<feBlend mode="normal" in2="BackgroundImageFix" result="effect1_dropShadow_88_941"/>
<feBlend mode="normal" in="SourceGraphic" in2="effect1_dropShadow_88_941" result="shape"/>
</filter>
<radialGradient id="paint0_radial_88_941" cx="0" cy="0" r="1" gradientUnits="userSpaceOnUse" gradientTransform="translate(27.5366 57.0932) rotate(76.7989) scale(54.3945)">
<stop stop-color="#FD8B00"/>
<stop offset="0.616713" stop-color="#FE6D00"/>
<stop offset="1" stop-color="#FF5E00"/>
</radialGradient>
<linearGradient id="paint1_linear_88_941" x1="66.7641" y1="12.6353" x2="106.645" y2="93.7054" gradientUnits="userSpaceOnUse">
<stop stop-color="#94D6FF"/>
<stop offset="0.308147" stop-color="#22AAFF"/>
</linearGradient>
<linearGradient id="paint2_linear_88_941" x1="58.9185" y1="34.8642" x2="71.9943" y2="84.5524" gradientUnits="userSpaceOnUse">
<stop offset="0.78" stop-color="#2F3A8F"/>
<stop offset="1" stop-color="#0D1029"/>
</linearGradient>
</defs>
</svg>
