<?xml version="1.0" encoding="UTF-8"?>
<svg id="Layer_2" data-name="Layer 2" xmlns="http://www.w3.org/2000/svg" viewBox="0 0 707.28 3089.64">
  <g id="Layer_1-2" data-name="Layer 1">
    <path d="M252.67,4.3c-6.56,61.52,23.56,117.99,50.93,170.82,14.49,27.98,28.96,56.13,38.7,86.19,10.52,32.46,16.01,66.34,17.48,100.39,2.92,67.46-8.47,136.07-28.02,200.53-7.87,25.93-17.81,51.09-28.98,75.76-9.39,20.72-19.36,41.19-27.78,62.34-21.56,54.17-30.21,113.28-29.01,171.43.77,37.37,6.36,74.99,22.07,109.15,21.23,46.16,57,82.88,98.58,111.29,14.3,9.77,29.02,19.38,43.88,28.28,26.59,15.94,56.25,27.55,86.98,32.19,29.93,4.51,61.38,2.63,89.62-8.88,24.18-9.86,44.98-26.77,60.38-47.79s24.72-45.52,25.19-71.11c.45-24.19-7.93-47.75-23.33-66.36-29.49-35.63-80.22-48.83-124.8-43.69-54.05,6.23-98.05,40.94-129.94,83.36-36.99,49.21-59.9,108.56-78.97,166.59-22.03,67.03-36.92,136.38-44.17,206.57-2.63,25.42-3.17,50.48,2.85,75.51,4.98,20.69,14.38,42.3,32.3,54.93,18.65,13.14,44.13,11.58,62.38-1.46,21.43-15.3,33.68-40.93,41.08-65.5,16.54-54.92,18.31-114.53,4.67-170.27-13.37-54.64-42.43-106.41-86.18-142.4s-94.34-54.4-148.08-56.58c-53.57-2.17-110.97,14.77-148.97,54.02-20.52,21.2-33.07,48.73-31.35,78.58,1.85,32.2,17.44,62.14,35.57,88.13,37.11,53.2,85.17,97.6,133,140.94s96.26,85.94,135.48,137.16c37.38,48.82,68.06,105.84,75.1,167.74,3.42,30.05.82,60.13-6.73,89.37-7.52,29.14-19.25,56.96-31.9,84.19-24.97,53.73-54.58,106.8-65.62,165.65-5.7,30.43-7.56,64.74,10.4,91.67,17.03,25.55,46.37,42.34,72.79,56.6,57.64,31.11,122.37,48.97,187.82,51.69,57.8,2.41,130.79-6.21,155.67-67.47,10.07-24.8,6.45-52.48-11.14-72.89s-42.33-29.43-66.67-35.02c-26.89-6.17-55.12-7.92-82.63-7.9s-57.25,2.73-85.36,8.07c-55.8,10.6-110.09,32.14-156.3,65.43-44.89,32.34-81.23,75.13-103.11,126.13-21.1,49.19-29.73,104.05-22.85,157.25,6.57,50.82,27.67,103.5,65.57,139.2,32.57,30.68,96.99,57.45,132.93,16.89,7.15-8.07-4.89-21.53-11.59-25.94-9.1-6-20.76-7.8-31.41-6.22-27.34,4.07-41.28,32.05-49.28,55.53-9.84,28.89-17.45,58.91-22.68,88.97s-7.9,61.14-5.03,91.74c2.74,29.3,10.52,58.12,25.09,83.81,6.83,12.05,15.29,25.35,28.12,31.72,10.22,5.08,22.13,5.08,32.1-.61,20.5-11.7,29.68-39.47,33.6-61.28,3.78-21.06,5.52-48.04-7.39-66.54-6.04-8.66-15.36-14.31-25.97-15.07-12.43-.89-24.3,5.9-32.14,15.16-21.64,25.57-10.74,59.38-.02,87.18,1.67,4.34,9.29,4.28,8.84-1.2-4.48-54.43-53-99.65-107.1-103.08-25.31-1.61-57.07,6.97-69.4,31.38-14.04,27.79,6.77,54.62,27.68,71.52,14.9,12.04,31.46,22.08,47.38,32.69,18.42,12.28,36.83,24.56,55.25,36.85,4.51,3.01,8.55-3.39,5.45-7.07-16.13-19.15-44.37-22.81-67.02-14.39-26.03,9.67-42.21,34.32-48.35,60.56-5.46,23.33-8.87,63.05,18.93,73.51,12.11,4.55,26.16,2.21,38.11-1.68,13.94-4.54,27.42-10.99,39.99-18.5,28.45-17.01,52.67-40.58,70.54-68.48l-7.77-4.54c-11.23,25.84-20.64,56.78-9.68,84.35,8.57,21.57,29.24,39.93,53.58,38.04,2.05-.16,3.72-1.3,4.34-3.3,13.76-44.86,9.93-93.84-10.24-136.15-2-4.21-8.31-1.92-8.39,2.27-.87,51.42,61.13,95.18,107.89,68.12,20.07-11.62,32.2-33.79,34.89-56.41,1.33-11.14.28-22.8-3.69-33.34-4.45-11.81-12.16-20.97-21.8-28.97-27.7-22.98-64.17-31.66-97.51-15.71-5.22,2.5-.66,10.26,4.54,7.77,26.48-12.67,55.74-7.42,79.38,8.84,9.49,6.53,18.67,14.53,24.14,24.82,4.63,8.72,6.6,18.67,6.48,28.5-.24,19.66-8.87,39.82-24.37,52.23-17.47,13.99-41.55,14.31-61.14,4.64-22.86-11.28-40.26-34.4-39.81-60.51l-8.39,2.27c19.13,40.14,22.35,86.75,9.33,129.22l4.34-3.3c-21.24,1.65-39.27-14.9-45.91-34.13-8.52-24.65-.17-51.83,9.78-74.72,2.26-5.2-4.57-9.54-7.77-4.54-14.04,21.91-32.24,41.13-53.46,56.21-10.7,7.6-22.12,14.21-34.06,19.66-10.85,4.96-22.64,9.72-34.66,10.61-12.72.94-24.68-3.24-29.2-16.15-4.04-11.54-3.3-25.43-1.74-37.39,3.12-23.89,14.32-49.14,36.13-61.42,20.86-11.76,50.06-10.8,66.2,8.36l5.45-7.07c-28.79-19.2-57.66-38.29-86.38-57.6-19.34-13-46.77-33.57-43.92-60.12s33.67-37.58,56.57-38.11c24.47-.57,48.71,8.81,67.58,24.2,21.29,17.36,36.52,42.38,38.79,70.05l8.84-1.2c-9.47-24.55-21.62-56.92-1.35-79.52,7.42-8.27,18.29-13.75,29.48-10.51,8.37,2.42,14.19,8.97,17.49,16.82,7.53,17.92,5.46,40.23,1.28,58.7s-11.82,41.1-29.16,50.2c-23.13,12.14-40.7-16.36-49.61-33.3-11.85-22.51-18.52-47.55-21.04-72.8-5.1-51.2,4.85-102.86,18.72-151.97,6.94-24.54,13.73-56.04,36.21-71.39,15.67-10.7,46.03-7.57,49.26,14.71l1.16-4.38c-30.73,34.67-84.14,14.99-114.37-9.97-34.14-28.18-55.48-72.02-65.26-114.49-20.33-88.35,5.69-186.77,66.14-254.13,65.35-72.82,162.04-110.69,258.35-117.04,24.32-1.6,48.77-1.27,73.04,1.01,22.05,2.07,44.27,5.69,64.81,14.32,19.35,8.13,37.93,21.54,45.49,41.89,8.48,22.83.87,48.06-13.93,66.49-34.4,42.81-98.82,43.52-148.8,39.78-55.59-4.17-110.44-19.55-160.13-44.81-23.51-11.95-48.27-25.69-67.18-44.35-9.68-9.56-17.15-20.85-21-33.97-3.94-13.45-4.39-27.63-3.3-41.52,4.01-51.13,26.14-99.18,47.96-144.83,21.65-45.3,45.03-90.81,55.59-140.27,10.66-49.91,5.32-100.9-12.83-148.43-38.93-101.95-121.97-175.06-200.67-246.52-40.17-36.48-80.06-73.76-113.51-116.67s-65.58-97.69-37.49-149.62c22.63-41.85,71.11-65.69,116.41-73.33,44.99-7.58,92.43-.03,133.78,18.84,42.57,19.43,78.11,50.72,102.81,90.46,25.85,41.58,39.53,90.1,41.84,138.87,1.17,24.61-.45,49.38-4.96,73.61-4.29,23.04-10.42,46.52-22.28,66.93-10.59,18.23-27.18,35.54-49.64,36.05-17.79.4-32.12-9.68-41.34-24.36-23.76-37.78-18.62-85.69-13.33-127.65,7.52-59.6,20.77-118.49,39.09-175.69,16.13-50.36,35.21-100.96,63.08-146.12,24.63-39.91,59-78.42,103.83-95.58,36.68-14.05,80.21-13.45,115.92,3.36,17.02,8.01,32.45,19.84,43.07,35.52,11.71,17.29,17.03,37.97,15.54,58.77-3.13,43.92-34.37,83.89-73.46,102.51-47.87,22.8-105.73,13.98-152.17-7.9-17.05-8.03-32.55-18.5-48.43-28.54-13.48-8.52-26.75-17.39-39.23-27.34-33.24-26.52-61.41-60.95-77.38-99.55-11.94-28.87-16.5-60.4-17.61-91.45-1.83-51.11,4.13-103.71,20.17-152.38,12.34-37.44,31.24-72.2,46.29-108.54,20.32-49.07,33.57-101.06,41.27-153.56,8.26-56.36,9.34-114.22-2.68-170.14-5.78-26.9-14.93-52.73-26.42-77.7s-23.76-47.2-35.65-70.8c-22.01-43.69-41.8-90.57-36.48-140.55.61-5.75-8.39-5.71-9,0h0Z"/>
  </g>
</svg>